AnekMalayalam-CondensedMedium.ufo
<glyph name="percent" format="2">
  <advance width="1134"/>
  <unicode hex="0025"/>
  <outline>
    <contour>
      <point x="385" y="0" type="line"/>
      <point x="900" y="1278" type="line"/>
      <point x="751" y="1278" type="line"/>
      <point x="234" y="0" type="line"/>
    </contour>
    <contour>
      <point x="862" y="-22" type="curve" smooth="yes"/>
      <point x="1008" y="-22"/>
      <point x="1080" y="64"/>
      <point x="1080" y="219" type="curve" smooth="yes"/>
      <point x="1080" y="395" type="line" smooth="yes"/>
      <point x="1080" y="550"/>
      <point x="1008" y="636"/>
      <point x="862" y="636" type="curve" smooth="yes"/>
      <point x="716" y="636"/>
      <point x="645" y="550"/>
      <point x="645" y="395" type="curve" smooth="yes"/>
      <point x="645" y="219" type="line" smooth="yes"/>
      <point x="645" y="64"/>
      <point x="716" y="-22"/>
    </contour>
    <contour>
      <point x="862" y="102" type="curve" smooth="yes"/>
      <point x="813" y="102"/>
      <point x="793" y="137"/>
      <point x="793" y="211" type="curve" smooth="yes"/>
      <point x="793" y="402" type="line" smooth="yes"/>
      <point x="793" y="477"/>
      <point x="813" y="512"/>
      <point x="862" y="512" type="curve" smooth="yes"/>
      <point x="911" y="512"/>
      <point x="931" y="477"/>
      <point x="931" y="402" type="curve" smooth="yes"/>
      <point x="931" y="211" type="line" smooth="yes"/>
      <point x="931" y="137"/>
      <point x="911" y="102"/>
    </contour>
    <contour>
      <point x="272" y="640" type="curve" smooth="yes"/>
      <point x="418" y="640"/>
      <point x="489" y="726"/>
      <point x="489" y="880" type="curve" smooth="yes"/>
      <point x="489" y="1057" type="line" smooth="yes"/>
      <point x="489" y="1210"/>
      <point x="418" y="1296"/>
      <point x="272" y="1296" type="curve" smooth="yes"/>
      <point x="125" y="1296"/>
      <point x="54" y="1210"/>
      <point x="54" y="1057" type="curve" smooth="yes"/>
      <point x="54" y="880" type="line" smooth="yes"/>
      <point x="54" y="726"/>
      <point x="125" y="640"/>
    </contour>
    <contour>
      <point x="272" y="764" type="curve" smooth="yes"/>
      <point x="223" y="764"/>
      <point x="203" y="798"/>
      <point x="203" y="873" type="curve" smooth="yes"/>
      <point x="203" y="1064" type="line" smooth="yes"/>
      <point x="203" y="1138"/>
      <point x="223" y="1173"/>
      <point x="272" y="1173" type="curve" smooth="yes"/>
      <point x="320" y="1173"/>
      <point x="340" y="1138"/>
      <point x="340" y="1064" type="curve" smooth="yes"/>
      <point x="340" y="873" type="line" smooth="yes"/>
      <point x="340" y="798"/>
      <point x="320" y="764"/>
    </contour>
  </outline>
</glyph>
<glyph name="plus" format="2">
  <advance width="670"/>
  <unicode hex="002B"/>
  <outline>
    <contour>
      <point x="410" y="964" type="line"/>
      <point x="260" y="964" type="line"/>
      <point x="260" y="309" type="line"/>
      <point x="410" y="309" type="line"/>
    </contour>
    <contour>
      <point x="613" y="564" type="line"/>
      <point x="613" y="709" type="line"/>
      <point x="57" y="709" type="line"/>
      <point x="57" y="564" type="line"/>
    </contour>
  </outline>
</glyph>
<glyph name="three" format="2">
  <advance width="609"/>
  <unicode hex="0033"/>
  <outline>
    <contour>
      <point x="256" y="-18" type="curve" smooth="yes"/>
      <point x="463" y="-18"/>
      <point x="551" y="106"/>
      <point x="551" y="302" type="curve" smooth="yes"/>
      <point x="551" y="404" type="line" smooth="yes"/>
      <point x="551" y="544"/>
      <point x="502" y="635"/>
      <point x="362" y="661" type="curve"/>
      <point x="369" y="643" type="line"/>
      <point x="369" y="669" type="line"/>
      <point x="493" y="695"/>
      <point x="545" y="785"/>
      <point x="545" y="920" type="curve" smooth="yes"/>
      <point x="545" y="998" type="line" smooth="yes"/>
      <point x="545" y="1186"/>
      <point x="464" y="1297"/>
      <point x="272" y="1297" type="curve" smooth="yes"/>
      <point x="176" y="1297"/>
      <point x="104" y="1269"/>
      <point x="56" y="1237" type="curve"/>
      <point x="44" y="1075" type="line"/>
      <point x="95" y="1105"/>
      <point x="157" y="1134"/>
      <point x="228" y="1134" type="curve" smooth="yes"/>
      <point x="330" y="1134"/>
      <point x="367" y="1072"/>
      <point x="367" y="959" type="curve" smooth="yes"/>
      <point x="367" y="907" type="line" smooth="yes"/>
      <point x="367" y="796"/>
      <point x="322" y="738"/>
      <point x="201" y="733" type="curve" smooth="yes"/>
      <point x="126" y="730" type="line"/>
      <point x="126" y="577" type="line"/>
      <point x="200" y="574" type="line" smooth="yes"/>
      <point x="322" y="569"/>
      <point x="371" y="519"/>
      <point x="371" y="398" type="curve" smooth="yes"/>
      <point x="371" y="322" type="line" smooth="yes"/>
      <point x="371" y="208"/>
      <point x="333" y="147"/>
      <point x="223" y="147" type="curve" smooth="yes"/>
      <point x="151" y="147"/>
      <point x="90" y="175"/>
      <point x="35" y="212" type="curve"/>
      <point x="47" y="40" type="line"/>
      <point x="92" y="10"/>
      <point x="169" y="-18"/>
    </contour>
  </outline>
</glyph>
<glyph name="six" format="2">
  <advance width="718"/>
  <unicode hex="0036"/>
  <outline>
    <contour>
      <point x="366" y="-20" type="curve" smooth="yes"/>
      <point x="561" y="-20"/>
      <point x="655" y="93"/>
      <point x="655" y="313" type="curve" smooth="yes"/>
      <point x="655" y="500" type="line" smooth="yes"/>
      <point x="655" y="704"/>
      <point x="593" y="820"/>
      <point x="445" y="820" type="curve" smooth="yes"/>
      <point x="332" y="820"/>
      <point x="280" y="759"/>
      <point x="260" y="674" type="curve"/>
      <point x="222" y="674" type="line"/>
      <point x="249" y="537" type="line"/>
      <point x="263" y="611"/>
      <point x="304" y="670"/>
      <point x="372" y="670" type="curve" smooth="yes"/>
      <point x="452" y="670"/>
      <point x="481" y="609"/>
      <point x="481" y="491" type="curve" smooth="yes"/>
      <point x="481" y="309" type="line" smooth="yes"/>
      <point x="481" y="189"/>
      <point x="449" y="132"/>
      <point x="367" y="132" type="curve" smooth="yes"/>
      <point x="284" y="132"/>
      <point x="251" y="189"/>
      <point x="251" y="309" type="curve" smooth="yes"/>
      <point x="251" y="901" type="line" smooth="yes"/>
      <point x="251" y="1058"/>
      <point x="304" y="1132"/>
      <point x="435" y="1132" type="curve" smooth="yes"/>
      <point x="512" y="1132"/>
      <point x="569" y="1106"/>
      <point x="617" y="1074" type="curve"/>
      <point x="603" y="1237" type="line"/>
      <point x="561" y="1265"/>
      <point x="489" y="1295"/>
      <point x="393" y="1295" type="curve" smooth="yes"/>
      <point x="180" y="1295"/>
      <point x="77" y="1160"/>
      <point x="77" y="913" type="curve" smooth="yes"/>
      <point x="77" y="318" type="line" smooth="yes"/>
      <point x="77" y="93"/>
      <point x="172" y="-20"/>
    </contour>
  </outline>
</glyph>
<glyph name="at" format="2">
  <advance width="1284"/>
  <unicode hex="0040"/>
  <outline>
    <contour>
      <point x="533" y="68" type="curve" smooth="yes"/>
      <point x="630" y="68"/>
      <point x="675" y="119"/>
      <point x="703" y="204" type="curve"/>
      <point x="731" y="204" type="line"/>
      <point x="718" y="316" type="line"/>
      <point x="699" y="249"/>
      <point x="668" y="209"/>
      <point x="617" y="209" type="curve" smooth="yes"/>
      <point x="565" y="209"/>
      <point x="544" y="244"/>
      <point x="544" y="310" type="curve" smooth="yes"/>
      <point x="544" y="344"/>
      <point x="547" y="377"/>
      <point x="575" y="653" type="curve" smooth="yes"/>
      <point x="585" y="752"/>
      <point x="617" y="796"/>
      <point x="674" y="796" type="curve" smooth="yes"/>
      <point x="724" y="796"/>
      <point x="752" y="755"/>
      <point x="752" y="686" type="curve" smooth="yes"/>
      <point x="752" y="676"/>
      <point x="752" y="667"/>
      <point x="751" y="657" type="curve"/>
      <point x="793" y="797" type="line"/>
      <point x="758" y="797" type="line"/>
      <point x="748" y="880"/>
      <point x="709" y="934"/>
      <point x="619" y="934" type="curve" smooth="yes"/>
      <point x="490" y="934"/>
      <point x="426" y="839"/>
      <point x="405" y="635" type="curve" smooth="yes"/>
      <point x="377" y="355"/>
      <point x="374" y="324"/>
      <point x="374" y="279" type="curve" smooth="yes"/>
      <point x="374" y="141"/>
      <point x="422" y="68"/>
    </contour>
    <contour>
      <point x="849" y="78" type="line"/>
      <point x="935" y="922" type="line"/>
      <point x="776" y="922" type="line"/>
      <point x="775" y="913" type="line"/>
      <point x="762" y="755" type="line"/>
      <point x="758" y="728" type="line"/>
      <point x="713" y="279" type="line"/>
      <point x="718" y="256" type="line"/>
      <point x="695" y="78" type="line"/>
    </contour>
    <contour>
      <point x="695" y="78" type="line"/>
      <point x="741" y="69"/>
      <point x="801" y="64"/>
      <point x="857" y="66" type="curve" smooth="yes"/>
      <point x="1067" y="72"/>
      <point x="1165" y="164"/>
      <point x="1190" y="399" type="curve" smooth="yes"/>
      <point x="1203" y="527"/>
      <point x="1218" y="693"/>
      <point x="1225" y="786" type="curve" smooth="yes"/>
      <point x="1252" y="1151"/>
      <point x="1038" y="1334"/>
      <point x="697" y="1334" type="curve" smooth="yes"/>
      <point x="332" y="1334"/>
      <point x="155" y="1136"/>
      <point x="114" y="747" type="curve" smooth="yes"/>
      <point x="104" y="654"/>
      <point x="76" y="350"/>
      <point x="69" y="256" type="curve" smooth="yes"/>
      <point x="40" y="-127"/>
      <point x="251" y="-318"/>
      <point x="628" y="-318" type="curve" smooth="yes"/>
      <point x="813" y="-318"/>
      <point x="949" y="-272"/>
      <point x="1031" y="-222" type="curve"/>
      <point x="1052" y="-79" type="line"/>
      <point x="977" y="-127"/>
      <point x="815" y="-186"/>
      <point x="643" y="-186" type="curve" smooth="yes"/>
      <point x="333" y="-186"/>
      <point x="192" y="-24"/>
      <point x="215" y="264" type="curve" smooth="yes"/>
      <point x="222" y="350"/>
      <point x="250" y="634"/>
      <point x="262" y="758" type="curve" smooth="yes"/>
      <point x="288" y="1017"/>
      <point x="402" y="1204"/>
      <point x="688" y="1204" type="curve" smooth="yes"/>
      <point x="976" y="1204"/>
      <point x="1103" y="1036"/>
      <point x="1081" y="789" type="curve" smooth="yes"/>
      <point x="1073" y="704"/>
      <point x="1055" y="509"/>
      <point x="1045" y="414" type="curve" smooth="yes"/>
      <point x="1028" y="251"/>
      <point x="975" y="199"/>
      <point x="881" y="199" type="curve" smooth="yes"/>
      <point x="853" y="199"/>
      <point x="840" y="199"/>
      <point x="812" y="199" type="curve"/>
    </contour>
  </outline>
</glyph>
<glyph name="E" format="2">
  <advance width="637"/>
  <unicode hex="0045"/>
  <anchor x="339" y="0" name="bottom"/>
  <anchor x="610" y="0" name="ogonek"/>
  <anchor x="339" y="1278" name="top"/>
  <anchor x="20" y="1278" name="topleft"/>
  <outline>
    <contour>
      <point x="272" y="0" type="line"/>
      <point x="272" y="1278" type="line"/>
      <point x="98" y="1278" type="line"/>
      <point x="98" y="0" type="line"/>
    </contour>
    <contour>
      <point x="578" y="0" type="line"/>
      <point x="578" y="158" type="line"/>
      <point x="205" y="158" type="line"/>
      <point x="205" y="0" type="line"/>
    </contour>
    <contour>
      <point x="570" y="574" type="line"/>
      <point x="570" y="731" type="line"/>
      <point x="212" y="731" type="line"/>
      <point x="212" y="574" type="line"/>
    </contour>
    <contour>
      <point x="578" y="1120" type="line"/>
      <point x="578" y="1278" type="line"/>
      <point x="203" y="1278" type="line"/>
      <point x="203" y="1120" type="line"/>
    </contour>
  </outline>
</glyph>
<glyph name="L" format="2">
  <advance width="598"/>
  <unicode hex="004C"/>
  <anchor x="323" y="0" name="bottom"/>
  <anchor x="246" y="653" name="center"/>
  <anchor x="188" y="1278" name="top"/>
  <anchor x="421" y="1278" name="topright"/>
  <outline>
    <contour>
      <point x="277" y="1278" type="line"/>
      <point x="98" y="1278" type="line"/>
      <point x="98" y="0" type="line"/>
      <point x="277" y="0" type="line"/>
    </contour>
    <contour>
      <point x="205" y="0" type="line"/>
      <point x="565" y="0" type="line"/>
      <point x="565" y="160" type="line"/>
      <point x="205" y="160" type="line"/>
    </contour>
  </outline>
</glyph>
<glyph name="backslash" format="2">
  <advance width="539"/>
  <unicode hex="005C"/>
  <outline>
    <contour>
      <point x="354" y="-240" type="line"/>
      <point x="25" y="1352" type="line"/>
      <point x="184" y="1352" type="line"/>
      <point x="514" y="-240" type="line"/>
    </contour>
  </outline>
</glyph>
<glyph name="f" format="2">
  <advance width="517"/>
  <unicode hex="0066"/>
  <anchor x="259" y="0" name="bottom"/>
  <anchor x="259" y="1334" name="top"/>
  <outline>
    <contour>
      <point x="320" y="1353" type="curve" smooth="yes"/>
      <point x="176" y="1353"/>
      <point x="94" y="1278"/>
      <point x="94" y="1152" type="curve"/>
      <point x="94" y="1147" type="line"/>
      <point x="94" y="1075"/>
      <point x="129" y="1017"/>
      <point x="171" y="987" type="curve"/>
      <point x="171" y="968" type="line"/>
      <point x="287" y="965" type="line"/>
      <point x="272" y="1001"/>
      <point x="260" y="1039"/>
      <point x="260" y="1084" type="curve"/>
      <point x="260" y="1088" type="line"/>
      <point x="260" y="1165"/>
      <point x="302" y="1209"/>
      <point x="382" y="1209" type="curve" smooth="yes"/>
      <point x="430" y="1209"/>
      <point x="465" y="1197"/>
      <point x="497" y="1184" type="curve"/>
      <point x="484" y="1316" type="line"/>
      <point x="447" y="1335"/>
      <point x="390" y="1353"/>
    </contour>
    <contour>
      <point x="295" y="0" type="line"/>
      <point x="295" y="926" type="line"/>
      <point x="121" y="926" type="line"/>
      <point x="121" y="0" type="line"/>
    </contour>
    <contour>
      <point x="484" y="836" type="line"/>
      <point x="496" y="979" type="line"/>
      <point x="263" y="979" type="line"/>
      <point x="200" y="978" type="line"/>
      <point x="17" y="979" type="line"/>
      <point x="17" y="836" type="line"/>
    </contour>
  </outline>
</glyph>
<glyph name="h" format="2">
  <advance width="748"/>
  <unicode hex="0068"/>
  <anchor x="375" y="0" name="bottom"/>
  <anchor x="375" y="667" name="center"/>
  <anchor x="175" y="1329" name="top"/>
  <outline>
    <contour>
      <point x="666" y="0" type="line"/>
      <point x="666" y="726" type="line" smooth="yes"/>
      <point x="666" y="916"/>
      <point x="604" y="1012"/>
      <point x="463" y="1012" type="curve" smooth="yes"/>
      <point x="342" y="1012"/>
      <point x="288" y="946"/>
      <point x="267" y="853" type="curve"/>
      <point x="213" y="853" type="line"/>
      <point x="260" y="733" type="line"/>
      <point x="274" y="810"/>
      <point x="313" y="866"/>
      <point x="384" y="866" type="curve" smooth="yes"/>
      <point x="464" y="866"/>
      <point x="492" y="810"/>
      <point x="492" y="704" type="curve" smooth="yes"/>
      <point x="492" y="0" type="line"/>
    </contour>
    <contour>
      <point x="262" y="0" type="line"/>
      <point x="262" y="783" type="line"/>
      <point x="257" y="811" type="line"/>
      <point x="261" y="1066" type="line"/>
      <point x="261" y="1329" type="line"/>
      <point x="88" y="1329" type="line"/>
      <point x="88" y="0" type="line"/>
    </contour>
  </outline>
</glyph>
<glyph name="w" format="2">
  <advance width="1062"/>
  <unicode hex="0077"/>
  <anchor x="531" y="0" name="bottom"/>
  <anchor x="531" y="998" name="top"/>
  <outline>
    <contour>
      <point x="440" y="0" type="line"/>
      <point x="498" y="550" type="line"/>
      <point x="526" y="840" type="line"/>
      <point x="537" y="840" type="line"/>
      <point x="565" y="550" type="line"/>
      <point x="623" y="0" type="line"/>
      <point x="893" y="0" type="line"/>
      <point x="1021" y="998" type="line"/>
      <point x="853" y="998" type="line"/>
      <point x="760" y="126" type="line"/>
      <point x="747" y="126" type="line"/>
      <point x="649" y="974" type="line"/>
      <point x="414" y="974" type="line"/>
      <point x="316" y="126" type="line"/>
      <point x="303" y="126" type="line"/>
      <point x="213" y="998" type="line"/>
      <point x="41" y="998" type="line"/>
      <point x="170" y="0" type="line"/>
    </contour>
  </outline>
</glyph>
<glyph name="x" format="2">
  <advance width="670"/>
  <unicode hex="0078"/>
  <anchor x="335" y="0" name="bottom"/>
  <anchor x="335" y="998" name="top"/>
  <outline>
    <contour>
      <point x="209" y="0" type="line"/>
      <point x="330" y="432" type="line"/>
      <point x="341" y="432" type="line"/>
      <point x="461" y="0" type="line"/>
      <point x="635" y="0" type="line"/>
      <point x="467" y="554" type="line"/>
      <point x="467" y="491" type="line"/>
      <point x="632" y="998" type="line"/>
      <point x="459" y="998" type="line"/>
      <point x="341" y="597" type="line"/>
      <point x="330" y="597" type="line"/>
      <point x="211" y="998" type="line"/>
      <point x="38" y="998" type="line"/>
      <point x="203" y="491" type="line"/>
      <point x="203" y="554" type="line"/>
      <point x="35" y="0" type="line"/>
    </contour>
  </outline>
</glyph>
<glyph name="exclamdown" format="2">
  <advance width="374"/>
  <unicode hex="00A1"/>
  <outline>
    <contour>
      <point x="279" y="-280" type="line"/>
      <point x="95" y="-280" type="line"/>
      <point x="118" y="615" type="line"/>
      <point x="256" y="615" type="line"/>
    </contour>
    <contour>
      <point x="189" y="1016" type="curve" smooth="yes"/>
      <point x="252" y="1016"/>
      <point x="284" y="973"/>
      <point x="284" y="895" type="curve" smooth="yes"/>
      <point x="284" y="878" type="line" smooth="yes"/>
      <point x="284" y="801"/>
      <point x="252" y="758"/>
      <point x="189" y="758" type="curve" smooth="yes"/>
      <point x="123" y="758"/>
      <point x="94" y="801"/>
      <point x="94" y="878" type="curve" smooth="yes"/>
      <point x="94" y="895" type="line" smooth="yes"/>
      <point x="94" y="973"/>
      <point x="123" y="1016"/>
    </contour>
  </outline>
</glyph>
<glyph name="brokenbar" format="2">
  <advance width="392"/>
  <unicode hex="00A6"/>
  <outline>
    <contour>
      <point x="276" y="1426" type="line"/>
      <point x="116" y="1426" type="line"/>
      <point x="116" y="583" type="line"/>
      <point x="276" y="583" type="line"/>
    </contour>
    <contour>
      <point x="276" y="425" type="line"/>
      <point x="116" y="425" type="line"/>
      <point x="116" y="-419" type="line"/>
      <point x="276" y="-419" type="line"/>
    </contour>
  </outline>
</glyph>
<glyph name="ordfeminine" format="2">
  <advance width="448"/>
  <unicode hex="00AA"/>
  <outline>
    <contour>
      <point x="395" y="640" type="line"/>
      <point x="395" y="1083" type="line" smooth="yes"/>
      <point x="395" y="1213"/>
      <point x="349" y="1290"/>
      <point x="213" y="1290" type="curve" smooth="yes"/>
      <point x="155" y="1290"/>
      <point x="101" y="1271"/>
      <point x="61" y="1246" type="curve"/>
      <point x="51" y="1135" type="line"/>
      <point x="94" y="1162"/>
      <point x="144" y="1184"/>
      <point x="194" y="1184" type="curve" smooth="yes"/>
      <point x="256" y="1184"/>
      <point x="275" y="1149"/>
      <point x="275" y="1085" type="curve" smooth="yes"/>
      <point x="275" y="1024" type="line"/>
      <point x="275" y="765" type="line"/>
      <point x="278" y="763" type="line"/>
      <point x="272" y="640" type="line"/>
    </contour>
    <contour>
      <point x="159" y="630" type="curve" smooth="yes"/>
      <point x="231" y="630"/>
      <point x="259" y="672"/>
      <point x="271" y="729" type="curve"/>
      <point x="291" y="729" type="line"/>
      <point x="276" y="803" type="line"/>
      <point x="268" y="764"/>
      <point x="244" y="734"/>
      <point x="208" y="734" type="curve" smooth="yes"/>
      <point x="168" y="734"/>
      <point x="154" y="765"/>
      <point x="154" y="809" type="curve" smooth="yes"/>
      <point x="154" y="848" type="line" smooth="yes"/>
      <point x="154" y="898"/>
      <point x="168" y="923"/>
      <point x="217" y="939" type="curve" smooth="yes"/>
      <point x="299" y="966" type="line"/>
      <point x="287" y="1059" type="line"/>
      <point x="183" y="1028" type="line" smooth="yes"/>
      <point x="69" y="994"/>
      <point x="35" y="942"/>
      <point x="35" y="844" type="curve" smooth="yes"/>
      <point x="35" y="798" type="line" smooth="yes"/>
      <point x="35" y="690"/>
      <point x="74" y="630"/>
    </contour>
  </outline>
</glyph>
<glyph name="paragraph" format="2">
  <advance width="568"/>
  <unicode hex="00B6"/>
  <outline>
    <contour>
      <point x="355" y="656" type="line"/>
      <point x="355" y="1278" type="line"/>
      <point x="279" y="1278" type="line" smooth="yes"/>
      <point x="129" y="1278"/>
      <point x="63" y="1192"/>
      <point x="63" y="1041" type="curve" smooth="yes"/>
      <point x="63" y="894" type="line" smooth="yes"/>
      <point x="63" y="738"/>
      <point x="129" y="656"/>
      <point x="279" y="656" type="curve"/>
    </contour>
    <contour>
      <point x="470" y="1278" type="line"/>
      <point x="297" y="1278" type="line"/>
      <point x="296" y="0" type="line"/>
      <point x="470" y="0" type="line"/>
    </contour>
  </outline>
</glyph>
<glyph name="guillemetright" format="2">
  <advance width="722"/>
  <unicode hex="00BB"/>
  <outline>
    <contour>
      <point x="45" y="897" type="line"/>
      <point x="205" y="897" type="line"/>
      <point x="352" y="520" type="line"/>
      <point x="352" y="477" type="line"/>
      <point x="205" y="100" type="line"/>
      <point x="45" y="100" type="line"/>
      <point x="196" y="498" type="line"/>
    </contour>
    <contour>
      <point x="361" y="897" type="line"/>
      <point x="521" y="897" type="line"/>
      <point x="668" y="520" type="line"/>
      <point x="668" y="477" type="line"/>
      <point x="521" y="100" type="line"/>
      <point x="361" y="100" type="line"/>
      <point x="512" y="498" type="line"/>
    </contour>
  </outline>
</glyph>
<glyph name="Eth" format="2">
  <advance width="789"/>
  <unicode hex="00D0"/>
  <outline>
    <component base="D"/>
    <contour>
      <point x="411" y="589" type="line"/>
      <point x="411" y="725" type="line"/>
      <point x="12" y="725" type="line"/>
      <point x="12" y="589" type="line"/>
    </contour>
  </outline>
</glyph>
<glyph name="gravecomb" format="2">
  <advance width="488"/>
  <unicode hex="0300"/>
  <anchor x="323" y="998" name="_top"/>
  <anchor x="250" y="1317" name="top"/>
  <outline>
    <contour>
      <point x="392" y="1092" type="line"/>
      <point x="392" y="1092" type="line"/>
      <point x="252" y="1092" type="line"/>
      <point x="96" y="1349" type="line"/>
      <point x="96" y="1349" type="line"/>
      <point x="274" y="1349" type="line"/>
    </contour>
  </outline>
</glyph>
<glyph name="combininganusvaraabovesign.mlm" format="2">
  <unicode hex="0D00"/>
  <outline>
    <contour>
      <point x="-590" y="1447" type="line" smooth="yes"/>
      <point x="-590" y="1322"/>
      <point x="-522" y="1258"/>
      <point x="-394" y="1258" type="curve" smooth="yes"/>
      <point x="-266" y="1258"/>
      <point x="-197" y="1322"/>
      <point x="-197" y="1447" type="curve" smooth="yes"/>
      <point x="-197" y="1459" type="line" smooth="yes"/>
      <point x="-197" y="1584"/>
      <point x="-266" y="1648"/>
      <point x="-394" y="1648" type="curve" smooth="yes"/>
      <point x="-522" y="1648"/>
      <point x="-590" y="1584"/>
      <point x="-590" y="1459" type="curve" smooth="yes"/>
    </contour>
    <contour>
      <point x="-321" y="1447" type="line" smooth="yes"/>
      <point x="-321" y="1391"/>
      <point x="-346" y="1362"/>
      <point x="-394" y="1362" type="curve" smooth="yes"/>
      <point x="-442" y="1362"/>
      <point x="-466" y="1391"/>
      <point x="-466" y="1447" type="curve" smooth="yes"/>
      <point x="-466" y="1459" type="line" smooth="yes"/>
      <point x="-466" y="1515"/>
      <point x="-442" y="1543"/>
      <point x="-394" y="1543" type="curve" smooth="yes"/>
      <point x="-346" y="1543"/>
      <point x="-321" y="1515"/>
      <point x="-321" y="1459" type="curve" smooth="yes"/>
    </contour>
  </outline>
</glyph>
<glyph name="Chandrabindu.mlm" format="2">
  <unicode hex="0D01"/>
  <outline>
    <contour>
      <point x="-377" y="1420" type="curve" smooth="yes"/>
      <point x="-496.571" y="1420"/>
      <point x="-539" y="1488.55"/>
      <point x="-539" y="1574" type="curve" smooth="yes"/>
      <point x="-539" y="1603" type="line"/>
      <point x="-673" y="1603" type="line"/>
      <point x="-673" y="1574" type="line" smooth="yes"/>
      <point x="-673" y="1415.22"/>
      <point x="-591.11" y="1300"/>
      <point x="-378" y="1300" type="curve" smooth="yes"/>
      <point x="-163.884" y="1300"/>
      <point x="-81" y="1414.25"/>
      <point x="-81" y="1574" type="curve" smooth="yes"/>
      <point x="-81" y="1603" type="line"/>
      <point x="-215" y="1603" type="line"/>
      <point x="-215" y="1574" type="line" smooth="yes"/>
      <point x="-215" y="1489.49"/>
      <point x="-258.393" y="1420"/>
    </contour>
    <contour>
      <point x="-459" y="1602" type="line" smooth="yes"/>
      <point x="-459" y="1542"/>
      <point x="-431" y="1510"/>
      <point x="-377" y="1510" type="curve" smooth="yes"/>
      <point x="-323" y="1510"/>
      <point x="-294" y="1542"/>
      <point x="-294" y="1602" type="curve" smooth="yes"/>
      <point x="-294" y="1606" type="line" smooth="yes"/>
      <point x="-294" y="1667"/>
      <point x="-323" y="1699"/>
      <point x="-377" y="1699" type="curve" smooth="yes"/>
      <point x="-431" y="1699"/>
      <point x="-459" y="1667"/>
      <point x="-459" y="1606" type="curve" smooth="yes"/>
    </contour>
  </outline>
</glyph>
<glyph name="Anuswara.mlm" format="2">
  <advance width="676"/>
  <unicode hex="0D02"/>
  <outline>
    <contour>
      <point x="436" y="506" type="curve" smooth="yes"/>
      <point x="436" y="280" type="line" smooth="yes"/>
      <point x="436" y="180"/>
      <point x="405" y="130"/>
      <point x="338" y="130" type="curve" smooth="yes"/>
      <point x="271" y="130"/>
      <point x="240" y="180"/>
      <point x="240" y="280" type="curve" smooth="yes"/>
      <point x="240" y="506" type="line" smooth="yes"/>
      <point x="240" y="606"/>
      <point x="271" y="656"/>
      <point x="338" y="656" type="curve" smooth="yes"/>
      <point x="405" y="656"/>
      <point x="436" y="606"/>
    </contour>
    <contour>
      <point x="76" y="503" type="curve" smooth="yes"/>
      <point x="76" y="283" type="line" smooth="yes"/>
      <point x="76" y="86"/>
      <point x="163" y="-18"/>
      <point x="338" y="-18" type="curve" smooth="yes"/>
      <point x="513" y="-18"/>
      <point x="600" y="86"/>
      <point x="600" y="283" type="curve" smooth="yes"/>
      <point x="600" y="503" type="line" smooth="yes"/>
      <point x="600" y="700"/>
      <point x="513" y="803"/>
      <point x="338" y="803" type="curve" smooth="yes"/>
      <point x="163" y="803"/>
      <point x="76" y="700"/>
    </contour>
  </outline>
</glyph>
<glyph name="Visarga.mlm" format="2">
  <advance width="573"/>
  <unicode hex="0D03"/>
  <outline>
    <contour>
      <point x="363" y="307" type="curve" smooth="yes"/>
      <point x="363" y="231" type="line" smooth="yes"/>
      <point x="363" y="157.667"/>
      <point x="339" y="121"/>
      <point x="286" y="121" type="curve" smooth="yes"/>
      <point x="235" y="121"/>
      <point x="210" y="157.667"/>
      <point x="210" y="231" type="curve" smooth="yes"/>
      <point x="210" y="307" type="line" smooth="yes"/>
      <point x="210" y="381.33"/>
      <point x="235" y="418"/>
      <point x="286" y="418" type="curve" smooth="yes"/>
      <point x="339" y="418"/>
      <point x="363" y="381.33"/>
    </contour>
    <contour>
      <point x="56" y="310" type="curve" smooth="yes"/>
      <point x="56" y="228" type="line" smooth="yes"/>
      <point x="56" y="68"/>
      <point x="133.335" y="-18"/>
      <point x="287" y="-18" type="curve" smooth="yes"/>
      <point x="441.672" y="-18"/>
      <point x="517" y="68"/>
      <point x="517" y="228" type="curve" smooth="yes"/>
      <point x="517" y="310" type="line" smooth="yes"/>
      <point x="517" y="469"/>
      <point x="441.672" y="555"/>
      <point x="287" y="555" type="curve" smooth="yes"/>
      <point x="133.335" y="555"/>
      <point x="56" y="469"/>
    </contour>
    <contour>
      <point x="363" y="960" type="curve" smooth="yes"/>
      <point x="363" y="891" type="line" smooth="yes"/>
      <point x="363" y="817.661"/>
      <point x="339" y="780"/>
      <point x="286" y="780" type="curve" smooth="yes"/>
      <point x="235" y="780"/>
      <point x="210" y="817.661"/>
      <point x="210" y="891" type="curve" smooth="yes"/>
      <point x="210" y="960" type="line" smooth="yes"/>
      <point x="210" y="1034.33"/>
      <point x="235" y="1071"/>
      <point x="286" y="1071" type="curve" smooth="yes"/>
      <point x="339" y="1071"/>
      <point x="363" y="1034.33"/>
    </contour>
    <contour>
      <point x="56" y="963" type="curve" smooth="yes"/>
      <point x="56" y="888" type="line" smooth="yes"/>
      <point x="56" y="728"/>
      <point x="133.335" y="642"/>
      <point x="287" y="642" type="curve" smooth="yes"/>
      <point x="441.672" y="642"/>
      <point x="517" y="728"/>
      <point x="517" y="888" type="curve" smooth="yes"/>
      <point x="517" y="963" type="line" smooth="yes"/>
      <point x="517" y="1123"/>
      <point x="441.672" y="1208"/>
      <point x="287" y="1208" type="curve" smooth="yes"/>
      <point x="133.335" y="1208"/>
      <point x="56" y="1123"/>
    </contour>
  </outline>
</glyph>
<glyph name="uni0D04" format="2">
  <advance width="871"/>
  <unicode hex="0D04"/>
  <outline>
    <contour>
      <point x="435" y="948" type="curve" smooth="yes"/>
      <point x="379" y="948"/>
      <point x="356" y="913"/>
      <point x="356" y="847" type="curve" smooth="yes"/>
      <point x="356" y="636" type="line" smooth="yes"/>
      <point x="356" y="573"/>
      <point x="379" y="536"/>
      <point x="435" y="536" type="curve" smooth="yes"/>
      <point x="491" y="536"/>
      <point x="515" y="573"/>
      <point x="515" y="636" type="curve" smooth="yes"/>
      <point x="515" y="847" type="line" smooth="yes"/>
      <point x="515" y="913"/>
      <point x="491" y="948"/>
    </contour>
    <contour>
      <point x="435" y="203" type="curve" smooth="yes"/>
      <point x="680" y="203"/>
      <point x="801" y="340"/>
      <point x="801" y="621" type="curve" smooth="yes"/>
      <point x="801" y="800" type="line"/>
      <point x="650" y="800" type="line"/>
      <point x="650" y="637" type="line" smooth="yes"/>
      <point x="650" y="444"/>
      <point x="583" y="352"/>
      <point x="435" y="352" type="curve" smooth="yes"/>
      <point x="288" y="352"/>
      <point x="221" y="444"/>
      <point x="221" y="637" type="curve" smooth="yes"/>
      <point x="221" y="800" type="line"/>
      <point x="70" y="800" type="line"/>
      <point x="70" y="621" type="line" smooth="yes"/>
      <point x="70" y="340"/>
      <point x="190" y="203"/>
    </contour>
  </outline>
</glyph>
<glyph name="vowelA.mlm" format="2">
  <advance width="2093"/>
  <unicode hex="0D05"/>
  <outline>
    <contour>
      <point x="1162" y="3" type="line"/>
      <point x="1330" y="3" type="line"/>
      <point x="1330" y="785" type="line"/>
      <point x="1162" y="726" type="line"/>
    </contour>
    <contour>
      <point x="1244" y="972" type="line"/>
      <point x="1214" y="1125"/>
      <point x="1110" y="1206"/>
      <point x="913" y="1206" type="curve" smooth="yes"/>
      <point x="815" y="1206"/>
      <point x="725" y="1171"/>
      <point x="673" y="1118" type="curve"/>
      <point x="783" y="1044" type="line"/>
      <point x="819" y="1060"/>
      <point x="865" y="1067"/>
      <point x="908" y="1067" type="curve" smooth="yes"/>
      <point x="1082" y="1067"/>
      <point x="1162" y="975"/>
      <point x="1162" y="778" type="curve" smooth="yes"/>
      <point x="1162" y="633" type="line"/>
      <point x="1240" y="633" type="line"/>
    </contour>
    <contour>
      <point x="256" y="732" type="line" smooth="yes"/>
      <point x="256" y="953.061"/>
      <point x="345.451" y="1067"/>
      <point x="519" y="1067" type="curve" smooth="yes"/>
      <point x="571" y="1067"/>
      <point x="610" y="1059"/>
      <point x="650" y="1043" type="curve"/>
      <point x="661" y="1040"/>
      <point x="698" y="1026"/>
      <point x="705" y="1023" type="curve"/>
      <point x="795" y="982"/>
      <point x="829" y="914"/>
      <point x="829" y="804" type="curve" smooth="yes"/>
      <point x="829" y="789" type="line" smooth="yes"/>
      <point x="829" y="695"/>
      <point x="796" y="652"/>
      <point x="724" y="646" type="curve" smooth="yes"/>
      <point x="699" y="644" type="line"/>
      <point x="699" y="499" type="line"/>
      <point x="731" y="496" type="line" smooth="yes"/>
      <point x="805" y="489"/>
      <point x="834" y="444"/>
      <point x="834" y="349" type="curve" smooth="yes"/>
      <point x="834" y="283" type="line" smooth="yes"/>
      <point x="834" y="180"/>
      <point x="801" y="129"/>
      <point x="723" y="129" type="curve" smooth="yes"/>
      <point x="644" y="129"/>
      <point x="609" y="180"/>
      <point x="609" y="283" type="curve" smooth="yes"/>
      <point x="609" y="722" type="line" smooth="yes"/>
      <point x="609" y="872"/>
      <point x="641" y="971"/>
      <point x="734" y="1023" type="curve"/>
      <point x="614" y="1081" type="line"/>
      <point x="488" y="1016"/>
      <point x="445" y="896"/>
      <point x="445" y="720" type="curve" smooth="yes"/>
      <point x="445" y="283" type="line" smooth="yes"/>
      <point x="445" y="86"/>
      <point x="537" y="-18"/>
      <point x="723" y="-18" type="curve" smooth="yes"/>
      <point x="907" y="-18"/>
      <point x="999" y="74"/>
      <point x="999" y="273" type="curve" smooth="yes"/>
      <point x="999" y="338" type="line" smooth="yes"/>
      <point x="999" y="481"/>
      <point x="951" y="556"/>
      <point x="843" y="571" type="curve"/>
      <point x="843" y="576" type="line"/>
      <point x="949" y="594"/>
      <point x="994" y="663"/>
      <point x="994" y="786" type="curve" smooth="yes"/>
      <point x="994" y="805" type="line" smooth="yes"/>
      <point x="994" y="931"/>
      <point x="944" y="1032"/>
      <point x="809" y="1084" type="curve"/>
      <point x="764" y="1125" type="line" smooth="yes"/>
      <point x="715.094" y="1169.54"/>
      <point x="629.09" y="1207"/>
      <point x="502" y="1207" type="curve" smooth="yes"/>
      <point x="227.782" y="1207"/>
      <point x="88" y="1045.95"/>
      <point x="88" y="730" type="curve" smooth="yes"/>
      <point x="88" y="395" type="line" smooth="yes"/>
      <point x="88" y="225"/>
      <point x="112" y="84"/>
      <point x="164" y="0" type="curve"/>
      <point x="335" y="0" type="line"/>
      <point x="285" y="85"/>
      <point x="256" y="221"/>
      <point x="256" y="393" type="curve" smooth="yes"/>
    </contour>
    <contour>
      <point x="1595" y="1208" type="curve" smooth="yes"/>
      <point x="1392" y="1208"/>
      <point x="1278" y="1126"/>
      <point x="1249" y="972" type="curve"/>
      <point x="1213" y="972" type="line"/>
      <point x="1218" y="633" type="line"/>
      <point x="1330" y="633" type="line"/>
      <point x="1330" y="788" type="line" smooth="yes"/>
      <point x="1330" y="969"/>
      <point x="1414" y="1056"/>
      <point x="1585" y="1056" type="curve" smooth="yes"/>
      <point x="1765" y="1056"/>
      <point x="1848" y="954"/>
      <point x="1848" y="732" type="curve" smooth="yes"/>
      <point x="1848" y="715" type="line"/>
      <point x="1823" y="715" type="line"/>
      <point x="1845" y="653" type="line"/>
      <point x="1845" y="271" type="line" smooth="yes"/>
      <point x="1845" y="174"/>
      <point x="1816" y="129"/>
      <point x="1751" y="129" type="curve" smooth="yes"/>
      <point x="1688" y="129"/>
      <point x="1658" y="174"/>
      <point x="1658" y="271" type="curve" smooth="yes"/>
      <point x="1658" y="546" type="line" smooth="yes"/>
      <point x="1658" y="633"/>
      <point x="1688" y="674"/>
      <point x="1753" y="674" type="curve" smooth="yes"/>
      <point x="1798" y="674"/>
      <point x="1829" y="656"/>
      <point x="1847" y="622" type="curve"/>
      <point x="1851" y="678" type="line"/>
      <point x="1835" y="771"/>
      <point x="1777" y="824"/>
      <point x="1681" y="824" type="curve" smooth="yes"/>
      <point x="1555" y="824"/>
      <point x="1494" y="738"/>
      <point x="1494" y="561" type="curve" smooth="yes"/>
      <point x="1494" y="276" type="line" smooth="yes"/>
      <point x="1494" y="82"/>
      <point x="1578" y="-18"/>
      <point x="1751" y="-18" type="curve" smooth="yes"/>
      <point x="1923" y="-18"/>
      <point x="2008" y="82"/>
      <point x="2008" y="276" type="curve" smooth="yes"/>
      <point x="2008" y="728" type="line" smooth="yes"/>
      <point x="2008" y="1048"/>
      <point x="1876" y="1208"/>
    </contour>
  </outline>
</glyph>
<glyph name="vowelRu.mlm" format="2">
  <advance width="1234"/>
  <unicode hex="0D0B"/>
  <outline>
    <contour>
      <point x="323" y="1208" type="curve" smooth="yes"/>
      <point x="160" y="1208"/>
      <point x="78" y="1115"/>
      <point x="78" y="931" type="curve" smooth="yes"/>
      <point x="78" y="659" type="line" smooth="yes"/>
      <point x="78" y="464"/>
      <point x="158" y="315"/>
      <point x="320" y="276" type="curve" smooth="yes"/>
      <point x="342" y="271"/>
      <point x="362" y="259"/>
      <point x="385" y="253" type="curve"/>
      <point x="543" y="351" type="line"/>
      <point x="331" y="351"/>
      <point x="230" y="464"/>
      <point x="230" y="647" type="curve"/>
      <point x="230" y="649" type="line"/>
      <point x="241" y="649" type="line"/>
      <point x="233" y="720" type="line"/>
      <point x="233" y="934" type="line" smooth="yes"/>
      <point x="233" y="1022"/>
      <point x="261" y="1062"/>
      <point x="322" y="1062" type="curve" smooth="yes"/>
      <point x="381" y="1062"/>
      <point x="408" y="1022"/>
      <point x="408" y="934" type="curve" smooth="yes"/>
      <point x="408" y="771" type="line" smooth="yes"/>
      <point x="408" y="695"/>
      <point x="383" y="658"/>
      <point x="327" y="658" type="curve" smooth="yes"/>
      <point x="282" y="658"/>
      <point x="250" y="684"/>
      <point x="231" y="736" type="curve"/>
      <point x="226" y="692" type="line"/>
      <point x="243" y="583"/>
      <point x="295" y="531"/>
      <point x="388" y="531" type="curve" smooth="yes"/>
      <point x="500" y="531"/>
      <point x="562" y="605"/>
      <point x="562" y="753" type="curve" smooth="yes"/>
      <point x="562" y="933" type="line" smooth="yes"/>
      <point x="562" y="1115"/>
      <point x="487" y="1208"/>
    </contour>
    <contour>
      <point x="737" y="-169" type="line" smooth="yes"/>
      <point x="962" y="-169"/>
      <point x="1078" y="-88"/>
      <point x="1078" y="72" type="curve" smooth="yes"/>
      <point x="1078" y="179"/>
      <point x="1024" y="245"/>
      <point x="915" y="272" type="curve"/>
      <point x="915" y="285" type="line"/>
      <point x="723" y="351" type="line"/>
      <point x="511" y="351" type="line"/>
      <point x="320" y="284" type="line"/>
      <point x="320" y="272" type="line"/>
      <point x="211" y="245"/>
      <point x="156" y="179"/>
      <point x="156" y="72" type="curve" smooth="yes"/>
      <point x="156" y="-88"/>
      <point x="273" y="-169"/>
      <point x="497" y="-169" type="curve" smooth="yes"/>
    </contour>
    <contour>
      <point x="737" y="215" type="line" smooth="yes"/>
      <point x="855" y="215"/>
      <point x="911" y="176"/>
      <point x="911" y="91" type="curve" smooth="yes"/>
      <point x="911" y="8"/>
      <point x="851" y="-33"/>
      <point x="737" y="-33" type="curve" smooth="yes"/>
      <point x="497" y="-33" type="line" smooth="yes"/>
      <point x="383" y="-33"/>
      <point x="323" y="8"/>
      <point x="323" y="91" type="curve" smooth="yes"/>
      <point x="323" y="176"/>
      <point x="380" y="215"/>
      <point x="497" y="215" type="curve" smooth="yes"/>
    </contour>
    <contour>
      <point x="1004" y="647" type="line"/>
      <point x="1004" y="464"/>
      <point x="903" y="351"/>
      <point x="691" y="351" type="curve"/>
      <point x="850" y="253" type="line"/>
      <point x="874" y="259"/>
      <point x="893" y="271"/>
      <point x="915" y="276" type="curve" smooth="yes"/>
      <point x="1078" y="315"/>
      <point x="1156" y="464"/>
      <point x="1156" y="659" type="curve" smooth="yes"/>
      <point x="1156" y="931" type="line" smooth="yes"/>
      <point x="1156" y="1115"/>
      <point x="1075" y="1208"/>
      <point x="911" y="1208" type="curve" smooth="yes"/>
      <point x="748" y="1208"/>
      <point x="672" y="1115"/>
      <point x="672" y="933" type="curve" smooth="yes"/>
      <point x="672" y="753" type="line" smooth="yes"/>
      <point x="672" y="605"/>
      <point x="734" y="531"/>
      <point x="846" y="531" type="curve" smooth="yes"/>
      <point x="938" y="531"/>
      <point x="991" y="582"/>
      <point x="1007" y="689" type="curve"/>
      <point x="1002" y="736" type="line"/>
      <point x="985" y="684"/>
      <point x="953" y="658"/>
      <point x="907" y="658" type="curve" smooth="yes"/>
      <point x="851" y="658"/>
      <point x="826" y="695"/>
      <point x="826" y="771" type="curve" smooth="yes"/>
      <point x="826" y="934" type="line" smooth="yes"/>
      <point x="826" y="1022"/>
      <point x="854" y="1062"/>
      <point x="912" y="1062" type="curve" smooth="yes"/>
      <point x="972" y="1062"/>
      <point x="1001" y="1022"/>
      <point x="1001" y="934" type="curve" smooth="yes"/>
      <point x="1001" y="720" type="line"/>
      <point x="988" y="649" type="line"/>
      <point x="1004" y="649" type="line"/>
    </contour>
  </outline>
</glyph>
<glyph name="vowelE.mlm" format="2">
  <advance width="1837"/>
  <unicode hex="0D0F"/>
  <outline>
    <contour>
      <point x="354" y="799" type="curve" smooth="yes"/>
      <point x="167" y="799"/>
      <point x="77" y="690"/>
      <point x="77" y="482" type="curve" smooth="yes"/>
      <point x="77" y="283" type="line" smooth="yes"/>
      <point x="77" y="160"/>
      <point x="91" y="65"/>
      <point x="119" y="0" type="curve"/>
      <point x="285" y="0" type="line"/>
      <point x="259" y="63"/>
      <point x="243" y="157"/>
      <point x="243" y="281" type="curve" smooth="yes"/>
      <point x="243" y="483" type="line" smooth="yes"/>
      <point x="243" y="591"/>
      <point x="278" y="647"/>
      <point x="353" y="647" type="curve" smooth="yes"/>
      <point x="429" y="647"/>
      <point x="465" y="591"/>
      <point x="465" y="483" type="curve" smooth="yes"/>
      <point x="465" y="281" type="line" smooth="yes"/>
      <point x="465" y="163"/>
      <point x="448" y="72"/>
      <point x="417" y="10" type="curve"/>
      <point x="417" y="0" type="line"/>
      <point x="547" y="0" type="line"/>
      <point x="604" y="67"/>
      <point x="631" y="165"/>
      <point x="631" y="290" type="curve" smooth="yes"/>
      <point x="631" y="482" type="line" smooth="yes"/>
      <point x="631" y="690"/>
      <point x="541" y="799"/>
    </contour>
    <contour>
      <point x="1293" y="1208" type="curve" smooth="yes"/>
      <point x="975" y="1208"/>
      <point x="814" y="1030"/>
      <point x="814" y="685" type="curve" smooth="yes"/>
      <point x="814" y="-37" type="line" smooth="yes"/>
      <point x="814" y="-237"/>
      <point x="906" y="-339"/>
      <point x="1087" y="-339" type="curve" smooth="yes"/>
      <point x="1271" y="-339"/>
      <point x="1358" y="-236"/>
      <point x="1358" y="-33" type="curve" smooth="yes"/>
      <point x="1358" y="954" type="line"/>
      <point x="1197" y="954" type="line"/>
      <point x="1189" y="104" type="line"/>
      <point x="1194" y="55" type="line"/>
      <point x="1194" y="-55" type="line" smooth="yes"/>
      <point x="1194" y="-157"/>
      <point x="1161" y="-206"/>
      <point x="1088" y="-206" type="curve" smooth="yes"/>
      <point x="1014" y="-206"/>
      <point x="978" y="-157"/>
      <point x="978" y="-55" type="curve" smooth="yes"/>
      <point x="978" y="17" type="line"/>
      <point x="981" y="44" type="line"/>
      <point x="981" y="56"/>
      <point x="981" y="75"/>
      <point x="981" y="86" type="curve" smooth="yes"/>
      <point x="981" y="685" type="line" smooth="yes"/>
      <point x="981" y="937"/>
      <point x="1079" y="1056"/>
      <point x="1293" y="1056" type="curve" smooth="yes"/>
      <point x="1499" y="1056"/>
      <point x="1593" y="949"/>
      <point x="1593" y="715" type="curve" smooth="yes"/>
      <point x="1593" y="603" type="line" smooth="yes"/>
      <point x="1593" y="476"/>
      <point x="1561" y="423"/>
      <point x="1476" y="414" type="curve" smooth="yes"/>
      <point x="1440" y="410" type="line"/>
      <point x="1440" y="271" type="line"/>
      <point x="1476" y="267" type="line" smooth="yes"/>
      <point x="1569" y="257"/>
      <point x="1606" y="205"/>
      <point x="1606" y="84" type="curve" smooth="yes"/>
      <point x="1606" y="7" type="line" smooth="yes"/>
      <point x="1606" y="-125"/>
      <point x="1566" y="-187"/>
      <point x="1478" y="-187" type="curve" smooth="yes"/>
      <point x="1457" y="-187"/>
      <point x="1431" y="-184"/>
      <point x="1408" y="-178" type="curve"/>
      <point x="1427" y="-311" type="line"/>
      <point x="1454" y="-319"/>
      <point x="1488" y="-323"/>
      <point x="1518" y="-323" type="curve" smooth="yes"/>
      <point x="1689" y="-323"/>
      <point x="1774" y="-221"/>
      <point x="1774" y="-14" type="curve" smooth="yes"/>
      <point x="1774" y="65" type="line" smooth="yes"/>
      <point x="1774" y="233"/>
      <point x="1720" y="324"/>
      <point x="1595" y="341" type="curve"/>
      <point x="1595" y="345" type="line"/>
      <point x="1711" y="367"/>
      <point x="1761" y="452"/>
      <point x="1761" y="608" type="curve" smooth="yes"/>
      <point x="1761" y="721" type="line" smooth="yes"/>
      <point x="1761" y="1037"/>
      <point x="1605" y="1208"/>
    </contour>
    <contour>
      <point x="564" y="134" type="line"/>
      <point x="420" y="0" type="line"/>
      <point x="893" y="0" type="line"/>
      <point x="924" y="2" type="line"/>
      <point x="1229" y="2" type="line"/>
      <point x="1229" y="134" type="line"/>
    </contour>
  </outline>
</glyph>
<glyph name="Ga.mlm" format="2">
  <advance width="1140"/>
  <unicode hex="0D17"/>
  <outline>
    <contour>
      <point x="760" y="1208" type="curve" smooth="yes"/>
      <point x="567" y="1208"/>
      <point x="473" y="1099"/>
      <point x="473" y="878" type="curve" smooth="yes"/>
      <point x="473" y="700"/>
      <point x="497" y="486"/>
      <point x="497" y="308" type="curve" smooth="yes"/>
      <point x="497" y="189"/>
      <point x="462" y="134"/>
      <point x="378" y="134" type="curve" smooth="yes"/>
      <point x="295" y="134"/>
      <point x="257" y="189"/>
      <point x="257" y="308" type="curve" smooth="yes"/>
      <point x="257" y="786" type="line" smooth="yes"/>
      <point x="257" y="959"/>
      <point x="286" y="1097"/>
      <point x="335" y="1181" type="curve"/>
      <point x="168" y="1181" type="line"/>
      <point x="115" y="1091"/>
      <point x="89" y="956"/>
      <point x="89" y="784" type="curve" smooth="yes"/>
      <point x="89" y="310" type="line" smooth="yes"/>
      <point x="89" y="89"/>
      <point x="185" y="-21"/>
      <point x="378" y="-21" type="curve" smooth="yes"/>
      <point x="572" y="-21"/>
      <point x="665" y="89"/>
      <point x="665" y="310" type="curve" smooth="yes"/>
      <point x="665" y="489"/>
      <point x="641" y="703"/>
      <point x="641" y="880" type="curve" smooth="yes"/>
      <point x="641" y="1000"/>
      <point x="677" y="1054"/>
      <point x="761" y="1054" type="curve" smooth="yes"/>
      <point x="845" y="1054"/>
      <point x="883" y="1000"/>
      <point x="883" y="880" type="curve" smooth="yes"/>
      <point x="883" y="393" type="line" smooth="yes"/>
      <point x="883" y="221"/>
      <point x="856" y="85"/>
      <point x="807" y="0" type="curve"/>
      <point x="979" y="0" type="line"/>
      <point x="1030" y="84"/>
      <point x="1051" y="225"/>
      <point x="1051" y="395" type="curve" smooth="yes"/>
      <point x="1051" y="878" type="line" smooth="yes"/>
      <point x="1051" y="1099"/>
      <point x="955" y="1208"/>
    </contour>
  </outline>
</glyph>
<glyph name="Gha.mlm" format="2">
  <advance width="1792"/>
  <unicode hex="0D18"/>
  <outline>
    <contour>
      <point x="558" y="474" type="line"/>
      <point x="406" y="339" type="line"/>
      <point x="872" y="339" type="line"/>
      <point x="872" y="474" type="line"/>
    </contour>
    <contour>
      <point x="347" y="1090" type="curve" smooth="yes"/>
      <point x="166" y="1090"/>
      <point x="75" y="984"/>
      <point x="75" y="779" type="curve" smooth="yes"/>
      <point x="75" y="621" type="line" smooth="yes"/>
      <point x="75" y="498"/>
      <point x="87" y="404"/>
      <point x="115" y="339" type="curve"/>
      <point x="278" y="339" type="line"/>
      <point x="257" y="402"/>
      <point x="240" y="496"/>
      <point x="240" y="620" type="curve" smooth="yes"/>
      <point x="240" y="782" type="line" smooth="yes"/>
      <point x="240" y="890"/>
      <point x="275" y="942"/>
      <point x="347" y="942" type="curve" smooth="yes"/>
      <point x="418" y="942"/>
      <point x="451" y="890"/>
      <point x="451" y="782" type="curve" smooth="yes"/>
      <point x="451" y="620" type="line" smooth="yes"/>
      <point x="451" y="501"/>
      <point x="435" y="410"/>
      <point x="406" y="348" type="curve"/>
      <point x="406" y="339" type="line"/>
      <point x="520" y="339" type="line"/>
      <point x="585" y="403"/>
      <point x="616" y="503"/>
      <point x="616" y="624" type="curve" smooth="yes"/>
      <point x="616" y="779" type="line" smooth="yes"/>
      <point x="616" y="984"/>
      <point x="527" y="1090"/>
    </contour>
    <contour>
      <point x="1168" y="473" type="line"/>
      <point x="940" y="473" type="line"/>
      <point x="940" y="894" type="line" smooth="yes"/>
      <point x="940" y="1006"/>
      <point x="976" y="1059"/>
      <point x="1054" y="1059" type="curve" smooth="yes"/>
      <point x="1132" y="1059"/>
      <point x="1168" y="1006"/>
      <point x="1168" y="894" type="curve" smooth="yes"/>
    </contour>
    <contour>
      <point x="1053" y="1208" type="curve" smooth="yes"/>
      <point x="867" y="1208"/>
      <point x="774" y="1099"/>
      <point x="774" y="889" type="curve" smooth="yes"/>
      <point x="774" y="0" type="line"/>
      <point x="1691" y="0" type="line"/>
      <point x="1691" y="1182" type="line"/>
      <point x="1523" y="1182" type="line"/>
      <point x="1523" y="136" type="line"/>
      <point x="940" y="136" type="line"/>
      <point x="940" y="338" type="line"/>
      <point x="1333" y="338" type="line"/>
      <point x="1333" y="889" type="line" smooth="yes"/>
      <point x="1333" y="1099"/>
      <point x="1241" y="1208"/>
    </contour>
  </outline>
</glyph>
<glyph name="Cha.mlm" format="2">
  <advance width="1799"/>
  <unicode hex="0D1B"/>
  <outline>
    <contour>
      <point x="20" y="137" type="line"/>
      <point x="36" y="0" type="line"/>
      <point x="996" y="0" type="line"/>
      <point x="1005" y="137" type="line"/>
    </contour>
    <contour>
      <point x="370" y="132" type="curve"/>
      <point x="539" y="113" type="line"/>
      <point x="639" y="193"/>
      <point x="677" y="331"/>
      <point x="677" y="506" type="curve" smooth="yes"/>
      <point x="677" y="567" type="line" smooth="yes"/>
      <point x="677" y="769"/>
      <point x="588" y="873"/>
      <point x="408" y="873" type="curve" smooth="yes"/>
      <point x="228" y="873"/>
      <point x="143" y="771"/>
      <point x="143" y="577" type="curve" smooth="yes"/>
      <point x="143" y="522" type="line" smooth="yes"/>
      <point x="143" y="427"/>
      <point x="161" y="356"/>
      <point x="184" y="311" type="curve"/>
      <point x="342" y="311" type="line"/>
      <point x="322" y="359"/>
      <point x="306" y="426"/>
      <point x="306" y="516" type="curve" smooth="yes"/>
      <point x="306" y="568" type="line" smooth="yes"/>
      <point x="306" y="673"/>
      <point x="337" y="723"/>
      <point x="408" y="723" type="curve" smooth="yes"/>
      <point x="476" y="723"/>
      <point x="509" y="672"/>
      <point x="509" y="567" type="curve" smooth="yes"/>
      <point x="509" y="503" type="line" smooth="yes"/>
      <point x="509" y="332"/>
      <point x="466" y="207"/>
    </contour>
    <contour>
      <point x="946" y="137" type="line"/>
      <point x="768" y="137" type="line"/>
      <point x="768" y="0" type="line"/>
      <point x="1088" y="0" type="line"/>
    </contour>
    <contour>
      <point x="841" y="402" type="line" smooth="yes"/>
      <point x="841" y="209"/>
      <point x="881" y="89"/>
      <point x="942" y="0" type="curve"/>
      <point x="1088" y="0" type="line"/>
      <point x="1088" y="10" type="line"/>
      <point x="1036" y="101"/>
      <point x="1009" y="237"/>
      <point x="1009" y="398" type="curve" smooth="yes"/>
      <point x="1009" y="711" type="line" smooth="yes"/>
      <point x="1009" y="945"/>
      <point x="1094" y="1056"/>
      <point x="1282" y="1056" type="curve" smooth="yes"/>
      <point x="1462" y="1056"/>
      <point x="1554" y="947"/>
      <point x="1554" y="716" type="curve"/>
      <point x="1554" y="715" type="line"/>
      <point x="1529" y="715" type="line"/>
      <point x="1551" y="653" type="line"/>
      <point x="1551" y="271" type="line" smooth="yes"/>
      <point x="1551" y="174"/>
      <point x="1522" y="129"/>
      <point x="1457" y="129" type="curve" smooth="yes"/>
      <point x="1394" y="129"/>
      <point x="1364" y="174"/>
      <point x="1364" y="271" type="curve" smooth="yes"/>
      <point x="1364" y="546" type="line" smooth="yes"/>
      <point x="1364" y="633"/>
      <point x="1394" y="674"/>
      <point x="1459" y="674" type="curve" smooth="yes"/>
      <point x="1504" y="674"/>
      <point x="1535" y="656"/>
      <point x="1553" y="622" type="curve"/>
      <point x="1557" y="678" type="line"/>
      <point x="1541" y="771"/>
      <point x="1483" y="824"/>
      <point x="1387" y="824" type="curve" smooth="yes"/>
      <point x="1261" y="824"/>
      <point x="1200" y="738"/>
      <point x="1200" y="561" type="curve" smooth="yes"/>
      <point x="1200" y="276" type="line" smooth="yes"/>
      <point x="1200" y="82"/>
      <point x="1284" y="-18"/>
      <point x="1457" y="-18" type="curve" smooth="yes"/>
      <point x="1629" y="-18"/>
      <point x="1714" y="82"/>
      <point x="1714" y="276" type="curve" smooth="yes"/>
      <point x="1714" y="709" type="line" smooth="yes"/>
      <point x="1714" y="1038"/>
      <point x="1573" y="1208"/>
      <point x="1278" y="1208" type="curve" smooth="yes"/>
      <point x="982" y="1208"/>
      <point x="841" y="1039"/>
      <point x="841" y="711" type="curve" smooth="yes"/>
    </contour>
  </outline>
</glyph>
<glyph name="Ja.mlm" format="2">
  <advance width="1320"/>
  <unicode hex="0D1C"/>
  <outline>
    <contour>
      <point x="772" y="26" type="line"/>
      <point x="834" y="-12"/>
      <point x="908" y="-29"/>
      <point x="982" y="-29" type="curve" smooth="yes"/>
      <point x="1148" y="-29"/>
      <point x="1234" y="50"/>
      <point x="1234" y="197" type="curve" smooth="yes"/>
      <point x="1234" y="208" type="line" smooth="yes"/>
      <point x="1234" y="318"/>
      <point x="1186" y="388"/>
      <point x="1091" y="410" type="curve"/>
      <point x="1085" y="413"/>
      <point x="1059" y="428"/>
      <point x="1051" y="431" type="curve" smooth="yes"/>
      <point x="1029" y="439"/>
      <point x="1005" y="442"/>
      <point x="978" y="442" type="curve" smooth="yes"/>
      <point x="841" y="442"/>
      <point x="759" y="392"/>
      <point x="677" y="321" type="curve" smooth="yes"/>
      <point x="558" y="218" type="line" smooth="yes"/>
      <point x="490" y="160"/>
      <point x="436" y="117"/>
      <point x="359" y="117" type="curve" smooth="yes"/>
      <point x="282" y="117"/>
      <point x="246" y="153"/>
      <point x="246" y="221" type="curve" smooth="yes"/>
      <point x="246" y="227" type="line" smooth="yes"/>
      <point x="246" y="288"/>
      <point x="272" y="325"/>
      <point x="334" y="333" type="curve"/>
      <point x="196" y="377" type="line"/>
      <point x="196" y="362" type="line"/>
      <point x="122" y="342"/>
      <point x="85" y="283"/>
      <point x="85" y="195" type="curve" smooth="yes"/>
      <point x="85" y="190" type="line" smooth="yes"/>
      <point x="85" y="51"/>
      <point x="175" y="-29"/>
      <point x="345" y="-29" type="curve" smooth="yes"/>
      <point x="466" y="-29"/>
      <point x="552" y="21"/>
      <point x="631" y="91" type="curve" smooth="yes"/>
      <point x="764" y="208" type="line" smooth="yes"/>
      <point x="828" y="265"/>
      <point x="886" y="305"/>
      <point x="965" y="305" type="curve" smooth="yes"/>
      <point x="1033" y="305"/>
      <point x="1071" y="275"/>
      <point x="1071" y="212" type="curve" smooth="yes"/>
      <point x="1071" y="203" type="line" smooth="yes"/>
      <point x="1071" y="141"/>
      <point x="1034" y="110"/>
      <point x="954" y="110" type="curve" smooth="yes"/>
      <point x="883" y="110"/>
      <point x="817" y="131"/>
      <point x="753" y="173" type="curve"/>
    </contour>
    <contour>
      <point x="82" y="790" type="curve" smooth="yes"/>
      <point x="82" y="583" type="line" smooth="yes"/>
      <point x="82" y="459"/>
      <point x="124" y="384"/>
      <point x="222" y="358" type="curve"/>
      <point x="227" y="355"/>
      <point x="247" y="338"/>
      <point x="251" y="335" type="curve"/>
      <point x="271" y="331"/>
      <point x="292" y="330"/>
      <point x="316" y="330" type="curve" smooth="yes"/>
      <point x="470" y="330"/>
      <point x="549" y="413"/>
      <point x="549" y="574" type="curve" smooth="yes"/>
      <point x="549" y="700" type="line" smooth="yes"/>
      <point x="549" y="849"/>
      <point x="496" y="923"/>
      <point x="390" y="923" type="curve" smooth="yes"/>
      <point x="298" y="923"/>
      <point x="251" y="867"/>
      <point x="231" y="768" type="curve"/>
      <point x="235" y="723" type="line"/>
      <point x="251" y="763"/>
      <point x="280" y="786"/>
      <point x="322" y="786" type="curve" smooth="yes"/>
      <point x="368" y="786"/>
      <point x="393" y="749"/>
      <point x="393" y="679" type="curve" smooth="yes"/>
      <point x="393" y="572" type="line" smooth="yes"/>
      <point x="393" y="498"/>
      <point x="365" y="461"/>
      <point x="315" y="461" type="curve" smooth="yes"/>
      <point x="265" y="461"/>
      <point x="237" y="498"/>
      <point x="237" y="572" type="curve" smooth="yes"/>
      <point x="237" y="755" type="line"/>
      <point x="250" y="801" type="line"/>
      <point x="234" y="801" type="line"/>
      <point x="234" y="804" type="line" smooth="yes"/>
      <point x="234" y="972"/>
      <point x="307" y="1062"/>
      <point x="462" y="1062" type="curve" smooth="yes"/>
      <point x="609" y="1062"/>
      <point x="679" y="989"/>
      <point x="681" y="842" type="curve" smooth="yes"/>
      <point x="685" y="487" type="line"/>
      <point x="841" y="506" type="line"/>
      <point x="846" y="898" type="line" smooth="yes"/>
      <point x="847" y="997"/>
      <point x="873" y="1055"/>
      <point x="953" y="1055" type="curve" smooth="yes"/>
      <point x="1030" y="1055"/>
      <point x="1062" y="1007"/>
      <point x="1062" y="898" type="curve" smooth="yes"/>
      <point x="1062" y="656" type="line" smooth="yes"/>
      <point x="1062" y="513"/>
      <point x="1017" y="447"/>
      <point x="923" y="436" type="curve"/>
      <point x="1104" y="393" type="line"/>
      <point x="1104" y="413" type="line"/>
      <point x="1201" y="443"/>
      <point x="1228" y="541"/>
      <point x="1228" y="665" type="curve" smooth="yes"/>
      <point x="1228" y="905" type="line" smooth="yes"/>
      <point x="1228" y="1108"/>
      <point x="1148" y="1208"/>
      <point x="982" y="1208" type="curve" smooth="yes"/>
      <point x="853" y="1208"/>
      <point x="779" y="1147"/>
      <point x="760" y="1016" type="curve"/>
      <point x="755" y="1016" type="line"/>
      <point x="729" y="1139"/>
      <point x="621" y="1208"/>
      <point x="450" y="1208" type="curve" smooth="yes"/>
      <point x="203" y="1208"/>
      <point x="82" y="1065"/>
    </contour>
  </outline>
</glyph>
<glyph name="Jha.mlm" format="2">
  <advance width="2231"/>
  <unicode hex="0D1D"/>
  <outline>
    <contour>
      <point x="1726" y="414" type="line"/>
      <point x="1726" y="1176" type="line"/>
      <point x="1558" y="1176" type="line"/>
      <point x="1558" y="414" type="line"/>
    </contour>
    <contour>
      <point x="1326" y="303" type="curve" smooth="yes"/>
      <point x="1326" y="451"/>
      <point x="1341" y="649"/>
      <point x="1341" y="797" type="curve" smooth="yes"/>
      <point x="1341" y="1072"/>
      <point x="1216" y="1207"/>
      <point x="954" y="1207" type="curve" smooth="yes"/>
      <point x="825" y="1207"/>
      <point x="732" y="1170"/>
      <point x="684" y="1121" type="curve"/>
      <point x="626" y="1081" type="line"/>
      <point x="499" y="1004"/>
      <point x="451" y="881"/>
      <point x="451" y="693" type="curve" smooth="yes"/>
      <point x="451" y="276" type="line" smooth="yes"/>
      <point x="451" y="83"/>
      <point x="538" y="-18"/>
      <point x="718" y="-18" type="curve" smooth="yes"/>
      <point x="897" y="-18"/>
      <point x="985" y="83"/>
      <point x="985" y="276" type="curve" smooth="yes"/>
      <point x="985" y="693" type="line" smooth="yes"/>
      <point x="985" y="880"/>
      <point x="937" y="1002"/>
      <point x="810" y="1079" type="curve"/>
      <point x="752" y="1121" type="line"/>
      <point x="704" y="1170"/>
      <point x="612" y="1207"/>
      <point x="483" y="1207" type="curve" smooth="yes"/>
      <point x="213" y="1207"/>
      <point x="88" y="1052"/>
      <point x="88" y="733" type="curve" smooth="yes"/>
      <point x="88" y="395" type="line" smooth="yes"/>
      <point x="88" y="225"/>
      <point x="112" y="84"/>
      <point x="164" y="0" type="curve"/>
      <point x="336" y="0" type="line"/>
      <point x="286" y="85"/>
      <point x="256" y="221"/>
      <point x="256" y="393" type="curve" smooth="yes"/>
      <point x="256" y="735" type="line" smooth="yes"/>
      <point x="256" y="962"/>
      <point x="335" y="1067"/>
      <point x="507" y="1067" type="curve" smooth="yes"/>
      <point x="559" y="1067"/>
      <point x="604" y="1057"/>
      <point x="642" y="1036" type="curve"/>
      <point x="644.808" y="1034.84"/>
      <point x="697.789" y="1012.92"/>
      <point x="700" y="1012" type="curve"/>
      <point x="789" y="956"/>
      <point x="819" y="852"/>
      <point x="819" y="698" type="curve" smooth="yes"/>
      <point x="819" y="275" type="line" smooth="yes"/>
      <point x="819" y="176"/>
      <point x="787" y="130"/>
      <point x="718" y="130" type="curve" smooth="yes"/>
      <point x="649" y="130"/>
      <point x="617" y="176"/>
      <point x="617" y="275" type="curve" smooth="yes"/>
      <point x="617" y="698" type="line" smooth="yes"/>
      <point x="617" y="852"/>
      <point x="647" y="956"/>
      <point x="736" y="1012" type="curve"/>
      <point x="738.211" y="1012.92"/>
      <point x="791.192" y="1034.84"/>
      <point x="794" y="1036" type="curve"/>
      <point x="833" y="1057"/>
      <point x="878" y="1067"/>
      <point x="930" y="1067" type="curve" smooth="yes"/>
      <point x="1096" y="1067"/>
      <point x="1173" y="979"/>
      <point x="1173" y="790" type="curve" smooth="yes"/>
      <point x="1173" y="644"/>
      <point x="1158" y="445"/>
      <point x="1158" y="299" type="curve" smooth="yes"/>
      <point x="1158" y="87"/>
      <point x="1242" y="-20"/>
      <point x="1414" y="-20" type="curve" smooth="yes"/>
      <point x="1544" y="-20"/>
      <point x="1622" y="47"/>
      <point x="1638" y="177" type="curve"/>
      <point x="1697" y="177" type="line"/>
      <point x="1704" y="499" type="line"/>
      <point x="1558" y="537" type="line"/>
      <point x="1558" y="320" type="line" smooth="yes"/>
      <point x="1558" y="199"/>
      <point x="1521" y="141"/>
      <point x="1441" y="141" type="curve" smooth="yes"/>
      <point x="1362" y="141"/>
      <point x="1326" y="191"/>
    </contour>
    <contour>
      <point x="1645" y="177" type="line"/>
      <point x="1661" y="47"/>
      <point x="1743" y="-20"/>
      <point x="1879" y="-20" type="curve" smooth="yes"/>
      <point x="2062" y="-20"/>
      <point x="2142" y="92"/>
      <point x="2142" y="323" type="curve" smooth="yes"/>
      <point x="2142" y="783" type="line" smooth="yes"/>
      <point x="2142" y="955"/>
      <point x="2115" y="1090"/>
      <point x="2063" y="1180" type="curve"/>
      <point x="1896" y="1180" type="line"/>
      <point x="1945" y="1096"/>
      <point x="1974" y="958"/>
      <point x="1974" y="785" type="curve" smooth="yes"/>
      <point x="1974" y="322" type="line" smooth="yes"/>
      <point x="1974" y="198"/>
      <point x="1938" y="141"/>
      <point x="1850" y="141" type="curve" smooth="yes"/>
      <point x="1765" y="141"/>
      <point x="1726" y="198"/>
      <point x="1726" y="322" type="curve" smooth="yes"/>
      <point x="1726" y="535" type="line"/>
      <point x="1637" y="535" type="line"/>
    </contour>
  </outline>
</glyph>
<glyph name="Nya.mlm" format="2">
  <advance width="2099"/>
  <unicode hex="0D1E"/>
  <outline>
    <contour>
      <point x="502" y="1208" type="curve" smooth="yes"/>
      <point x="222" y="1208"/>
      <point x="86" y="1045"/>
      <point x="86" y="730" type="curve" smooth="yes"/>
      <point x="86" y="276" type="line" smooth="yes"/>
      <point x="86" y="82"/>
      <point x="172" y="-18"/>
      <point x="344" y="-18" type="curve" smooth="yes"/>
      <point x="516" y="-18"/>
      <point x="601" y="82"/>
      <point x="601" y="276" type="curve" smooth="yes"/>
      <point x="601" y="559" type="line" smooth="yes"/>
      <point x="601" y="730"/>
      <point x="541" y="813"/>
      <point x="421" y="813" type="curve" smooth="yes"/>
      <point x="318" y="813"/>
      <point x="260" y="748"/>
      <point x="243" y="633" type="curve"/>
      <point x="248" y="576" type="line"/>
      <point x="267" y="634"/>
      <point x="299" y="663"/>
      <point x="349" y="663" type="curve" smooth="yes"/>
      <point x="409" y="663"/>
      <point x="437" y="622"/>
      <point x="437" y="535" type="curve" smooth="yes"/>
      <point x="437" y="271" type="line" smooth="yes"/>
      <point x="437" y="174"/>
      <point x="409" y="129"/>
      <point x="344" y="129" type="curve" smooth="yes"/>
      <point x="280" y="129"/>
      <point x="249" y="174"/>
      <point x="249" y="271" type="curve" smooth="yes"/>
      <point x="249" y="597" type="line"/>
      <point x="260" y="681" type="line"/>
      <point x="247" y="681" type="line"/>
      <point x="247" y="726" type="line" smooth="yes"/>
      <point x="247" y="951"/>
      <point x="331" y="1056"/>
      <point x="512" y="1056" type="curve" smooth="yes"/>
      <point x="682" y="1056"/>
      <point x="764" y="972"/>
      <point x="764" y="797" type="curve" smooth="yes"/>
      <point x="764" y="635" type="line"/>
      <point x="843" y="635" type="line"/>
      <point x="846" y="972" type="line"/>
      <point x="817" y="1127"/>
      <point x="701" y="1208"/>
    </contour>
    <contour>
      <point x="764" y="3" type="line"/>
      <point x="932" y="3" type="line"/>
      <point x="932" y="771" type="line"/>
      <point x="764" y="738" type="line"/>
    </contour>
    <contour>
      <point x="1174" y="1207" type="curve" smooth="yes"/>
      <point x="984" y="1207"/>
      <point x="877" y="1125"/>
      <point x="850" y="972" type="curve"/>
      <point x="815" y="972" type="line"/>
      <point x="820" y="633" type="line"/>
      <point x="932" y="633" type="line"/>
      <point x="932" y="788" type="line" smooth="yes"/>
      <point x="932" y="977"/>
      <point x="1015" y="1067"/>
      <point x="1181" y="1067" type="curve" smooth="yes"/>
      <point x="1229" y="1067"/>
      <point x="1270" y="1057"/>
      <point x="1305" y="1036" type="curve"/>
      <point x="1307.81" y="1034.84"/>
      <point x="1360.79" y="1012.92"/>
      <point x="1363" y="1012" type="curve"/>
      <point x="1452" y="956"/>
      <point x="1482" y="852"/>
      <point x="1482" y="698" type="curve" smooth="yes"/>
      <point x="1482" y="275" type="line" smooth="yes"/>
      <point x="1482" y="176"/>
      <point x="1450" y="130"/>
      <point x="1381" y="130" type="curve" smooth="yes"/>
      <point x="1312" y="130"/>
      <point x="1280" y="176"/>
      <point x="1280" y="275" type="curve" smooth="yes"/>
      <point x="1280" y="698" type="line" smooth="yes"/>
      <point x="1280" y="852"/>
      <point x="1310" y="956"/>
      <point x="1399" y="1012" type="curve"/>
      <point x="1401.21" y="1012.92"/>
      <point x="1454.19" y="1034.84"/>
      <point x="1457" y="1036" type="curve"/>
      <point x="1496" y="1057"/>
      <point x="1540" y="1067"/>
      <point x="1592" y="1067" type="curve" smooth="yes"/>
      <point x="1764" y="1067"/>
      <point x="1843" y="962"/>
      <point x="1843" y="735" type="curve" smooth="yes"/>
      <point x="1843" y="393" type="line" smooth="yes"/>
      <point x="1843" y="221"/>
      <point x="1813" y="85"/>
      <point x="1763" y="0" type="curve"/>
      <point x="1935" y="0" type="line"/>
      <point x="1988" y="84"/>
      <point x="2011" y="225"/>
      <point x="2011" y="395" type="curve" smooth="yes"/>
      <point x="2011" y="733" type="line" smooth="yes"/>
      <point x="2011" y="1052"/>
      <point x="1886" y="1207"/>
      <point x="1616" y="1207" type="curve" smooth="yes"/>
      <point x="1487" y="1207"/>
      <point x="1395" y="1170"/>
      <point x="1347" y="1121" type="curve"/>
      <point x="1289" y="1081" type="line"/>
      <point x="1162" y="1004"/>
      <point x="1114" y="881"/>
      <point x="1114" y="693" type="curve" smooth="yes"/>
      <point x="1114" y="276" type="line" smooth="yes"/>
      <point x="1114" y="83"/>
      <point x="1201" y="-18"/>
      <point x="1381" y="-18" type="curve" smooth="yes"/>
      <point x="1560" y="-18"/>
      <point x="1648" y="83"/>
      <point x="1648" y="276" type="curve" smooth="yes"/>
      <point x="1648" y="693" type="line" smooth="yes"/>
      <point x="1648" y="880"/>
      <point x="1600" y="1002"/>
      <point x="1473" y="1079" type="curve"/>
      <point x="1415" y="1121" type="line"/>
      <point x="1372" y="1170"/>
      <point x="1290" y="1207"/>
    </contour>
  </outline>
</glyph>
<glyph name="Tta.mlm" format="2">
  <advance width="691"/>
  <unicode hex="0D1F"/>
  <outline>
    <contour>
      <point x="325" y="-23" type="curve" smooth="yes"/>
      <point x="522" y="-23"/>
      <point x="619" y="79"/>
      <point x="619" y="290" type="curve" smooth="yes"/>
      <point x="619" y="337" type="line" smooth="yes"/>
      <point x="619" y="501"/>
      <point x="565" y="590"/>
      <point x="400" y="662" type="curve" smooth="yes"/>
      <point x="259" y="724"/>
      <point x="235" y="783"/>
      <point x="235" y="876" type="curve" smooth="yes"/>
      <point x="235" y="896" type="line" smooth="yes"/>
      <point x="235" y="1001"/>
      <point x="277" y="1054"/>
      <point x="368" y="1054" type="curve" smooth="yes"/>
      <point x="452" y="1054"/>
      <point x="521" y="1021"/>
      <point x="595" y="960" type="curve"/>
      <point x="587" y="1126" type="line"/>
      <point x="541" y="1169"/>
      <point x="463" y="1208"/>
      <point x="356" y="1208" type="curve" smooth="yes"/>
      <point x="165" y="1208"/>
      <point x="67" y="1100"/>
      <point x="67" y="896" type="curve" smooth="yes"/>
      <point x="67" y="874" type="line" smooth="yes"/>
      <point x="67" y="712"/>
      <point x="120" y="618"/>
      <point x="284" y="547" type="curve" smooth="yes"/>
      <point x="427" y="485"/>
      <point x="451" y="426"/>
      <point x="451" y="333" type="curve" smooth="yes"/>
      <point x="451" y="293" type="line" smooth="yes"/>
      <point x="451" y="184"/>
      <point x="406" y="131"/>
      <point x="311" y="131" type="curve" smooth="yes"/>
      <point x="220" y="131"/>
      <point x="142" y="170"/>
      <point x="62" y="240" type="curve"/>
      <point x="68" y="73" type="line"/>
      <point x="119" y="21"/>
      <point x="209" y="-23"/>
    </contour>
  </outline>
</glyph>
<glyph name="Dda.mlm" format="2">
  <advance width="1552"/>
  <unicode hex="0D21"/>
  <outline>
    <contour>
      <point x="1047" y="414" type="line"/>
      <point x="1047" y="1176" type="line"/>
      <point x="879" y="1176" type="line"/>
      <point x="879" y="414" type="line"/>
    </contour>
    <contour>
      <point x="734" y="-20" type="curve" smooth="yes"/>
      <point x="865" y="-20"/>
      <point x="945" y="48"/>
      <point x="961" y="177" type="curve"/>
      <point x="1019" y="177" type="line"/>
      <point x="1026" y="499" type="line"/>
      <point x="879" y="537" type="line"/>
      <point x="879" y="320" type="line" smooth="yes"/>
      <point x="879" y="199"/>
      <point x="841" y="141"/>
      <point x="760" y="141" type="curve" smooth="yes"/>
      <point x="680" y="141"/>
      <point x="643" y="192"/>
      <point x="643" y="305" type="curve" smooth="yes"/>
      <point x="643" y="485"/>
      <point x="667" y="698"/>
      <point x="667" y="878" type="curve" smooth="yes"/>
      <point x="667" y="1099"/>
      <point x="573" y="1208"/>
      <point x="380" y="1208" type="curve" smooth="yes"/>
      <point x="185" y="1208"/>
      <point x="89" y="1099"/>
      <point x="89" y="878" type="curve" smooth="yes"/>
      <point x="89" y="395" type="line" smooth="yes"/>
      <point x="89" y="225"/>
      <point x="112" y="84"/>
      <point x="162" y="0" type="curve"/>
      <point x="332" y="0" type="line"/>
      <point x="283" y="85"/>
      <point x="257" y="221"/>
      <point x="257" y="393" type="curve" smooth="yes"/>
      <point x="257" y="880" type="line" smooth="yes"/>
      <point x="257" y="1000"/>
      <point x="296" y="1054"/>
      <point x="380" y="1054" type="curve" smooth="yes"/>
      <point x="463" y="1054"/>
      <point x="499" y="1000"/>
      <point x="499" y="880" type="curve" smooth="yes"/>
      <point x="499" y="699"/>
      <point x="475" y="483"/>
      <point x="475" y="301" type="curve" smooth="yes"/>
      <point x="475" y="88"/>
      <point x="561" y="-20"/>
    </contour>
    <contour>
      <point x="966" y="177" type="line"/>
      <point x="982" y="47"/>
      <point x="1064" y="-20"/>
      <point x="1200" y="-20" type="curve" smooth="yes"/>
      <point x="1383" y="-20"/>
      <point x="1463" y="92"/>
      <point x="1463" y="323" type="curve" smooth="yes"/>
      <point x="1463" y="783" type="line" smooth="yes"/>
      <point x="1463" y="955"/>
      <point x="1436" y="1090"/>
      <point x="1384" y="1180" type="curve"/>
      <point x="1217" y="1180" type="line"/>
      <point x="1266" y="1096"/>
      <point x="1295" y="958"/>
      <point x="1295" y="785" type="curve" smooth="yes"/>
      <point x="1295" y="322" type="line" smooth="yes"/>
      <point x="1295" y="198"/>
      <point x="1259" y="141"/>
      <point x="1171" y="141" type="curve" smooth="yes"/>
      <point x="1086" y="141"/>
      <point x="1047" y="198"/>
      <point x="1047" y="322" type="curve" smooth="yes"/>
      <point x="1047" y="535" type="line"/>
      <point x="958" y="535" type="line"/>
    </contour>
  </outline>
</glyph>
<glyph name="Nna.mlm" format="2">
  <advance width="1863"/>
  <unicode hex="0D23"/>
  <outline>
    <contour>
      <point x="764" y="3" type="line"/>
      <point x="932" y="3" type="line"/>
      <point x="932" y="785" type="line"/>
      <point x="764" y="733" type="line"/>
    </contour>
    <contour>
      <point x="501" y="1208" type="curve" smooth="yes"/>
      <point x="221" y="1208"/>
      <point x="86" y="1045"/>
      <point x="86" y="730" type="curve" smooth="yes"/>
      <point x="86" y="276" type="line" smooth="yes"/>
      <point x="86" y="82"/>
      <point x="172" y="-18"/>
      <point x="344" y="-18" type="curve" smooth="yes"/>
      <point x="516" y="-18"/>
      <point x="601" y="82"/>
      <point x="601" y="276" type="curve" smooth="yes"/>
      <point x="601" y="559" type="line" smooth="yes"/>
      <point x="601" y="730"/>
      <point x="541" y="813"/>
      <point x="421" y="813" type="curve" smooth="yes"/>
      <point x="318" y="813"/>
      <point x="260" y="748"/>
      <point x="243" y="633" type="curve"/>
      <point x="248" y="576" type="line"/>
      <point x="267" y="634"/>
      <point x="299" y="663"/>
      <point x="349" y="663" type="curve" smooth="yes"/>
      <point x="409" y="663"/>
      <point x="437" y="622"/>
      <point x="437" y="535" type="curve" smooth="yes"/>
      <point x="437" y="271" type="line" smooth="yes"/>
      <point x="437" y="174"/>
      <point x="409" y="129"/>
      <point x="344" y="129" type="curve" smooth="yes"/>
      <point x="280" y="129"/>
      <point x="249" y="174"/>
      <point x="249" y="271" type="curve" smooth="yes"/>
      <point x="249" y="597" type="line"/>
      <point x="260" y="681" type="line"/>
      <point x="247" y="681" type="line"/>
      <point x="247" y="726" type="line" smooth="yes"/>
      <point x="247" y="951"/>
      <point x="331" y="1056"/>
      <point x="512" y="1056" type="curve" smooth="yes"/>
      <point x="682" y="1056"/>
      <point x="764" y="973"/>
      <point x="764" y="797" type="curve" smooth="yes"/>
      <point x="764" y="635" type="line"/>
      <point x="841" y="635" type="line"/>
      <point x="841" y="989" type="line"/>
      <point x="809" y="1130"/>
      <point x="697" y="1208"/>
    </contour>
    <contour>
      <point x="1182" y="771" type="line"/>
      <point x="1182" y="3" type="line"/>
      <point x="1350" y="3" type="line"/>
      <point x="1350" y="771" type="line"/>
    </contour>
    <contour>
      <point x="1266" y="1006" type="line"/>
      <point x="1251" y="1138"/>
      <point x="1178" y="1208"/>
      <point x="1058" y="1208" type="curve" smooth="yes"/>
      <point x="938" y="1208"/>
      <point x="860" y="1143"/>
      <point x="846" y="989" type="curve"/>
      <point x="789" y="989" type="line"/>
      <point x="789" y="675" type="line"/>
      <point x="932" y="671" type="line"/>
      <point x="932" y="864" type="line" smooth="yes"/>
      <point x="932" y="987"/>
      <point x="970" y="1047"/>
      <point x="1057" y="1047" type="curve" smooth="yes"/>
      <point x="1145" y="1047"/>
      <point x="1182" y="987"/>
      <point x="1182" y="864" type="curve" smooth="yes"/>
      <point x="1182" y="649" type="line"/>
      <point x="1266" y="649" type="line"/>
    </contour>
    <contour>
      <point x="1350" y="645" type="line"/>
      <point x="1350" y="863" type="line" smooth="yes"/>
      <point x="1350" y="988"/>
      <point x="1390" y="1048"/>
      <point x="1478" y="1048" type="curve" smooth="yes"/>
      <point x="1567" y="1048"/>
      <point x="1606" y="988"/>
      <point x="1606" y="863" type="curve" smooth="yes"/>
      <point x="1606" y="393" type="line" smooth="yes"/>
      <point x="1606" y="221"/>
      <point x="1578" y="85"/>
      <point x="1530" y="0" type="curve"/>
      <point x="1700" y="0" type="line"/>
      <point x="1752" y="84"/>
      <point x="1774" y="225"/>
      <point x="1774" y="395" type="curve" smooth="yes"/>
      <point x="1774" y="862" type="line" smooth="yes"/>
      <point x="1774" y="1093"/>
      <point x="1692" y="1208"/>
      <point x="1508" y="1208" type="curve" smooth="yes"/>
      <point x="1368" y="1208"/>
      <point x="1293" y="1138"/>
      <point x="1271" y="1006" type="curve"/>
      <point x="1211" y="1006" type="line"/>
      <point x="1203" y="683" type="line"/>
    </contour>
  </outline>
</glyph>
<glyph name="Da.mlm" format="2">
  <advance width="818"/>
  <unicode hex="0D26"/>
  <outline>
    <contour>
      <point x="734" y="877" type="line" smooth="yes"/>
      <point x="734" y="1093"/>
      <point x="627.338" y="1208"/>
      <point x="418" y="1208" type="curve" smooth="yes"/>
      <point x="196.326" y="1208"/>
      <point x="89" y="1083"/>
      <point x="89" y="846" type="curve" smooth="yes"/>
      <point x="89" y="347" type="line" smooth="yes"/>
      <point x="89" y="197"/>
      <point x="103" y="80"/>
      <point x="128" y="0" type="curve"/>
      <point x="295" y="0" type="line"/>
      <point x="272" y="77"/>
      <point x="257" y="194"/>
      <point x="257" y="345" type="curve" smooth="yes"/>
      <point x="257" y="848" type="line" smooth="yes"/>
      <point x="257" y="987"/>
      <point x="304.301" y="1056"/>
      <point x="414" y="1056" type="curve" smooth="yes"/>
      <point x="518.314" y="1056"/>
      <point x="566" y="991"/>
      <point x="566" y="866" type="curve" smooth="yes"/>
      <point x="566" y="826" type="line" smooth="yes"/>
      <point x="566" y="724"/>
      <point x="527" y="678"/>
      <point x="438" y="674" type="curve" smooth="yes"/>
      <point x="390" y="672" type="line"/>
      <point x="390" y="527" type="line"/>
      <point x="445" y="525" type="line" smooth="yes"/>
      <point x="539" y="522"/>
      <point x="577" y="472"/>
      <point x="577" y="369" type="curve" smooth="yes"/>
      <point x="577" y="291" type="line" smooth="yes"/>
      <point x="577" y="184"/>
      <point x="540" y="134"/>
      <point x="452" y="134" type="curve" smooth="yes"/>
      <point x="431" y="134"/>
      <point x="409" y="136"/>
      <point x="391" y="139" type="curve"/>
      <point x="410" y="-2" type="line"/>
      <point x="439" y="-7"/>
      <point x="469" y="-10"/>
      <point x="499" y="-10" type="curve" smooth="yes"/>
      <point x="665" y="-10"/>
      <point x="745" y="84"/>
      <point x="745" y="275" type="curve" smooth="yes"/>
      <point x="745" y="348" type="line" smooth="yes"/>
      <point x="745" y="504"/>
      <point x="687" y="585"/>
      <point x="562" y="601" type="curve"/>
      <point x="562" y="605" type="line"/>
      <point x="681" y="624"/>
      <point x="734" y="704"/>
      <point x="734" y="841" type="curve" smooth="yes"/>
    </contour>
  </outline>
</glyph>
<glyph name="La.mlm" format="2">
  <advance width="1115"/>
  <unicode hex="0D32"/>
  <outline>
    <contour>
      <point x="491" y="473" type="line"/>
      <point x="263" y="473" type="line"/>
      <point x="263" y="894" type="line" smooth="yes"/>
      <point x="263" y="1006"/>
      <point x="299" y="1059"/>
      <point x="377" y="1059" type="curve" smooth="yes"/>
      <point x="455" y="1059"/>
      <point x="491" y="1006"/>
      <point x="491" y="894" type="curve" smooth="yes"/>
    </contour>
    <contour>
      <point x="97" y="0" type="line"/>
      <point x="1014" y="0" type="line"/>
      <point x="1014" y="1182" type="line"/>
      <point x="846" y="1182" type="line"/>
      <point x="846" y="136" type="line"/>
      <point x="263" y="136" type="line"/>
      <point x="263" y="338" type="line"/>
      <point x="656" y="338" type="line"/>
      <point x="656" y="889" type="line" smooth="yes"/>
      <point x="656" y="1099"/>
      <point x="564" y="1208"/>
      <point x="376" y="1208" type="curve" smooth="yes"/>
      <point x="190" y="1208"/>
      <point x="97" y="1099"/>
      <point x="97" y="889" type="curve" smooth="yes"/>
    </contour>
  </outline>
</glyph>
<glyph name="Lla.mlm" format="2">
  <advance width="1052"/>
  <unicode hex="0D33"/>
  <outline>
    <contour>
      <point x="316" y="-302" type="curve" smooth="yes"/>
      <point x="953" y="-302" type="line"/>
      <point x="973" y="-168" type="line"/>
      <point x="337" y="-168" type="line" smooth="yes"/>
      <point x="275" y="-168"/>
      <point x="244" y="-140"/>
      <point x="244" y="-84" type="curve" smooth="yes"/>
      <point x="244" y="-30"/>
      <point x="275" y="0"/>
      <point x="337" y="0" type="curve" smooth="yes"/>
      <point x="706" y="0" type="line" smooth="yes"/>
      <point x="888" y="0"/>
      <point x="979" y="93"/>
      <point x="979" y="279" type="curve" smooth="yes"/>
      <point x="979" y="319" type="line" smooth="yes"/>
      <point x="979" y="478"/>
      <point x="923" y="556"/>
      <point x="798" y="575" type="curve"/>
      <point x="798" y="580" type="line"/>
      <point x="918" y="602"/>
      <point x="969" y="677"/>
      <point x="969" y="820" type="curve" smooth="yes"/>
      <point x="969" y="852" type="line" smooth="yes"/>
      <point x="969" y="1086.93"/>
      <point x="819.657" y="1208"/>
      <point x="537" y="1208" type="curve" smooth="yes"/>
      <point x="236.52" y="1208"/>
      <point x="83" y="1053.48"/>
      <point x="83" y="756" type="curve" smooth="yes"/>
      <point x="83" y="464" type="line" smooth="yes"/>
      <point x="83" y="291"/>
      <point x="162" y="199"/>
      <point x="328" y="199" type="curve" smooth="yes"/>
      <point x="495" y="199"/>
      <point x="573" y="291"/>
      <point x="573" y="464" type="curve" smooth="yes"/>
      <point x="573" y="662" type="line" smooth="yes"/>
      <point x="573" y="819"/>
      <point x="516" y="894"/>
      <point x="401" y="894" type="curve" smooth="yes"/>
      <point x="301" y="894"/>
      <point x="250" y="838"/>
      <point x="231" y="734" type="curve"/>
      <point x="237" y="679" type="line"/>
      <point x="254" y="728"/>
      <point x="287" y="755"/>
      <point x="332" y="755" type="curve" smooth="yes"/>
      <point x="388" y="755"/>
      <point x="416" y="717"/>
      <point x="416" y="640" type="curve" smooth="yes"/>
      <point x="416" y="460" type="line" smooth="yes"/>
      <point x="416" y="376"/>
      <point x="389" y="335"/>
      <point x="328" y="335" type="curve" smooth="yes"/>
      <point x="267" y="335"/>
      <point x="239" y="376"/>
      <point x="239" y="460" type="curve" smooth="yes"/>
      <point x="239" y="717" type="line"/>
      <point x="250" y="779" type="line"/>
      <point x="236" y="779" type="line"/>
      <point x="236" y="780" type="line"/>
      <point x="236" y="963.417"/>
      <point x="337.78" y="1058"/>
      <point x="537" y="1058" type="curve" smooth="yes"/>
      <point x="713.622" y="1058"/>
      <point x="801" y="984.523"/>
      <point x="801" y="836" type="curve" smooth="yes"/>
      <point x="801" y="809" type="line" smooth="yes"/>
      <point x="801" y="705"/>
      <point x="761" y="659"/>
      <point x="674" y="652" type="curve" smooth="yes"/>
      <point x="638" y="649" type="line"/>
      <point x="638" y="507" type="line"/>
      <point x="679" y="504" type="line" smooth="yes"/>
      <point x="768" y="497"/>
      <point x="811" y="449"/>
      <point x="811" y="336" type="curve" smooth="yes"/>
      <point x="811" y="298" type="line" smooth="yes"/>
      <point x="811" y="185.5"/>
      <point x="759.529" y="133"/>
      <point x="661" y="133" type="curve" smooth="yes"/>
      <point x="316" y="133" type="line" smooth="yes"/>
      <point x="157" y="133"/>
      <point x="77" y="58"/>
      <point x="77" y="-84" type="curve" smooth="yes"/>
      <point x="77" y="-228"/>
      <point x="157" y="-302"/>
    </contour>
  </outline>
</glyph>
<glyph name="Zha.mlm" format="2">
  <advance width="987"/>
  <unicode hex="0D34"/>
  <outline>
    <contour>
      <point x="569" y="823" type="curve" smooth="yes"/>
      <point x="569" y="919" type="line" smooth="yes"/>
      <point x="569" y="1013"/>
      <point x="600" y="1059"/>
      <point x="661" y="1059" type="curve" smooth="yes"/>
      <point x="723" y="1059"/>
      <point x="751" y="1013"/>
      <point x="751" y="919" type="curve" smooth="yes"/>
      <point x="751" y="721" type="line" smooth="yes"/>
      <point x="751" y="536"/>
      <point x="673" y="446"/>
      <point x="500" y="446" type="curve" smooth="yes"/>
      <point x="317" y="446"/>
      <point x="238" y="537"/>
      <point x="238" y="726" type="curve" smooth="yes"/>
      <point x="238" y="855" type="line" smooth="yes"/>
      <point x="238" y="999"/>
      <point x="263" y="1111"/>
      <point x="306" y="1181" type="curve"/>
      <point x="144" y="1181" type="line"/>
      <point x="97" y="1108"/>
      <point x="73" y="996"/>
      <point x="73" y="854" type="curve" smooth="yes"/>
      <point x="73" y="727" type="line" smooth="yes"/>
      <point x="73" y="448"/>
      <point x="218" y="304"/>
      <point x="499" y="304" type="curve" smooth="yes"/>
      <point x="774" y="304"/>
      <point x="916" y="447"/>
      <point x="916" y="722" type="curve" smooth="yes"/>
      <point x="916" y="916" type="line" smooth="yes"/>
      <point x="916" y="1106"/>
      <point x="834" y="1208"/>
      <point x="662" y="1208" type="curve" smooth="yes"/>
      <point x="486" y="1208"/>
      <point x="404" y="1106"/>
      <point x="404" y="916" type="curve" smooth="yes"/>
      <point x="404" y="815" type="line" smooth="yes"/>
      <point x="404" y="650"/>
      <point x="445" y="513"/>
      <point x="481" y="392" type="curve"/>
      <point x="492" y="343" type="line" smooth="yes"/>
      <point x="500" y="305"/>
      <point x="503" y="269"/>
      <point x="503" y="232" type="curve" smooth="yes"/>
      <point x="503" y="153"/>
      <point x="466" y="112"/>
      <point x="376" y="112" type="curve" smooth="yes"/>
      <point x="331" y="112"/>
      <point x="286" y="120"/>
      <point x="243" y="131" type="curve"/>
      <point x="273" y="-11" type="line"/>
      <point x="315" y="-24"/>
      <point x="361" y="-31"/>
      <point x="408" y="-31" type="curve" smooth="yes"/>
      <point x="583" y="-31"/>
      <point x="667" y="53"/>
      <point x="667" y="217" type="curve" smooth="yes"/>
      <point x="667" y="267"/>
      <point x="659" y="315"/>
      <point x="647" y="364" type="curve" smooth="yes"/>
      <point x="632" y="426" type="line" smooth="yes"/>
      <point x="606" y="535"/>
      <point x="569" y="656"/>
    </contour>
  </outline>
</glyph>
<glyph name="Sha.mlm" format="2">
  <advance width="1400"/>
  <unicode hex="0D36"/>
  <outline>
    <contour>
      <point x="897" y="1057" type="curve" smooth="yes"/>
      <point x="1074" y="1057"/>
      <point x="1155" y="953"/>
      <point x="1155" y="729" type="curve" smooth="yes"/>
      <point x="1155" y="715" type="line"/>
      <point x="1130" y="715" type="line"/>
      <point x="1152" y="653" type="line"/>
      <point x="1152" y="271" type="line" smooth="yes"/>
      <point x="1152" y="174"/>
      <point x="1123" y="129"/>
      <point x="1058" y="129" type="curve" smooth="yes"/>
      <point x="995" y="129"/>
      <point x="965" y="174"/>
      <point x="965" y="271" type="curve" smooth="yes"/>
      <point x="965" y="546" type="line" smooth="yes"/>
      <point x="965" y="633"/>
      <point x="995" y="674"/>
      <point x="1060" y="674" type="curve" smooth="yes"/>
      <point x="1105" y="674"/>
      <point x="1136" y="656"/>
      <point x="1154" y="622" type="curve"/>
      <point x="1158" y="678" type="line"/>
      <point x="1142" y="771"/>
      <point x="1084" y="824"/>
      <point x="988" y="824" type="curve" smooth="yes"/>
      <point x="862" y="824"/>
      <point x="801" y="738"/>
      <point x="801" y="561" type="curve" smooth="yes"/>
      <point x="801" y="276" type="line" smooth="yes"/>
      <point x="801" y="82"/>
      <point x="885" y="-18"/>
      <point x="1058" y="-18" type="curve" smooth="yes"/>
      <point x="1230" y="-18"/>
      <point x="1315" y="82"/>
      <point x="1315" y="276" type="curve" smooth="yes"/>
      <point x="1315" y="735" type="line" smooth="yes"/>
      <point x="1315" y="1050"/>
      <point x="1174" y="1208"/>
      <point x="888" y="1208" type="curve" smooth="yes"/>
      <point x="603" y="1208"/>
      <point x="468" y="1055"/>
      <point x="468" y="745" type="curve" smooth="yes"/>
      <point x="468" y="623"/>
      <point x="489" y="427"/>
      <point x="489" y="304" type="curve" smooth="yes"/>
      <point x="489" y="187"/>
      <point x="455" y="134"/>
      <point x="374" y="134" type="curve" smooth="yes"/>
      <point x="292" y="134"/>
      <point x="257" y="187"/>
      <point x="257" y="304" type="curve" smooth="yes"/>
      <point x="257" y="786" type="line" smooth="yes"/>
      <point x="257" y="959"/>
      <point x="286" y="1097"/>
      <point x="336" y="1181" type="curve"/>
      <point x="169" y="1181" type="line"/>
      <point x="115" y="1091"/>
      <point x="89" y="956"/>
      <point x="89" y="784" type="curve" smooth="yes"/>
      <point x="89" y="306" type="line" smooth="yes"/>
      <point x="89" y="88"/>
      <point x="183" y="-21"/>
      <point x="374" y="-21" type="curve" smooth="yes"/>
      <point x="565" y="-21"/>
      <point x="657" y="88"/>
      <point x="657" y="306" type="curve" smooth="yes"/>
      <point x="657" y="428"/>
      <point x="636" y="623"/>
      <point x="636" y="742" type="curve" smooth="yes"/>
      <point x="636" y="960"/>
      <point x="718" y="1057"/>
    </contour>
  </outline>
</glyph>
<glyph name="Ssa.mlm" format="2">
  <advance width="1635"/>
  <unicode hex="0D37"/>
  <outline>
    <contour>
      <point x="354" y="799" type="curve" smooth="yes"/>
      <point x="167" y="799"/>
      <point x="77" y="690"/>
      <point x="77" y="482" type="curve" smooth="yes"/>
      <point x="77" y="283" type="line" smooth="yes"/>
      <point x="77" y="160"/>
      <point x="91" y="65"/>
      <point x="119" y="0" type="curve"/>
      <point x="285" y="0" type="line"/>
      <point x="259" y="63"/>
      <point x="243" y="157"/>
      <point x="243" y="281" type="curve" smooth="yes"/>
      <point x="243" y="483" type="line" smooth="yes"/>
      <point x="243" y="591"/>
      <point x="278" y="647"/>
      <point x="353" y="647" type="curve" smooth="yes"/>
      <point x="429" y="647"/>
      <point x="465" y="591"/>
      <point x="465" y="483" type="curve" smooth="yes"/>
      <point x="465" y="281" type="line" smooth="yes"/>
      <point x="465" y="163"/>
      <point x="448" y="72"/>
      <point x="417" y="10" type="curve"/>
      <point x="417" y="0" type="line"/>
      <point x="547" y="0" type="line"/>
      <point x="604" y="67"/>
      <point x="631" y="165"/>
      <point x="631" y="290" type="curve" smooth="yes"/>
      <point x="631" y="482" type="line" smooth="yes"/>
      <point x="631" y="690"/>
      <point x="541" y="799"/>
    </contour>
    <contour>
      <point x="448" y="0" type="line"/>
      <point x="1534" y="0" type="line"/>
      <point x="1534" y="1182" type="line"/>
      <point x="1366" y="1182" type="line"/>
      <point x="1366" y="135" type="line"/>
      <point x="547" y="135" type="line"/>
    </contour>
    <contour>
      <point x="1044" y="736" type="line" smooth="yes"/>
      <point x="1044" y="647"/>
      <point x="1028" y="569"/>
      <point x="994" y="461" type="curve" smooth="yes"/>
      <point x="992" y="455"/>
      <point x="969" y="395"/>
      <point x="967" y="389" type="curve" smooth="yes"/>
      <point x="872" y="104" type="line"/>
      <point x="1042" y="108" type="line"/>
      <point x="1131" y="375" type="line"/>
      <point x="1132" y="381"/>
      <point x="1151" y="445"/>
      <point x="1152" y="451" type="curve"/>
      <point x="1193" y="566"/>
      <point x="1208" y="656"/>
      <point x="1208" y="746" type="curve" smooth="yes"/>
      <point x="1208" y="933" type="line" smooth="yes"/>
      <point x="1208" y="1115"/>
      <point x="1128" y="1208"/>
      <point x="956" y="1208" type="curve" smooth="yes"/>
      <point x="783" y="1208"/>
      <point x="701" y="1112"/>
      <point x="701" y="926" type="curve" smooth="yes"/>
      <point x="701" y="740" type="line" smooth="yes"/>
      <point x="701" y="493"/>
      <point x="819" y="365"/>
      <point x="1056" y="365" type="curve" smooth="yes"/>
      <point x="1080" y="365" type="line" smooth="yes"/>
      <point x="1090" y="365"/>
      <point x="1110" y="365"/>
      <point x="1123" y="365" type="curve" smooth="yes"/>
      <point x="1226" y="365"/>
      <point x="1312" y="391"/>
      <point x="1388" y="442" type="curve"/>
      <point x="1386" y="588" type="line"/>
      <point x="1306" y="535"/>
      <point x="1231" y="508"/>
      <point x="1132" y="505" type="curve"/>
      <point x="1122" y="504"/>
      <point x="1111" y="504"/>
      <point x="1100" y="504" type="curve" smooth="yes"/>
      <point x="1066" y="504" type="line" smooth="yes"/>
      <point x="930" y="504"/>
      <point x="863" y="576"/>
      <point x="863" y="738" type="curve" smooth="yes"/>
      <point x="863" y="930" type="line" smooth="yes"/>
      <point x="863" y="1024"/>
      <point x="893" y="1065"/>
      <point x="955" y="1065" type="curve" smooth="yes"/>
      <point x="1017" y="1065"/>
      <point x="1044" y="1024"/>
      <point x="1044" y="930" type="curve" smooth="yes"/>
    </contour>
  </outline>
</glyph>
<glyph name="Sa.mlm" format="2">
  <advance width="1571"/>
  <unicode hex="0D38"/>
  <outline>
    <contour>
      <point x="89" y="862" type="curve" smooth="yes"/>
      <point x="89" y="395" type="line" smooth="yes"/>
      <point x="89" y="225"/>
      <point x="112" y="84"/>
      <point x="162" y="0" type="curve"/>
      <point x="332" y="0" type="line"/>
      <point x="284" y="85"/>
      <point x="257" y="221"/>
      <point x="257" y="393" type="curve" smooth="yes"/>
      <point x="257" y="863" type="line" smooth="yes"/>
      <point x="257" y="988"/>
      <point x="296" y="1048"/>
      <point x="385" y="1048" type="curve" smooth="yes"/>
      <point x="474" y="1048"/>
      <point x="513" y="988"/>
      <point x="513" y="863" type="curve" smooth="yes"/>
      <point x="513" y="645" type="line"/>
      <point x="594" y="639" type="line"/>
      <point x="595" y="1006" type="line"/>
      <point x="574" y="1138"/>
      <point x="499" y="1208"/>
      <point x="356" y="1208" type="curve" smooth="yes"/>
      <point x="173" y="1208"/>
      <point x="89" y="1093"/>
    </contour>
    <contour>
      <point x="513" y="762" type="line"/>
      <point x="513" y="3" type="line"/>
      <point x="681" y="3" type="line"/>
      <point x="681" y="762" type="line"/>
    </contour>
    <contour>
      <point x="806" y="1048" type="curve" smooth="yes"/>
      <point x="893" y="1048"/>
      <point x="929" y="992"/>
      <point x="929" y="870" type="curve" smooth="yes"/>
      <point x="929" y="696"/>
      <point x="905" y="485"/>
      <point x="905" y="310" type="curve" smooth="yes"/>
      <point x="905" y="89"/>
      <point x="999" y="-21"/>
      <point x="1193" y="-21" type="curve" smooth="yes"/>
      <point x="1387" y="-21"/>
      <point x="1482" y="89"/>
      <point x="1482" y="310" type="curve" smooth="yes"/>
      <point x="1482" y="784" type="line" smooth="yes"/>
      <point x="1482" y="956"/>
      <point x="1458" y="1091"/>
      <point x="1403" y="1181" type="curve"/>
      <point x="1236" y="1181" type="line"/>
      <point x="1285" y="1097"/>
      <point x="1314" y="959"/>
      <point x="1314" y="786" type="curve" smooth="yes"/>
      <point x="1314" y="308" type="line" smooth="yes"/>
      <point x="1314" y="189"/>
      <point x="1278" y="134"/>
      <point x="1193" y="134" type="curve" smooth="yes"/>
      <point x="1110" y="134"/>
      <point x="1073" y="189"/>
      <point x="1073" y="308" type="curve" smooth="yes"/>
      <point x="1073" y="483"/>
      <point x="1097" y="695"/>
      <point x="1097" y="870" type="curve" smooth="yes"/>
      <point x="1097" y="1097"/>
      <point x="1014" y="1208"/>
      <point x="834" y="1208" type="curve" smooth="yes"/>
      <point x="694" y="1208"/>
      <point x="617" y="1139"/>
      <point x="600" y="1006" type="curve"/>
      <point x="541" y="1006" type="line"/>
      <point x="534" y="683" type="line"/>
      <point x="681" y="645" type="line"/>
      <point x="681" y="866" type="line" smooth="yes"/>
      <point x="681" y="989"/>
      <point x="719" y="1048"/>
    </contour>
  </outline>
</glyph>
<glyph name="Ha.mlm" format="2">
  <advance width="1514"/>
  <unicode hex="0D39"/>
  <outline>
    <contour>
      <point x="354" y="799" type="curve" smooth="yes"/>
      <point x="167" y="799"/>
      <point x="77" y="690"/>
      <point x="77" y="482" type="curve" smooth="yes"/>
      <point x="77" y="283" type="line" smooth="yes"/>
      <point x="77" y="160"/>
      <point x="91" y="65"/>
      <point x="119" y="0" type="curve"/>
      <point x="285" y="0" type="line"/>
      <point x="259" y="63"/>
      <point x="243" y="157"/>
      <point x="243" y="281" type="curve" smooth="yes"/>
      <point x="243" y="483" type="line" smooth="yes"/>
      <point x="243" y="591"/>
      <point x="278" y="647"/>
      <point x="353" y="647" type="curve" smooth="yes"/>
      <point x="429" y="647"/>
      <point x="465" y="591"/>
      <point x="465" y="483" type="curve" smooth="yes"/>
      <point x="465" y="281" type="line" smooth="yes"/>
      <point x="465" y="163"/>
      <point x="448" y="72"/>
      <point x="417" y="10" type="curve"/>
      <point x="417" y="0" type="line"/>
      <point x="547" y="0" type="line"/>
      <point x="604" y="67"/>
      <point x="631" y="165"/>
      <point x="631" y="290" type="curve" smooth="yes"/>
      <point x="631" y="482" type="line" smooth="yes"/>
      <point x="631" y="690"/>
      <point x="541" y="799"/>
    </contour>
    <contour>
      <point x="569" y="136" type="line"/>
      <point x="420" y="0" type="line"/>
      <point x="1038" y="0" type="line"/>
      <point x="944" y="136" type="line"/>
    </contour>
    <contour>
      <point x="1116" y="1054" type="curve" smooth="yes"/>
      <point x="1214" y="1054"/>
      <point x="1257" y="988"/>
      <point x="1257" y="849" type="curve" smooth="yes"/>
      <point x="1257" y="389" type="line" smooth="yes"/>
      <point x="1257" y="219"/>
      <point x="1235" y="83"/>
      <point x="1198" y="0" type="curve"/>
      <point x="1367" y="0" type="line"/>
      <point x="1406" y="82"/>
      <point x="1425" y="221"/>
      <point x="1425" y="390" type="curve" smooth="yes"/>
      <point x="1425" y="847" type="line" smooth="yes"/>
      <point x="1425" y="1086"/>
      <point x="1324" y="1208"/>
      <point x="1116" y="1208" type="curve" smooth="yes"/>
      <point x="908" y="1208"/>
      <point x="808" y="1086"/>
      <point x="808" y="847" type="curve" smooth="yes"/>
      <point x="808" y="390" type="line" smooth="yes"/>
      <point x="808" y="218"/>
      <point x="834" y="83"/>
      <point x="891" y="0" type="curve"/>
      <point x="1038" y="0" type="line"/>
      <point x="1038" y="10" type="line"/>
      <point x="998" y="94"/>
      <point x="976" y="224"/>
      <point x="976" y="389" type="curve" smooth="yes"/>
      <point x="976" y="849" type="line" smooth="yes"/>
      <point x="976" y="988"/>
      <point x="1019" y="1054"/>
    </contour>
  </outline>
</glyph>
<glyph name="verticalbarviramasign.mlm" format="2">
  <unicode hex="0D3B"/>
  <outline>
    <contour>
      <point x="-469" y="1635" type="line"/>
      <point x="-469" y="1280" type="line"/>
      <point x="-317" y="1280" type="line"/>
      <point x="-317" y="1635" type="line"/>
    </contour>
  </outline>
</glyph>
<glyph name="circularviramasign.mlm" format="2">
  <unicode hex="0D3C"/>
  <outline>
    <contour>
      <point x="-212" y="1427" type="line" smooth="yes"/>
      <point x="-212" y="1291"/>
      <point x="-140" y="1220"/>
      <point x="-5" y="1220" type="curve" smooth="yes"/>
      <point x="130" y="1220"/>
      <point x="203" y="1291"/>
      <point x="203" y="1427" type="curve" smooth="yes"/>
      <point x="203" y="1446" type="line" smooth="yes"/>
      <point x="203" y="1583"/>
      <point x="130" y="1654"/>
      <point x="-5" y="1654" type="curve" smooth="yes"/>
      <point x="-140" y="1654"/>
      <point x="-212" y="1583"/>
      <point x="-212" y="1446" type="curve" smooth="yes"/>
    </contour>
    <contour>
      <point x="72" y="1425" type="line" smooth="yes"/>
      <point x="72" y="1366"/>
      <point x="46" y="1334"/>
      <point x="-5" y="1334" type="curve" smooth="yes"/>
      <point x="-55" y="1334"/>
      <point x="-81" y="1364"/>
      <point x="-81" y="1423" type="curve" smooth="yes"/>
      <point x="-81" y="1445" type="line" smooth="yes"/>
      <point x="-81" y="1505"/>
      <point x="-55" y="1539"/>
      <point x="-5" y="1539" type="curve" smooth="yes"/>
      <point x="46" y="1539"/>
      <point x="72" y="1508"/>
      <point x="72" y="1448" type="curve" smooth="yes"/>
    </contour>
  </outline>
</glyph>
<glyph name="Praslesham.mlm" format="2">
  <advance width="468"/>
  <unicode hex="0D3D"/>
  <outline>
    <contour>
      <point x="283" y="-30" type="curve" smooth="yes"/>
      <point x="349" y="1148" type="line" smooth="yes"/>
      <point x="356" y="1279"/>
      <point x="394" y="1339"/>
      <point x="484" y="1339" type="curve" smooth="yes"/>
      <point x="516" y="1339"/>
      <point x="547" y="1332"/>
      <point x="574" y="1318" type="curve"/>
      <point x="556" y="1460" type="line"/>
      <point x="525" y="1475"/>
      <point x="489" y="1483"/>
      <point x="445" y="1483" type="curve" smooth="yes"/>
      <point x="270" y="1483"/>
      <point x="196" y="1369"/>
      <point x="184" y="1152" type="curve" smooth="yes"/>
      <point x="118" y="-25" type="line" smooth="yes"/>
      <point x="111" y="-157"/>
      <point x="68" y="-217"/>
      <point x="-30" y="-217" type="curve" smooth="yes"/>
      <point x="-65" y="-217"/>
      <point x="-99" y="-210"/>
      <point x="-129" y="-194" type="curve"/>
      <point x="-111" y="-336" type="line"/>
      <point x="-78" y="-353"/>
      <point x="-38" y="-362"/>
      <point x="9" y="-362" type="curve" smooth="yes"/>
      <point x="192" y="-362"/>
      <point x="271" y="-247"/>
    </contour>
  </outline>
</glyph>
<glyph name="matraIi.mlm" format="2">
  <advance width="389"/>
  <unicode hex="0D40"/>
  <outline>
    <contour>
      <point x="-221" y="1352" type="line" smooth="yes"/>
      <point x="-221" y="1206.68"/>
      <point x="-154.294" y="1131"/>
      <point x="-32" y="1131" type="curve" smooth="yes"/>
      <point x="41.9933" y="1131"/>
      <point x="88.3624" y="1159.39"/>
      <point x="115" y="1224" type="curve"/>
      <point x="142" y="1224" type="line"/>
      <point x="129" y="1311" type="line"/>
      <point x="105" y="1278"/>
      <point x="76" y="1253"/>
      <point x="27" y="1253" type="curve" smooth="yes"/>
      <point x="-33" y="1253"/>
      <point x="-62" y="1290"/>
      <point x="-62" y="1364" type="curve" smooth="yes"/>
      <point x="-62" y="1399" type="line" smooth="yes"/>
      <point x="-62" y="1472"/>
      <point x="-30" y="1509"/>
      <point x="31" y="1509" type="curve" smooth="yes"/>
      <point x="95" y="1509"/>
      <point x="125" y="1470"/>
      <point x="125" y="1394" type="curve" smooth="yes"/>
      <point x="125" y="1293" type="line"/>
      <point x="120" y="1269" type="line"/>
      <point x="120" y="0" type="line"/>
      <point x="288" y="0" type="line"/>
      <point x="288" y="1385" type="line" smooth="yes"/>
      <point x="288" y="1554"/>
      <point x="197" y="1645"/>
      <point x="29" y="1645" type="curve" smooth="yes"/>
      <point x="-132" y="1645"/>
      <point x="-221" y="1557"/>
      <point x="-221" y="1393" type="curve" smooth="yes"/>
    </contour>
  </outline>
</glyph>
<glyph name="matraUu.mlm" format="2">
  <advance width="576"/>
  <unicode hex="0D42"/>
  <outline>
    <contour>
      <point x="278" y="81" type="curve" smooth="yes"/>
      <point x="227" y="81"/>
      <point x="183" y="101"/>
      <point x="157" y="140" type="curve"/>
      <point x="137" y="74" type="line"/>
      <point x="156" y="13" type="line"/>
      <point x="182" y="-25"/>
      <point x="228" y="-43"/>
      <point x="278" y="-43" type="curve" smooth="yes"/>
      <point x="327" y="-43"/>
      <point x="373" y="-25"/>
      <point x="399" y="13" type="curve"/>
      <point x="420" y="74" type="line"/>
      <point x="398" y="140" type="line"/>
      <point x="372" y="101"/>
      <point x="328" y="81"/>
    </contour>
    <contour>
      <point x="277" y="-194" type="curve" smooth="yes"/>
      <point x="206" y="-194"/>
      <point x="176" y="-150"/>
      <point x="176" y="-46" type="curve" smooth="yes"/>
      <point x="176" y="114" type="line" smooth="yes"/>
      <point x="176" y="216"/>
      <point x="206" y="260"/>
      <point x="277" y="260" type="curve" smooth="yes"/>
      <point x="348" y="260"/>
      <point x="379" y="216"/>
      <point x="379" y="114" type="curve" smooth="yes"/>
      <point x="379" y="-46" type="line" smooth="yes"/>
      <point x="379" y="-150"/>
      <point x="348" y="-194"/>
    </contour>
    <contour>
      <point x="275" y="390" type="curve" smooth="yes"/>
      <point x="113" y="390"/>
      <point x="33" y="302"/>
      <point x="33" y="104" type="curve" smooth="yes"/>
      <point x="33" y="-35" type="line" smooth="yes"/>
      <point x="33" y="-234"/>
      <point x="114" y="-322"/>
      <point x="277" y="-322" type="curve" smooth="yes"/>
      <point x="441" y="-322"/>
      <point x="522" y="-234"/>
      <point x="522" y="-35" type="curve" smooth="yes"/>
      <point x="522" y="104" type="line" smooth="yes"/>
      <point x="522" y="275"/>
      <point x="462" y="359"/>
      <point x="339" y="379" type="curve"/>
      <point x="319" y="384"/>
      <point x="299" y="390"/>
    </contour>
    <contour>
      <point x="486" y="856" type="curve" smooth="yes"/>
      <point x="486" y="884" type="line" smooth="yes"/>
      <point x="486" y="1103"/>
      <point x="403" y="1205"/>
      <point x="231" y="1205" type="curve" smooth="yes"/>
      <point x="173" y="1205"/>
      <point x="126" y="1194"/>
      <point x="86" y="1176" type="curve"/>
      <point x="67" y="1023" type="line"/>
      <point x="102" y="1042"/>
      <point x="142" y="1052"/>
      <point x="182" y="1052" type="curve" smooth="yes"/>
      <point x="278" y="1052"/>
      <point x="320" y="994"/>
      <point x="320" y="866" type="curve" smooth="yes"/>
      <point x="320" y="843" type="line" smooth="yes"/>
      <point x="320" y="648"/>
      <point x="262" y="480"/>
      <point x="197" y="354" type="curve"/>
      <point x="343" y="316" type="line"/>
      <point x="421" y="443"/>
      <point x="486" y="646"/>
    </contour>
  </outline>
</glyph>
<glyph name="matraRru.mlm" format="2">
  <advance width="424"/>
  <unicode hex="0D44"/>
  <outline>
    <contour>
      <point x="297" y="-123" type="line"/>
      <point x="292" y="-64"/>
      <point x="269" y="-18"/>
      <point x="208" y="-18" type="curve" smooth="yes"/>
      <point x="150" y="-18"/>
      <point x="116" y="-50"/>
      <point x="105" y="-117" type="curve"/>
      <point x="102" y="-117" type="line"/>
      <point x="89" y="-50"/>
      <point x="41" y="-18"/>
      <point x="-41" y="-18" type="curve" smooth="yes"/>
      <point x="-158" y="-18"/>
      <point x="-224" y="-86"/>
      <point x="-224" y="-206" type="curve" smooth="yes"/>
      <point x="-224" y="-218" type="line" smooth="yes"/>
      <point x="-224" y="-373"/>
      <point x="-116" y="-457"/>
      <point x="88" y="-457" type="curve" smooth="yes"/>
      <point x="309" y="-457"/>
      <point x="433" y="-362"/>
      <point x="433" y="-163" type="curve" smooth="yes"/>
      <point x="433" y="-141" type="line" smooth="yes"/>
      <point x="433" y="146"/>
      <point x="271" y="349"/>
      <point x="271" y="744" type="curve" smooth="yes"/>
      <point x="271" y="902"/>
      <point x="282" y="1035"/>
      <point x="309" y="1182" type="curve"/>
      <point x="148" y="1182" type="line"/>
      <point x="116" y="1037"/>
      <point x="105" y="902"/>
      <point x="105" y="744" type="curve" smooth="yes"/>
      <point x="105" y="358"/>
      <point x="238" y="154"/>
      <point x="281" y="-50" type="curve"/>
      <point x="271" y="-54" type="line"/>
      <point x="278" y="-123" type="line" smooth="yes"/>
      <point x="280" y="-139"/>
      <point x="279" y="-151"/>
      <point x="279" y="-169" type="curve" smooth="yes"/>
      <point x="279" y="-185" type="line" smooth="yes"/>
      <point x="279" y="-284"/>
      <point x="218" y="-335"/>
      <point x="90" y="-335" type="curve" smooth="yes"/>
      <point x="-22" y="-335"/>
      <point x="-78" y="-293"/>
      <point x="-78" y="-213" type="curve" smooth="yes"/>
      <point x="-78" y="-205" type="line" smooth="yes"/>
      <point x="-78" y="-160"/>
      <point x="-57" y="-136"/>
      <point x="-18" y="-136" type="curve" smooth="yes"/>
      <point x="23" y="-136"/>
      <point x="34" y="-163"/>
      <point x="37" y="-204" type="curve" smooth="yes"/>
      <point x="40" y="-252" type="line"/>
      <point x="166" y="-252" type="line"/>
      <point x="169" y="-204" type="line" smooth="yes"/>
      <point x="172" y="-162"/>
      <point x="183" y="-134"/>
      <point x="225" y="-134" type="curve" smooth="yes"/>
      <point x="257" y="-134"/>
      <point x="275" y="-147"/>
      <point x="282" y="-170" type="curve"/>
    </contour>
  </outline>
</glyph>
<glyph name="matraE.mlm" format="2">
  <advance width="674"/>
  <unicode hex="0D47"/>
  <outline>
    <contour>
      <point x="244" y="773" type="line"/>
      <point x="260" y="773" type="line"/>
      <point x="246" y="854" type="line"/>
      <point x="246" y="942" type="line" smooth="yes"/>
      <point x="246" y="1033"/>
      <point x="276" y="1077"/>
      <point x="346" y="1077" type="curve" smooth="yes"/>
      <point x="416" y="1077"/>
      <point x="446" y="1033"/>
      <point x="446" y="942" type="curve" smooth="yes"/>
      <point x="446" y="912" type="line" smooth="yes"/>
      <point x="446" y="828"/>
      <point x="418" y="785"/>
      <point x="352" y="785" type="curve" smooth="yes"/>
      <point x="301" y="785"/>
      <point x="264" y="815"/>
      <point x="244" y="871" type="curve"/>
      <point x="239" y="815" type="line"/>
      <point x="254" y="720"/>
      <point x="318" y="663"/>
      <point x="416" y="663" type="curve" smooth="yes"/>
      <point x="540" y="663"/>
      <point x="607" y="744"/>
      <point x="607" y="899" type="curve" smooth="yes"/>
      <point x="607" y="936" type="line" smooth="yes"/>
      <point x="607" y="1118"/>
      <point x="524" y="1215"/>
      <point x="348" y="1215" type="curve" smooth="yes"/>
      <point x="170" y="1215"/>
      <point x="86" y="1115"/>
      <point x="86" y="927" type="curve" smooth="yes"/>
      <point x="86" y="263" type="line" smooth="yes"/>
      <point x="86" y="76"/>
      <point x="171" y="-25"/>
      <point x="347" y="-25" type="curve" smooth="yes"/>
      <point x="524" y="-25"/>
      <point x="607" y="72"/>
      <point x="607" y="254" type="curve" smooth="yes"/>
      <point x="607" y="297" type="line" smooth="yes"/>
      <point x="607" y="457"/>
      <point x="540" y="539"/>
      <point x="417" y="539" type="curve" smooth="yes"/>
      <point x="315" y="539"/>
      <point x="256" y="478"/>
      <point x="239" y="376" type="curve"/>
      <point x="244" y="321" type="line"/>
      <point x="264" y="377"/>
      <point x="301" y="407"/>
      <point x="352" y="407" type="curve" smooth="yes"/>
      <point x="418" y="407"/>
      <point x="446" y="364"/>
      <point x="446" y="280" type="curve" smooth="yes"/>
      <point x="446" y="248" type="line" smooth="yes"/>
      <point x="446" y="158"/>
      <point x="416" y="113"/>
      <point x="346" y="113" type="curve" smooth="yes"/>
      <point x="277" y="113"/>
      <point x="246" y="158"/>
      <point x="246" y="248" type="curve" smooth="yes"/>
      <point x="246" y="343" type="line"/>
      <point x="260" y="420" type="line"/>
      <point x="244" y="420" type="line"/>
    </contour>
  </outline>
</glyph>
<glyph name="lengthAu.mlm" format="2">
  <advance width="1067"/>
  <unicode hex="0D57"/>
  <outline>
    <contour>
      <point x="497" y="137" type="curve" smooth="yes"/>
      <point x="417" y="137"/>
      <point x="341" y="148"/>
      <point x="278" y="165" type="curve"/>
      <point x="306" y="13" type="line"/>
      <point x="369" y="-4"/>
      <point x="451" y="-15"/>
      <point x="521" y="-15" type="curve" smooth="yes"/>
      <point x="830" y="-15"/>
      <point x="979" y="150"/>
      <point x="979" y="473" type="curve" smooth="yes"/>
      <point x="979" y="894" type="line" smooth="yes"/>
      <point x="979" y="1104"/>
      <point x="902" y="1208"/>
      <point x="737" y="1208" type="curve" smooth="yes"/>
      <point x="613" y="1208"/>
      <point x="547" y="1148"/>
      <point x="528" y="1030" type="curve"/>
      <point x="523" y="1030" type="line"/>
      <point x="505" y="1148"/>
      <point x="438" y="1208"/>
      <point x="316" y="1208" type="curve" smooth="yes"/>
      <point x="147" y="1208"/>
      <point x="75" y="1104"/>
      <point x="75" y="895" type="curve" smooth="yes"/>
      <point x="75" y="714" type="line" smooth="yes"/>
      <point x="75" y="601"/>
      <point x="87" y="511"/>
      <point x="112" y="451" type="curve"/>
      <point x="276" y="451" type="line"/>
      <point x="255" y="510"/>
      <point x="241" y="598"/>
      <point x="241" y="712" type="curve" smooth="yes"/>
      <point x="241" y="895" type="line" smooth="yes"/>
      <point x="241" y="1001"/>
      <point x="270" y="1048"/>
      <point x="341" y="1048" type="curve" smooth="yes"/>
      <point x="411" y="1048"/>
      <point x="440" y="1001"/>
      <point x="441" y="896" type="curve" smooth="yes"/>
      <point x="445" y="456" type="line"/>
      <point x="604" y="456" type="line"/>
      <point x="608" y="896" type="line" smooth="yes"/>
      <point x="609" y="1001"/>
      <point x="638" y="1048"/>
      <point x="709" y="1048" type="curve" smooth="yes"/>
      <point x="779" y="1048"/>
      <point x="811" y="1001"/>
      <point x="811" y="894" type="curve" smooth="yes"/>
      <point x="811" y="473" type="line" smooth="yes"/>
      <point x="811" y="248"/>
      <point x="711" y="137"/>
    </contour>
  </outline>
</glyph>
<glyph name="oneonehundredandsixtieth.mlm" format="2">
  <advance width="1582"/>
  <unicode hex="0D58"/>
  <outline>
    <contour>
      <point x="505" y="414" type="line"/>
      <point x="673" y="414" type="line"/>
      <point x="673" y="1176" type="line"/>
      <point x="505" y="1176" type="line"/>
    </contour>
    <contour>
      <point x="587" y="177" type="curve"/>
      <point x="607" y="541" type="line"/>
      <point x="505" y="535" type="line"/>
      <point x="505" y="322" type="line" smooth="yes"/>
      <point x="505" y="198"/>
      <point x="467" y="141"/>
      <point x="380" y="141" type="curve" smooth="yes"/>
      <point x="293" y="141"/>
      <point x="257" y="198"/>
      <point x="257" y="322" type="curve" smooth="yes"/>
      <point x="257" y="785" type="line" smooth="yes"/>
      <point x="257" y="958"/>
      <point x="286" y="1096"/>
      <point x="336" y="1180" type="curve"/>
      <point x="168" y="1180" type="line"/>
      <point x="114" y="1090"/>
      <point x="89" y="955"/>
      <point x="89" y="783" type="curve" smooth="yes"/>
      <point x="89" y="323" type="line" smooth="yes"/>
      <point x="89" y="92"/>
      <point x="170" y="-20"/>
      <point x="353" y="-20" type="curve" smooth="yes"/>
      <point x="491" y="-20"/>
      <point x="571" y="48"/>
    </contour>
    <contour>
      <point x="791" y="-20" type="curve" smooth="yes"/>
      <point x="906" y="-20"/>
      <point x="975" y="48"/>
      <point x="989" y="177" type="curve"/>
      <point x="1048" y="177" type="line"/>
      <point x="1056" y="499" type="line"/>
      <point x="908" y="537" type="line"/>
      <point x="908" y="320" type="line" smooth="yes"/>
      <point x="908" y="199"/>
      <point x="872" y="141"/>
      <point x="791" y="141" type="curve" smooth="yes"/>
      <point x="711" y="141"/>
      <point x="673" y="199"/>
      <point x="673" y="320" type="curve" smooth="yes"/>
      <point x="673" y="537" type="line"/>
      <point x="526" y="499" type="line"/>
      <point x="533" y="177" type="line"/>
      <point x="592" y="177" type="line"/>
      <point x="607" y="48"/>
      <point x="677" y="-20"/>
    </contour>
    <contour>
      <point x="1076" y="414" type="line"/>
      <point x="1076" y="1176" type="line"/>
      <point x="908" y="1176" type="line"/>
      <point x="908" y="414" type="line"/>
    </contour>
    <contour>
      <point x="1325" y="322" type="line" smooth="yes"/>
      <point x="1325" y="198"/>
      <point x="1289" y="141"/>
      <point x="1201" y="141" type="curve" smooth="yes"/>
      <point x="1115" y="141"/>
      <point x="1076" y="198"/>
      <point x="1076" y="322" type="curve" smooth="yes"/>
      <point x="1076" y="535" type="line"/>
      <point x="988" y="535" type="line"/>
      <point x="994" y="177" type="line"/>
      <point x="1010" y="48"/>
      <point x="1092" y="-20"/>
      <point x="1226" y="-20" type="curve" smooth="yes"/>
      <point x="1407" y="-20"/>
      <point x="1493" y="89"/>
      <point x="1493" y="312" type="curve" smooth="yes"/>
      <point x="1493" y="875" type="line" smooth="yes"/>
      <point x="1493" y="1286"/>
      <point x="1296" y="1502"/>
      <point x="889" y="1502" type="curve" smooth="yes"/>
      <point x="760" y="1502"/>
      <point x="640" y="1487"/>
      <point x="526" y="1453" type="curve"/>
      <point x="495" y="1306" type="line"/>
      <point x="610" y="1338"/>
      <point x="738" y="1357"/>
      <point x="873" y="1357" type="curve" smooth="yes"/>
      <point x="1192" y="1357"/>
      <point x="1325" y="1202"/>
      <point x="1325" y="875" type="curve" smooth="yes"/>
    </contour>
  </outline>
</glyph>
<glyph name="threeeightieths.mlm" format="2">
  <advance width="1426"/>
  <unicode hex="0D5A"/>
  <outline>
    <contour>
      <point x="385" y="1048" type="curve" smooth="yes"/>
      <point x="474" y="1048"/>
      <point x="513" y="988"/>
      <point x="513" y="864" type="curve" smooth="yes"/>
      <point x="513" y="645" type="line"/>
      <point x="593" y="645" type="line"/>
      <point x="599" y="993" type="line"/>
      <point x="582" y="1149"/>
      <point x="488" y="1208"/>
      <point x="356" y="1208" type="curve" smooth="yes"/>
      <point x="173" y="1208"/>
      <point x="89" y="1093"/>
      <point x="89" y="862" type="curve" smooth="yes"/>
      <point x="89" y="395" type="line" smooth="yes"/>
      <point x="89" y="225"/>
      <point x="112" y="84"/>
      <point x="162" y="0" type="curve"/>
      <point x="332" y="0" type="line"/>
      <point x="284" y="85"/>
      <point x="257" y="221"/>
      <point x="257" y="393" type="curve" smooth="yes"/>
      <point x="257" y="863" type="line" smooth="yes"/>
      <point x="257" y="988"/>
      <point x="296" y="1048"/>
    </contour>
    <contour>
      <point x="586" y="993" type="line"/>
      <point x="513" y="703" type="line"/>
      <point x="513" y="0" type="line"/>
      <point x="673" y="0" type="line"/>
      <point x="673" y="745" type="line" smooth="yes"/>
      <point x="673" y="959"/>
      <point x="746" y="1061"/>
      <point x="920" y="1061" type="curve" smooth="yes"/>
      <point x="1090" y="1061"/>
      <point x="1168" y="957"/>
      <point x="1168" y="745" type="curve" smooth="yes"/>
      <point x="1168" y="0" type="line"/>
      <point x="1329" y="0" type="line"/>
      <point x="1329" y="740" type="line" smooth="yes"/>
      <point x="1329" y="1049"/>
      <point x="1200" y="1208"/>
      <point x="929" y="1208" type="curve" smooth="yes"/>
      <point x="749" y="1208"/>
      <point x="640" y="1136"/>
      <point x="603" y="993" type="curve"/>
    </contour>
    <contour>
      <point x="596" y="134" type="line"/>
      <point x="530" y="0" type="line"/>
      <point x="1299" y="0" type="line"/>
      <point x="1300" y="134" type="line"/>
    </contour>
    <contour>
      <point x="1025.06" y="704" type="line" smooth="yes"/>
      <point x="1025.06" y="908.584"/>
      <point x="947.36" y="1009"/>
      <point x="789.059" y="1009" type="curve" smooth="yes"/>
      <point x="759.353" y="1009"/>
      <point x="717.646" y="1000.2"/>
      <point x="688.059" y="987" type="curve"/>
      <point x="649.059" y="863" type="line"/>
      <point x="682.15" y="886.2"/>
      <point x="713.173" y="892"/>
      <point x="740.059" y="892" type="curve" smooth="yes"/>
      <point x="824.433" y="892"/>
      <point x="863.059" y="832.961"/>
      <point x="863.059" y="704" type="curve" smooth="yes"/>
      <point x="863.059" y="681" type="line" smooth="yes"/>
      <point x="863.059" y="456.776"/>
      <point x="808.719" y="278.183"/>
      <point x="709.059" y="130" type="curve"/>
      <point x="866.059" y="109" type="line"/>
      <point x="967.711" y="248.366"/>
      <point x="1025.06" y="444.629"/>
      <point x="1025.06" y="679" type="curve" smooth="yes"/>
    </contour>
  </outline>
</glyph>
<glyph name="threetwentieths.mlm" format="2">
  <advance width="2443"/>
  <unicode hex="0D5D"/>
  <outline>
    <contour>
      <point x="245" y="414" type="line"/>
      <point x="413" y="414" type="line"/>
      <point x="413" y="1176" type="line"/>
      <point x="245" y="1176" type="line"/>
    </contour>
    <contour>
      <point x="129" y="-20" type="curve" smooth="yes"/>
      <point x="244" y="-20"/>
      <point x="313" y="48"/>
      <point x="327" y="177" type="curve"/>
      <point x="385" y="177" type="line"/>
      <point x="392" y="499" type="line"/>
      <point x="245" y="537" type="line"/>
      <point x="245" y="320" type="line" smooth="yes"/>
      <point x="245" y="193"/>
      <point x="201" y="133"/>
      <point x="104" y="133" type="curve" smooth="yes"/>
      <point x="71" y="133"/>
      <point x="38" y="138"/>
      <point x="5" y="146" type="curve"/>
      <point x="35" y="-7" type="line"/>
      <point x="68" y="-16"/>
      <point x="97" y="-20"/>
    </contour>
    <contour>
      <point x="914" y="1208" type="curve" smooth="yes"/>
      <point x="721" y="1208"/>
      <point x="626" y="1099"/>
      <point x="626" y="878" type="curve" smooth="yes"/>
      <point x="626" y="700"/>
      <point x="650" y="486"/>
      <point x="650" y="308" type="curve" smooth="yes"/>
      <point x="650" y="189"/>
      <point x="613" y="134"/>
      <point x="530" y="134" type="curve" smooth="yes"/>
      <point x="450" y="134"/>
      <point x="413" y="191"/>
      <point x="413" y="311" type="curve" smooth="yes"/>
      <point x="413" y="537" type="line"/>
      <point x="318" y="483" type="line"/>
      <point x="331" y="177" type="line"/>
      <point x="346" y="48"/>
      <point x="429" y="-20"/>
      <point x="558" y="-20" type="curve" smooth="yes"/>
      <point x="735" y="-20"/>
      <point x="818" y="88"/>
      <point x="818" y="310" type="curve" smooth="yes"/>
      <point x="818" y="489"/>
      <point x="794" y="703"/>
      <point x="794" y="880" type="curve" smooth="yes"/>
      <point x="794" y="1000"/>
      <point x="832" y="1054"/>
      <point x="914" y="1054" type="curve" smooth="yes"/>
      <point x="997" y="1054"/>
      <point x="1034" y="1000"/>
      <point x="1034" y="880" type="curve" smooth="yes"/>
      <point x="1034" y="703"/>
      <point x="1010" y="489"/>
      <point x="1010" y="310" type="curve" smooth="yes"/>
      <point x="1010" y="89"/>
      <point x="1106" y="-21"/>
      <point x="1298" y="-21" type="curve" smooth="yes"/>
      <point x="1491" y="-21"/>
      <point x="1585" y="89"/>
      <point x="1585" y="310" type="curve" smooth="yes"/>
      <point x="1585" y="489"/>
      <point x="1561" y="703"/>
      <point x="1561" y="880" type="curve" smooth="yes"/>
      <point x="1561" y="1000"/>
      <point x="1597" y="1054"/>
      <point x="1681" y="1054" type="curve" smooth="yes"/>
      <point x="1764" y="1054"/>
      <point x="1801" y="1000"/>
      <point x="1801" y="880" type="curve" smooth="yes"/>
      <point x="1801" y="703"/>
      <point x="1777" y="489"/>
      <point x="1777" y="310" type="curve" smooth="yes"/>
      <point x="1777" y="89"/>
      <point x="1871" y="-21"/>
      <point x="2065" y="-21" type="curve" smooth="yes"/>
      <point x="2260" y="-21"/>
      <point x="2354" y="89"/>
      <point x="2354" y="310" type="curve" smooth="yes"/>
      <point x="2354" y="784" type="line" smooth="yes"/>
      <point x="2354" y="956"/>
      <point x="2329" y="1091"/>
      <point x="2274" y="1181" type="curve"/>
      <point x="2108" y="1181" type="line"/>
      <point x="2157" y="1097"/>
      <point x="2186" y="959"/>
      <point x="2186" y="786" type="curve" smooth="yes"/>
      <point x="2186" y="308" type="line" smooth="yes"/>
      <point x="2186" y="189"/>
      <point x="2150" y="134"/>
      <point x="2066" y="134" type="curve" smooth="yes"/>
      <point x="1982" y="134"/>
      <point x="1945" y="189"/>
      <point x="1945" y="308" type="curve" smooth="yes"/>
      <point x="1945" y="486"/>
      <point x="1969" y="700"/>
      <point x="1969" y="878" type="curve" smooth="yes"/>
      <point x="1969" y="1099"/>
      <point x="1874" y="1208"/>
      <point x="1681" y="1208" type="curve" smooth="yes"/>
      <point x="1488" y="1208"/>
      <point x="1393" y="1099"/>
      <point x="1393" y="878" type="curve" smooth="yes"/>
      <point x="1393" y="700"/>
      <point x="1417" y="486"/>
      <point x="1417" y="308" type="curve" smooth="yes"/>
      <point x="1417" y="189"/>
      <point x="1381" y="134"/>
      <point x="1298" y="134" type="curve" smooth="yes"/>
      <point x="1215" y="134"/>
      <point x="1178" y="189"/>
      <point x="1178" y="308" type="curve" smooth="yes"/>
      <point x="1178" y="486"/>
      <point x="1202" y="700"/>
      <point x="1202" y="878" type="curve" smooth="yes"/>
      <point x="1202" y="1099"/>
      <point x="1107" y="1208"/>
    </contour>
  </outline>
</glyph>
<glyph name="onefifth.mlm" format="2">
  <advance width="1927"/>
  <unicode hex="0D5E"/>
  <outline>
    <contour>
      <point x="1426" y="1051" type="line"/>
      <point x="1570" y="1180" type="line"/>
      <point x="1036" y="1180" type="line"/>
      <point x="1120" y="1051" type="line"/>
    </contour>
    <contour>
      <point x="1628" y="766" type="curve" smooth="yes"/>
      <point x="1557" y="766"/>
      <point x="1526" y="815"/>
      <point x="1526" y="915" type="curve" smooth="yes"/>
      <point x="1526" y="957" type="line" smooth="yes"/>
      <point x="1526" y="1050"/>
      <point x="1542" y="1122"/>
      <point x="1570" y="1171" type="curve"/>
      <point x="1570" y="1180" type="line"/>
      <point x="1453" y="1180" type="line"/>
      <point x="1397" y="1125"/>
      <point x="1369" y="1043"/>
      <point x="1369" y="939" type="curve" smooth="yes"/>
      <point x="1369" y="908" type="line" smooth="yes"/>
      <point x="1369" y="714"/>
      <point x="1453" y="622"/>
      <point x="1627" y="622" type="curve" smooth="yes"/>
      <point x="1809" y="622"/>
      <point x="1889" y="714"/>
      <point x="1889" y="908" type="curve" smooth="yes"/>
      <point x="1889" y="952" type="line" smooth="yes"/>
      <point x="1889" y="1050"/>
      <point x="1869" y="1130"/>
      <point x="1840" y="1181" type="curve"/>
      <point x="1691" y="1181" type="line"/>
      <point x="1715" y="1131"/>
      <point x="1731" y="1056"/>
      <point x="1731" y="958" type="curve" smooth="yes"/>
      <point x="1731" y="915" type="line" smooth="yes"/>
      <point x="1731" y="815"/>
      <point x="1705" y="766"/>
    </contour>
    <contour>
      <point x="1081" y="918" type="line" smooth="yes"/>
      <point x="1081" y="816"/>
      <point x="1047" y="769"/>
      <point x="963" y="769" type="curve" smooth="yes"/>
      <point x="909" y="769" type="line"/>
      <point x="916" y="633" type="line"/>
      <point x="980" y="633" type="line" smooth="yes"/>
      <point x="1156" y="633"/>
      <point x="1238" y="721"/>
      <point x="1238" y="909" type="curve" smooth="yes"/>
      <point x="1238" y="939" type="line" smooth="yes"/>
      <point x="1238" y="1043"/>
      <point x="1211" y="1125"/>
      <point x="1154" y="1180" type="curve"/>
      <point x="1036" y="1180" type="line"/>
      <point x="1036" y="1171" type="line"/>
      <point x="1066" y="1122"/>
      <point x="1081" y="1050"/>
      <point x="1081" y="957" type="curve" smooth="yes"/>
    </contour>
    <contour>
      <point x="527" y="1056" type="curve" smooth="yes"/>
      <point x="704" y="1056"/>
      <point x="792" y="950"/>
      <point x="792" y="720" type="curve" smooth="yes"/>
      <point x="792" y="269" type="line" smooth="yes"/>
      <point x="792" y="174"/>
      <point x="762" y="128"/>
      <point x="699" y="128" type="curve" smooth="yes"/>
      <point x="636" y="128"/>
      <point x="606" y="174"/>
      <point x="606" y="269" type="curve" smooth="yes"/>
      <point x="606" y="490" type="line" smooth="yes"/>
      <point x="606" y="590"/>
      <point x="639" y="633"/>
      <point x="719" y="633" type="curve" smooth="yes"/>
      <point x="896" y="633" type="line"/>
      <point x="913" y="769" type="line"/>
      <point x="693" y="769" type="line" smooth="yes"/>
      <point x="525" y="769"/>
      <point x="443" y="681"/>
      <point x="443" y="491" type="curve" smooth="yes"/>
      <point x="443" y="274" type="line" smooth="yes"/>
      <point x="443" y="82"/>
      <point x="528" y="-18"/>
      <point x="697" y="-18" type="curve" smooth="yes"/>
      <point x="867" y="-18"/>
      <point x="954" y="82"/>
      <point x="954" y="274" type="curve" smooth="yes"/>
      <point x="954" y="712" type="line" smooth="yes"/>
      <point x="954" y="1039"/>
      <point x="812" y="1208"/>
      <point x="523" y="1208" type="curve" smooth="yes"/>
      <point x="228" y="1208"/>
      <point x="88" y="1039"/>
      <point x="88" y="711" type="curve" smooth="yes"/>
      <point x="88" y="395" type="line" smooth="yes"/>
      <point x="88" y="225"/>
      <point x="112" y="84"/>
      <point x="163" y="0" type="curve"/>
      <point x="335" y="0" type="line"/>
      <point x="285" y="85"/>
      <point x="256" y="221"/>
      <point x="256" y="393" type="curve" smooth="yes"/>
      <point x="256" y="711" type="line" smooth="yes"/>
      <point x="256" y="945"/>
      <point x="341" y="1056"/>
    </contour>
  </outline>
</glyph>
<glyph name="vowelRuu.mlm" format="2">
  <advance width="1234"/>
  <unicode hex="0D60"/>
  <outline>
    <contour>
      <point x="737" y="-169" type="line" smooth="yes"/>
      <point x="969" y="-169"/>
      <point x="1088" y="-83"/>
      <point x="1088" y="87" type="curve" smooth="yes"/>
      <point x="1088" y="205"/>
      <point x="1031" y="280"/>
      <point x="915" y="309" type="curve"/>
      <point x="915" y="322" type="line"/>
      <point x="723" y="381" type="line"/>
      <point x="511" y="381" type="line"/>
      <point x="320" y="321" type="line"/>
      <point x="320" y="309" type="line"/>
      <point x="204" y="280"/>
      <point x="146" y="205"/>
      <point x="146" y="87" type="curve" smooth="yes"/>
      <point x="146" y="-83"/>
      <point x="266" y="-169"/>
      <point x="497" y="-169" type="curve" smooth="yes"/>
    </contour>
    <contour>
      <point x="737" y="255" type="line" smooth="yes"/>
      <point x="876" y="255"/>
      <point x="941" y="209"/>
      <point x="941" y="106" type="curve" smooth="yes"/>
      <point x="941" y="6"/>
      <point x="871" y="-43"/>
      <point x="737" y="-43" type="curve" smooth="yes"/>
      <point x="497" y="-43" type="line" smooth="yes"/>
      <point x="363" y="-43"/>
      <point x="293" y="6"/>
      <point x="293" y="106" type="curve" smooth="yes"/>
      <point x="293" y="209"/>
      <point x="360" y="255"/>
      <point x="497" y="255" type="curve" smooth="yes"/>
    </contour>
    <contour>
      <point x="502" y="192" type="curve" smooth="yes"/>
      <point x="409" y="192"/>
      <point x="361" y="142"/>
      <point x="361" y="53" type="curve" smooth="yes"/>
      <point x="361" y="32" type="line"/>
      <point x="471" y="22" type="line"/>
      <point x="471" y="46" type="line" smooth="yes"/>
      <point x="471" y="83"/>
      <point x="487" y="101"/>
      <point x="518" y="101" type="curve" smooth="yes"/>
      <point x="548" y="101"/>
      <point x="561.626" y="82.9865"/>
      <point x="563" y="50" type="curve" smooth="yes"/>
      <point x="564" y="26" type="line"/>
      <point x="671" y="26" type="line"/>
      <point x="672" y="50" type="line" smooth="yes"/>
      <point x="673.375" y="82.9865"/>
      <point x="686" y="102"/>
      <point x="717" y="102" type="curve" smooth="yes"/>
      <point x="747" y="102"/>
      <point x="764" y="83"/>
      <point x="764" y="46" type="curve" smooth="yes"/>
      <point x="764" y="22" type="line"/>
      <point x="874" y="32" type="line"/>
      <point x="874" y="54" type="line" smooth="yes"/>
      <point x="874" y="143"/>
      <point x="828" y="192"/>
      <point x="733" y="192" type="curve" smooth="yes"/>
      <point x="668" y="192"/>
      <point x="629" y="167"/>
      <point x="619" y="120" type="curve"/>
      <point x="616" y="120" type="line"/>
      <point x="607" y="167"/>
      <point x="568" y="192"/>
    </contour>
    <contour>
      <point x="1004" y="667" type="line"/>
      <point x="1004" y="490"/>
      <point x="903" y="381"/>
      <point x="691" y="381" type="curve"/>
      <point x="850" y="290" type="line"/>
      <point x="874" y="296"/>
      <point x="893" y="308"/>
      <point x="915" y="313" type="curve" smooth="yes"/>
      <point x="1078" y="350"/>
      <point x="1156" y="493"/>
      <point x="1156" y="679" type="curve" smooth="yes"/>
      <point x="1156" y="931" type="line" smooth="yes"/>
      <point x="1156" y="1115"/>
      <point x="1075" y="1208"/>
      <point x="911" y="1208" type="curve" smooth="yes"/>
      <point x="748" y="1208"/>
      <point x="672" y="1115"/>
      <point x="672" y="933" type="curve" smooth="yes"/>
      <point x="672" y="773" type="line" smooth="yes"/>
      <point x="672" y="625"/>
      <point x="734" y="551"/>
      <point x="846" y="551" type="curve" smooth="yes"/>
      <point x="938" y="551"/>
      <point x="991" y="602"/>
      <point x="1007" y="709" type="curve"/>
      <point x="1002" y="756" type="line"/>
      <point x="985" y="704"/>
      <point x="953" y="678"/>
      <point x="907" y="678" type="curve" smooth="yes"/>
      <point x="851" y="678"/>
      <point x="826" y="715"/>
      <point x="826" y="791" type="curve" smooth="yes"/>
      <point x="826" y="934" type="line" smooth="yes"/>
      <point x="826" y="1022"/>
      <point x="854" y="1062"/>
      <point x="912" y="1062" type="curve" smooth="yes"/>
      <point x="972" y="1062"/>
      <point x="1001" y="1022"/>
      <point x="1001" y="934" type="curve" smooth="yes"/>
      <point x="1001" y="740" type="line"/>
      <point x="988" y="669" type="line"/>
      <point x="1004" y="669" type="line"/>
    </contour>
    <contour>
      <point x="543" y="381" type="line"/>
      <point x="331" y="381"/>
      <point x="230" y="490"/>
      <point x="230" y="667" type="curve"/>
      <point x="230" y="669" type="line"/>
      <point x="241" y="669" type="line"/>
      <point x="233" y="740" type="line"/>
      <point x="233" y="934" type="line" smooth="yes"/>
      <point x="233" y="1022"/>
      <point x="261" y="1062"/>
      <point x="322" y="1062" type="curve" smooth="yes"/>
      <point x="381" y="1062"/>
      <point x="408" y="1022"/>
      <point x="408" y="934" type="curve" smooth="yes"/>
      <point x="408" y="791" type="line" smooth="yes"/>
      <point x="408" y="715"/>
      <point x="383" y="678"/>
      <point x="327" y="678" type="curve" smooth="yes"/>
      <point x="282" y="678"/>
      <point x="250" y="704"/>
      <point x="231" y="756" type="curve"/>
      <point x="226" y="712" type="line"/>
      <point x="243" y="603"/>
      <point x="295" y="551"/>
      <point x="388" y="551" type="curve" smooth="yes"/>
      <point x="500" y="551"/>
      <point x="562" y="625"/>
      <point x="562" y="773" type="curve" smooth="yes"/>
      <point x="562" y="933" type="line" smooth="yes"/>
      <point x="562" y="1115"/>
      <point x="487" y="1208"/>
      <point x="323" y="1208" type="curve" smooth="yes"/>
      <point x="160" y="1208"/>
      <point x="78" y="1115"/>
      <point x="78" y="931" type="curve" smooth="yes"/>
      <point x="78" y="679" type="line" smooth="yes"/>
      <point x="78" y="493"/>
      <point x="158" y="350"/>
      <point x="320" y="313" type="curve" smooth="yes"/>
      <point x="342" y="308"/>
      <point x="362" y="296"/>
      <point x="385" y="290" type="curve"/>
    </contour>
  </outline>
</glyph>
<glyph name="vowelLruu.mlm" format="2">
  <advance width="2020"/>
  <unicode hex="0D61"/>
  <outline>
    <contour>
      <point x="1552" y="776" type="line"/>
      <point x="1707" y="767"/>
      <point x="1777" y="673"/>
      <point x="1777" y="462" type="curve" smooth="yes"/>
      <point x="1777" y="244" type="line" smooth="yes"/>
      <point x="1777" y="-17"/>
      <point x="1686" y="-139"/>
      <point x="1436" y="-139" type="curve" smooth="yes"/>
      <point x="1341" y="-139"/>
      <point x="1261" y="-125"/>
      <point x="1186" y="-102" type="curve"/>
      <point x="1219" y="-245" type="line"/>
      <point x="1292" y="-267"/>
      <point x="1373" y="-280"/>
      <point x="1455" y="-280" type="curve" smooth="yes"/>
      <point x="1795" y="-280"/>
      <point x="1941" y="-114"/>
      <point x="1941" y="240" type="curve" smooth="yes"/>
      <point x="1941" y="462" type="line" smooth="yes"/>
      <point x="1941" y="740"/>
      <point x="1820" y="895"/>
      <point x="1563" y="909" type="curve"/>
    </contour>
    <contour>
      <point x="1184" y="1056" type="curve" smooth="yes"/>
      <point x="1319" y="1056"/>
      <point x="1403" y="999"/>
      <point x="1433" y="878" type="curve"/>
      <point x="1443" y="830" type="line"/>
      <point x="1444" y="801"/>
      <point x="1444" y="778"/>
      <point x="1444" y="747" type="curve" smooth="yes"/>
      <point x="1444" y="312" type="line" smooth="yes"/>
      <point x="1444" y="221"/>
      <point x="1417" y="176"/>
      <point x="1350" y="176" type="curve" smooth="yes"/>
      <point x="1288" y="176"/>
      <point x="1259" y="221"/>
      <point x="1259" y="312" type="curve" smooth="yes"/>
      <point x="1259" y="504" type="line" smooth="yes"/>
      <point x="1259" y="675"/>
      <point x="1326" y="767"/>
      <point x="1467" y="767" type="curve" smooth="yes"/>
      <point x="1479" y="767"/>
      <point x="1495" y="767"/>
      <point x="1507" y="767" type="curve"/>
      <point x="1504" y="905" type="line"/>
      <point x="1490" y="905"/>
      <point x="1473" y="905"/>
      <point x="1457" y="905" type="curve" smooth="yes"/>
      <point x="1219" y="905"/>
      <point x="1095" y="762"/>
      <point x="1095" y="501" type="curve" smooth="yes"/>
      <point x="1095" y="317" type="line" smooth="yes"/>
      <point x="1095" y="129"/>
      <point x="1179" y="30"/>
      <point x="1348" y="30" type="curve" smooth="yes"/>
      <point x="1521" y="30"/>
      <point x="1607" y="129"/>
      <point x="1607" y="317" type="curve" smooth="yes"/>
      <point x="1607" y="740" type="line" smooth="yes"/>
      <point x="1607" y="771"/>
      <point x="1605" y="800"/>
      <point x="1602" y="827" type="curve"/>
      <point x="1594" y="879" type="line" smooth="yes"/>
      <point x="1557" y="1097"/>
      <point x="1424" y="1208"/>
      <point x="1194" y="1208" type="curve" smooth="yes"/>
      <point x="994" y="1208"/>
      <point x="880" y="1126"/>
      <point x="851" y="972" type="curve"/>
      <point x="815" y="972" type="line"/>
      <point x="820" y="633" type="line"/>
      <point x="932" y="633" type="line"/>
      <point x="932" y="788" type="line" smooth="yes"/>
      <point x="932" y="969"/>
      <point x="1016" y="1056"/>
    </contour>
    <contour>
      <point x="502" y="1208" type="curve" smooth="yes"/>
      <point x="222" y="1208"/>
      <point x="86" y="1045"/>
      <point x="86" y="730" type="curve" smooth="yes"/>
      <point x="86" y="276" type="line" smooth="yes"/>
      <point x="86" y="82"/>
      <point x="172" y="-18"/>
      <point x="344" y="-18" type="curve" smooth="yes"/>
      <point x="516" y="-18"/>
      <point x="601" y="82"/>
      <point x="601" y="276" type="curve" smooth="yes"/>
      <point x="601" y="559" type="line" smooth="yes"/>
      <point x="601" y="730"/>
      <point x="541" y="813"/>
      <point x="421" y="813" type="curve" smooth="yes"/>
      <point x="318" y="813"/>
      <point x="260" y="748"/>
      <point x="243" y="633" type="curve"/>
      <point x="248" y="576" type="line"/>
      <point x="267" y="634"/>
      <point x="299" y="663"/>
      <point x="349" y="663" type="curve" smooth="yes"/>
      <point x="409" y="663"/>
      <point x="437" y="622"/>
      <point x="437" y="535" type="curve" smooth="yes"/>
      <point x="437" y="271" type="line" smooth="yes"/>
      <point x="437" y="174"/>
      <point x="409" y="129"/>
      <point x="344" y="129" type="curve" smooth="yes"/>
      <point x="280" y="129"/>
      <point x="249" y="174"/>
      <point x="249" y="271" type="curve" smooth="yes"/>
      <point x="249" y="597" type="line"/>
      <point x="260" y="681" type="line"/>
      <point x="247" y="681" type="line"/>
      <point x="247" y="726" type="line" smooth="yes"/>
      <point x="247" y="951"/>
      <point x="331" y="1056"/>
      <point x="512" y="1056" type="curve" smooth="yes"/>
      <point x="682" y="1056"/>
      <point x="764" y="972"/>
      <point x="764" y="797" type="curve" smooth="yes"/>
      <point x="764" y="635" type="line"/>
      <point x="843" y="635" type="line"/>
      <point x="846" y="972" type="line"/>
      <point x="817" y="1127"/>
      <point x="701" y="1208"/>
    </contour>
    <contour>
      <point x="764" y="3" type="line"/>
      <point x="932" y="3" type="line"/>
      <point x="932" y="771" type="line"/>
      <point x="764" y="738" type="line"/>
    </contour>
  </outline>
</glyph>
<glyph name="uni0D62" format="2">
  <unicode hex="0D62"/>
  <outline>
    <contour>
      <point x="-623" y="-468" type="line"/>
      <point x="-499" y="-468" type="line"/>
      <point x="-499" y="-142" type="line"/>
      <point x="-623" y="-167" type="line"/>
    </contour>
    <contour>
      <point x="-798" y="72" type="curve" smooth="yes"/>
      <point x="-990" y="72"/>
      <point x="-1092" y="-23"/>
      <point x="-1092" y="-213" type="curve" smooth="yes"/>
      <point x="-1092" y="-307" type="line" smooth="yes"/>
      <point x="-1092" y="-424"/>
      <point x="-1028" y="-482"/>
      <point x="-910" y="-482" type="curve" smooth="yes"/>
      <point x="-790" y="-482"/>
      <point x="-729" y="-425"/>
      <point x="-729" y="-316" type="curve" smooth="yes"/>
      <point x="-729" y="-272" type="line" smooth="yes"/>
      <point x="-729" y="-172"/>
      <point x="-774" y="-120"/>
      <point x="-855" y="-120" type="curve" smooth="yes"/>
      <point x="-924" y="-120"/>
      <point x="-966" y="-158"/>
      <point x="-980" y="-227" type="curve"/>
      <point x="-973" y="-263" type="line"/>
      <point x="-964" y="-233"/>
      <point x="-937" y="-217"/>
      <point x="-907" y="-217" type="curve" smooth="yes"/>
      <point x="-867" y="-217"/>
      <point x="-850" y="-241"/>
      <point x="-850" y="-287" type="curve" smooth="yes"/>
      <point x="-850" y="-313" type="line" smooth="yes"/>
      <point x="-850" y="-359"/>
      <point x="-870" y="-383"/>
      <point x="-910" y="-383" type="curve" smooth="yes"/>
      <point x="-952" y="-383"/>
      <point x="-971" y="-359"/>
      <point x="-971" y="-312" type="curve" smooth="yes"/>
      <point x="-971" y="-230" type="line"/>
      <point x="-963" y="-197" type="line"/>
      <point x="-975" y="-197" type="line"/>
      <point x="-975" y="-87"/>
      <point x="-913" y="-31"/>
      <point x="-800" y="-31" type="curve" smooth="yes"/>
      <point x="-681" y="-31"/>
      <point x="-623" y="-82"/>
      <point x="-623" y="-187" type="curve" smooth="yes"/>
      <point x="-623" y="-224" type="line"/>
      <point x="-546" y="-211" type="line"/>
      <point x="-563" y="-61" type="line"/>
      <point x="-590" y="27"/>
      <point x="-673" y="72"/>
    </contour>
    <contour>
      <point x="-323" y="72" type="curve" smooth="yes"/>
      <point x="-447" y="72"/>
      <point x="-532" y="27"/>
      <point x="-558" y="-61" type="curve"/>
      <point x="-591" y="-61" type="line"/>
      <point x="-580" y="-222" type="line"/>
      <point x="-499" y="-224" type="line"/>
      <point x="-499" y="-187" type="line" smooth="yes"/>
      <point x="-499" y="-82"/>
      <point x="-441" y="-31"/>
      <point x="-322" y="-31" type="curve" smooth="yes"/>
      <point x="-209" y="-31"/>
      <point x="-147" y="-87"/>
      <point x="-147" y="-197" type="curve"/>
      <point x="-159" y="-197" type="line"/>
      <point x="-151" y="-230" type="line"/>
      <point x="-151" y="-312" type="line" smooth="yes"/>
      <point x="-151" y="-359"/>
      <point x="-170" y="-383"/>
      <point x="-212" y="-383" type="curve" smooth="yes"/>
      <point x="-252" y="-383"/>
      <point x="-272" y="-359"/>
      <point x="-272" y="-313" type="curve" smooth="yes"/>
      <point x="-272" y="-287" type="line" smooth="yes"/>
      <point x="-272" y="-241"/>
      <point x="-255" y="-217"/>
      <point x="-215" y="-217" type="curve" smooth="yes"/>
      <point x="-185" y="-217"/>
      <point x="-158" y="-233"/>
      <point x="-149" y="-263" type="curve"/>
      <point x="-142" y="-227" type="line"/>
      <point x="-156" y="-158"/>
      <point x="-198" y="-120"/>
      <point x="-267" y="-120" type="curve" smooth="yes"/>
      <point x="-348" y="-120"/>
      <point x="-393" y="-172"/>
      <point x="-393" y="-272" type="curve" smooth="yes"/>
      <point x="-393" y="-316" type="line" smooth="yes"/>
      <point x="-393" y="-425"/>
      <point x="-332" y="-482"/>
      <point x="-212" y="-482" type="curve" smooth="yes"/>
      <point x="-94" y="-482"/>
      <point x="-30" y="-424"/>
      <point x="-30" y="-307" type="curve" smooth="yes"/>
      <point x="-30" y="-213" type="line" smooth="yes"/>
      <point x="-30" y="-23"/>
      <point x="-132" y="72"/>
    </contour>
  </outline>
</glyph>
<glyph name="uni0D63" format="2">
  <unicode hex="0D63"/>
  <outline>
    <contour>
      <point x="-79" y="-72" type="curve"/>
      <point x="-86" y="-165" type="line"/>
      <point x="5" y="-171"/>
      <point x="47" y="-214"/>
      <point x="47" y="-311" type="curve" smooth="yes"/>
      <point x="47" y="-322" type="line" smooth="yes"/>
      <point x="47" y="-439"/>
      <point x="-13" y="-498"/>
      <point x="-173" y="-498" type="curve" smooth="yes"/>
      <point x="-239" y="-498"/>
      <point x="-291" y="-491"/>
      <point x="-339" y="-480" type="curve"/>
      <point x="-313" y="-574" type="line"/>
      <point x="-265" y="-585"/>
      <point x="-212" y="-593"/>
      <point x="-158" y="-593" type="curve" smooth="yes"/>
      <point x="66" y="-593"/>
      <point x="167" y="-506"/>
      <point x="167" y="-333" type="curve" smooth="yes"/>
      <point x="167" y="-317" type="line" smooth="yes"/>
      <point x="167" y="-169"/>
      <point x="84" y="-80"/>
    </contour>
    <contour>
      <point x="-328" y="-29" type="curve" smooth="yes"/>
      <point x="-250" y="-29"/>
      <point x="-199" y="-51"/>
      <point x="-174" y="-97" type="curve"/>
      <point x="-168" y="-115" type="line"/>
      <point x="-164" y="-141"/>
      <point x="-162" y="-163"/>
      <point x="-162" y="-194" type="curve" smooth="yes"/>
      <point x="-162" y="-257" type="line" smooth="yes"/>
      <point x="-162" y="-300"/>
      <point x="-181" y="-326"/>
      <point x="-222" y="-326" type="curve" smooth="yes"/>
      <point x="-265" y="-326"/>
      <point x="-284" y="-303"/>
      <point x="-284" y="-261" type="curve" smooth="yes"/>
      <point x="-284" y="-247" type="line" smooth="yes"/>
      <point x="-284" y="-190"/>
      <point x="-253" y="-157"/>
      <point x="-176" y="-156" type="curve" smooth="yes"/>
      <point x="-158" y="-156"/>
      <point x="-137" y="-157"/>
      <point x="-127" y="-159" type="curve"/>
      <point x="-132" y="-71" type="line"/>
      <point x="-145" y="-70"/>
      <point x="-169" y="-69"/>
      <point x="-192" y="-69" type="curve" smooth="yes"/>
      <point x="-334" y="-70"/>
      <point x="-403" y="-135"/>
      <point x="-403" y="-248" type="curve" smooth="yes"/>
      <point x="-403" y="-262" type="line" smooth="yes"/>
      <point x="-403" y="-365"/>
      <point x="-342" y="-421"/>
      <point x="-221" y="-421" type="curve" smooth="yes"/>
      <point x="-104" y="-421"/>
      <point x="-44" y="-364"/>
      <point x="-44" y="-256" type="curve" smooth="yes"/>
      <point x="-44" y="-192" type="line" smooth="yes"/>
      <point x="-44" y="-167"/>
      <point x="-46" y="-141"/>
      <point x="-52" y="-119" type="curve"/>
      <point x="-55" y="-105" type="line" smooth="yes"/>
      <point x="-80" y="11"/>
      <point x="-179" y="72"/>
      <point x="-325" y="72" type="curve" smooth="yes"/>
      <point x="-442" y="72"/>
      <point x="-529" y="34"/>
      <point x="-559" y="-61" type="curve"/>
      <point x="-576" y="-61" type="line"/>
      <point x="-567" y="-196" type="line"/>
      <point x="-499" y="-225" type="line"/>
      <point x="-499" y="-195" type="line" smooth="yes"/>
      <point x="-499" y="-83"/>
      <point x="-442" y="-29"/>
    </contour>
    <contour>
      <point x="-623" y="-468" type="line"/>
      <point x="-499" y="-468" type="line"/>
      <point x="-499" y="-142" type="line"/>
      <point x="-623" y="-167" type="line"/>
    </contour>
    <contour>
      <point x="-798" y="72" type="curve" smooth="yes"/>
      <point x="-990" y="72"/>
      <point x="-1092" y="-23"/>
      <point x="-1092" y="-213" type="curve" smooth="yes"/>
      <point x="-1092" y="-307" type="line" smooth="yes"/>
      <point x="-1092" y="-424"/>
      <point x="-1028" y="-482"/>
      <point x="-910" y="-482" type="curve" smooth="yes"/>
      <point x="-790" y="-482"/>
      <point x="-729" y="-425"/>
      <point x="-729" y="-316" type="curve" smooth="yes"/>
      <point x="-729" y="-272" type="line" smooth="yes"/>
      <point x="-729" y="-172"/>
      <point x="-774" y="-120"/>
      <point x="-855" y="-120" type="curve" smooth="yes"/>
      <point x="-924" y="-120"/>
      <point x="-966" y="-158"/>
      <point x="-980" y="-227" type="curve"/>
      <point x="-973" y="-263" type="line"/>
      <point x="-964" y="-233"/>
      <point x="-937" y="-217"/>
      <point x="-907" y="-217" type="curve" smooth="yes"/>
      <point x="-867" y="-217"/>
      <point x="-850" y="-241"/>
      <point x="-850" y="-287" type="curve" smooth="yes"/>
      <point x="-850" y="-313" type="line" smooth="yes"/>
      <point x="-850" y="-359"/>
      <point x="-870" y="-383"/>
      <point x="-910" y="-383" type="curve" smooth="yes"/>
      <point x="-952" y="-383"/>
      <point x="-971" y="-359"/>
      <point x="-971" y="-312" type="curve" smooth="yes"/>
      <point x="-971" y="-230" type="line"/>
      <point x="-963" y="-197" type="line"/>
      <point x="-975" y="-197" type="line"/>
      <point x="-975" y="-87"/>
      <point x="-913" y="-31"/>
      <point x="-800" y="-31" type="curve" smooth="yes"/>
      <point x="-681" y="-31"/>
      <point x="-623" y="-82"/>
      <point x="-623" y="-187" type="curve" smooth="yes"/>
      <point x="-623" y="-224" type="line"/>
      <point x="-546" y="-211" type="line"/>
      <point x="-563" y="-61" type="line"/>
      <point x="-590" y="27"/>
      <point x="-673" y="72"/>
    </contour>
  </outline>
</glyph>
<glyph name="four.mlm" format="2">
  <advance width="1057"/>
  <unicode hex="0D6A"/>
  <outline>
    <contour>
      <point x="449" y="571" type="curve" smooth="yes"/>
      <point x="449" y="275" type="line" smooth="yes"/>
      <point x="449" y="82"/>
      <point x="534" y="-19"/>
      <point x="709" y="-19" type="curve" smooth="yes"/>
      <point x="886" y="-19"/>
      <point x="972" y="82"/>
      <point x="972" y="275" type="curve" smooth="yes"/>
      <point x="972" y="708" type="line" smooth="yes"/>
      <point x="972" y="881"/>
      <point x="932" y="1010"/>
      <point x="847" y="1094" type="curve"/>
      <point x="793" y="1134" type="line" smooth="yes"/>
      <point x="725" y="1183"/>
      <point x="642" y="1208"/>
      <point x="533" y="1208" type="curve" smooth="yes"/>
      <point x="231" y="1208"/>
      <point x="88" y="1039"/>
      <point x="88" y="710" type="curve" smooth="yes"/>
      <point x="88" y="395" type="line" smooth="yes"/>
      <point x="88" y="225"/>
      <point x="112" y="84"/>
      <point x="164" y="0" type="curve"/>
      <point x="335" y="0" type="line"/>
      <point x="285" y="85"/>
      <point x="256" y="221"/>
      <point x="256" y="393" type="curve" smooth="yes"/>
      <point x="256" y="710" type="line" smooth="yes"/>
      <point x="256" y="948"/>
      <point x="342" y="1060"/>
      <point x="533" y="1060" type="curve" smooth="yes"/>
      <point x="598" y="1060"/>
      <point x="650" y="1047"/>
      <point x="691" y="1018" type="curve"/>
      <point x="737" y="978" type="line"/>
      <point x="783" y="920"/>
      <point x="806" y="831"/>
      <point x="806" y="708" type="curve" smooth="yes"/>
      <point x="806" y="269" type="line" smooth="yes"/>
      <point x="806" y="173"/>
      <point x="776" y="128"/>
      <point x="710" y="128" type="curve" smooth="yes"/>
      <point x="646" y="128"/>
      <point x="614" y="173"/>
      <point x="614" y="269" type="curve" smooth="yes"/>
      <point x="614" y="570" type="line" smooth="yes"/>
      <point x="614" y="789"/>
      <point x="652" y="887"/>
      <point x="787" y="981" type="curve"/>
      <point x="827" y="1026" type="line"/>
      <point x="919" y="1097"/>
      <point x="966" y="1186"/>
      <point x="966" y="1298" type="curve" smooth="yes"/>
      <point x="966" y="1375"/>
      <point x="951" y="1430"/>
      <point x="923" y="1488" type="curve"/>
      <point x="774" y="1488" type="line"/>
      <point x="803" y="1430"/>
      <point x="816" y="1369"/>
      <point x="816" y="1301" type="curve" smooth="yes"/>
      <point x="816" y="1227"/>
      <point x="786" y="1157"/>
      <point x="726" y="1109" type="curve"/>
      <point x="691" y="1067" type="line"/>
      <point x="514" y="962"/>
      <point x="449" y="853"/>
    </contour>
  </outline>
</glyph>
<glyph name="five.mlm" format="2">
  <advance width="1504"/>
  <unicode hex="0D6B"/>
  <outline>
    <contour>
      <point x="1252" y="692" type="curve" smooth="yes"/>
      <point x="1252" y="398" type="line" smooth="yes"/>
      <point x="1252" y="223"/>
      <point x="1231" y="88"/>
      <point x="1195" y="0" type="curve"/>
      <point x="1363" y="0" type="line"/>
      <point x="1403" y="87"/>
      <point x="1420" y="227"/>
      <point x="1420" y="400" type="curve" smooth="yes"/>
      <point x="1420" y="691" type="line" smooth="yes"/>
      <point x="1420" y="1153"/>
      <point x="1210" y="1396"/>
      <point x="754" y="1396" type="curve" smooth="yes"/>
      <point x="300" y="1396"/>
      <point x="88" y="1153"/>
      <point x="88" y="691" type="curve" smooth="yes"/>
      <point x="88" y="244" type="line" smooth="yes"/>
      <point x="88" y="-103"/>
      <point x="246" y="-275"/>
      <point x="584" y="-275" type="curve" smooth="yes"/>
      <point x="907" y="-275"/>
      <point x="1067" y="-125"/>
      <point x="1067" y="169" type="curve" smooth="yes"/>
      <point x="1067" y="196" type="line" smooth="yes"/>
      <point x="1067" y="362"/>
      <point x="1012" y="450"/>
      <point x="889" y="468" type="curve"/>
      <point x="889" y="472" type="line"/>
      <point x="1005" y="491"/>
      <point x="1056" y="572"/>
      <point x="1056" y="712" type="curve" smooth="yes"/>
      <point x="1056" y="741" type="line" smooth="yes"/>
      <point x="1056" y="968"/>
      <point x="958" y="1087"/>
      <point x="751" y="1087" type="curve" smooth="yes"/>
      <point x="547" y="1087"/>
      <point x="446" y="966"/>
      <point x="446" y="736" type="curve" smooth="yes"/>
      <point x="446" y="389" type="line" smooth="yes"/>
      <point x="446" y="235"/>
      <point x="459" y="117"/>
      <point x="489" y="34" type="curve"/>
      <point x="655" y="34" type="line"/>
      <point x="630" y="113"/>
      <point x="613" y="234"/>
      <point x="613" y="389" type="curve" smooth="yes"/>
      <point x="613" y="740" type="line" smooth="yes"/>
      <point x="613" y="871"/>
      <point x="657" y="935"/>
      <point x="751" y="935" type="curve" smooth="yes"/>
      <point x="848" y="935"/>
      <point x="889" y="871"/>
      <point x="889" y="740" type="curve" smooth="yes"/>
      <point x="889" y="702" type="line" smooth="yes"/>
      <point x="889" y="595"/>
      <point x="850" y="544"/>
      <point x="762" y="540" type="curve" smooth="yes"/>
      <point x="722" y="538" type="line"/>
      <point x="722" y="394" type="line"/>
      <point x="769" y="391" type="line" smooth="yes"/>
      <point x="861" y="385"/>
      <point x="899" y="327"/>
      <point x="899" y="209" type="curve" smooth="yes"/>
      <point x="899" y="183" type="line" smooth="yes"/>
      <point x="899" y="-28"/>
      <point x="801" y="-129"/>
      <point x="584" y="-129" type="curve" smooth="yes"/>
      <point x="354" y="-129"/>
      <point x="256" y="-8"/>
      <point x="256" y="248" type="curve" smooth="yes"/>
      <point x="256" y="692" type="line" smooth="yes"/>
      <point x="256" y="1062"/>
      <point x="408" y="1250"/>
      <point x="754" y="1250" type="curve" smooth="yes"/>
      <point x="1102" y="1250"/>
      <point x="1252" y="1062"/>
    </contour>
  </outline>
</glyph>
<glyph name="six.mlm" format="2">
  <advance width="1612"/>
  <unicode hex="0D6C"/>
  <outline>
    <contour>
      <point x="1228" y="1048" type="curve" smooth="yes"/>
      <point x="1317" y="1048"/>
      <point x="1355" y="988"/>
      <point x="1355" y="863" type="curve" smooth="yes"/>
      <point x="1355" y="204" type="line" smooth="yes"/>
      <point x="1355" y="-36"/>
      <point x="1277" y="-156"/>
      <point x="1067" y="-156" type="curve" smooth="yes"/>
      <point x="994" y="-156"/>
      <point x="930" y="-147"/>
      <point x="872" y="-129" type="curve"/>
      <point x="902" y="-272" type="line"/>
      <point x="961" y="-290"/>
      <point x="1022" y="-297"/>
      <point x="1089" y="-297" type="curve" smooth="yes"/>
      <point x="1390" y="-297"/>
      <point x="1523" y="-128"/>
      <point x="1523" y="206" type="curve" smooth="yes"/>
      <point x="1523" y="862" type="line" smooth="yes"/>
      <point x="1523" y="1093"/>
      <point x="1441" y="1208"/>
      <point x="1257" y="1208" type="curve" smooth="yes"/>
      <point x="1115" y="1208"/>
      <point x="1039" y="1137"/>
      <point x="1018" y="1006" type="curve"/>
      <point x="1000" y="1006" type="line"/>
      <point x="1009" y="662" type="line"/>
      <point x="1099" y="645" type="line"/>
      <point x="1099" y="863" type="line" smooth="yes"/>
      <point x="1099" y="988"/>
      <point x="1139" y="1048"/>
    </contour>
    <contour>
      <point x="89" y="862" type="curve" smooth="yes"/>
      <point x="89" y="395" type="line" smooth="yes"/>
      <point x="89" y="225"/>
      <point x="112" y="84"/>
      <point x="162" y="0" type="curve"/>
      <point x="332" y="0" type="line"/>
      <point x="284" y="85"/>
      <point x="257" y="221"/>
      <point x="257" y="393" type="curve" smooth="yes"/>
      <point x="257" y="863" type="line" smooth="yes"/>
      <point x="257" y="988"/>
      <point x="296" y="1048"/>
      <point x="385" y="1048" type="curve" smooth="yes"/>
      <point x="474" y="1048"/>
      <point x="513" y="988"/>
      <point x="513" y="863" type="curve" smooth="yes"/>
      <point x="513" y="645" type="line"/>
      <point x="594" y="639" type="line"/>
      <point x="595" y="1006" type="line"/>
      <point x="574" y="1138"/>
      <point x="499" y="1208"/>
      <point x="356" y="1208" type="curve" smooth="yes"/>
      <point x="173" y="1208"/>
      <point x="89" y="1093"/>
    </contour>
    <contour>
      <point x="513" y="762" type="line"/>
      <point x="513" y="3" type="line"/>
      <point x="681" y="3" type="line"/>
      <point x="681" y="762" type="line"/>
    </contour>
    <contour>
      <point x="806" y="1048" type="curve" smooth="yes"/>
      <point x="893" y="1048"/>
      <point x="931" y="988"/>
      <point x="931" y="864" type="curve" smooth="yes"/>
      <point x="931" y="649" type="line"/>
      <point x="1024" y="649" type="line"/>
      <point x="1013" y="1006" type="line"/>
      <point x="999" y="1138"/>
      <point x="925" y="1208"/>
      <point x="806" y="1208" type="curve" smooth="yes"/>
      <point x="687" y="1208"/>
      <point x="614" y="1139"/>
      <point x="599" y="1006" type="curve"/>
      <point x="575" y="1006" type="line"/>
      <point x="585" y="649" type="line"/>
      <point x="681" y="649" type="line"/>
      <point x="681" y="864" type="line" smooth="yes"/>
      <point x="681" y="988"/>
      <point x="719" y="1048"/>
    </contour>
    <contour>
      <point x="931" y="771" type="line"/>
      <point x="931" y="3" type="line"/>
      <point x="1099" y="3" type="line"/>
      <point x="1099" y="771" type="line"/>
    </contour>
  </outline>
</glyph>
<glyph name="eight.mlm" format="2">
  <advance width="1171"/>
  <unicode hex="0D6E"/>
  <outline>
    <contour>
      <point x="1046" y="136" type="line"/>
      <point x="622" y="136" type="line"/>
      <point x="480" y="0" type="line"/>
      <point x="1046" y="0" type="line"/>
    </contour>
    <contour>
      <point x="902" y="70" type="line"/>
      <point x="906" y="26" type="line"/>
      <point x="906" y="-118"/>
      <point x="847" y="-191"/>
      <point x="687" y="-191" type="curve" smooth="yes"/>
      <point x="611" y="-191"/>
      <point x="547" y="-182"/>
      <point x="488" y="-164" type="curve"/>
      <point x="518" y="-306" type="line"/>
      <point x="575" y="-325"/>
      <point x="637" y="-332"/>
      <point x="703" y="-332" type="curve" smooth="yes"/>
      <point x="959" y="-332"/>
      <point x="1070" y="-211"/>
      <point x="1070" y="33" type="curve" smooth="yes"/>
      <point x="1070" y="1182" type="line"/>
      <point x="902" y="1182" type="line"/>
    </contour>
    <contour>
      <point x="399" y="1054" type="curve" smooth="yes"/>
      <point x="498" y="1054"/>
      <point x="542" y="988"/>
      <point x="542" y="848" type="curve" smooth="yes"/>
      <point x="542" y="389" type="line" smooth="yes"/>
      <point x="542" y="224"/>
      <point x="520" y="94"/>
      <point x="479" y="10" type="curve"/>
      <point x="479" y="0" type="line"/>
      <point x="627" y="0" type="line"/>
      <point x="685" y="83"/>
      <point x="710" y="217"/>
      <point x="710" y="391" type="curve" smooth="yes"/>
      <point x="710" y="846" type="line" smooth="yes"/>
      <point x="710" y="1086"/>
      <point x="609" y="1208"/>
      <point x="399" y="1208" type="curve" smooth="yes"/>
      <point x="191" y="1208"/>
      <point x="89" y="1086"/>
      <point x="89" y="846" type="curve" smooth="yes"/>
      <point x="89" y="381" type="line" smooth="yes"/>
      <point x="89" y="216"/>
      <point x="109" y="80"/>
      <point x="149" y="0" type="curve"/>
      <point x="319" y="0" type="line"/>
      <point x="281" y="83"/>
      <point x="257" y="219"/>
      <point x="257" y="389" type="curve" smooth="yes"/>
      <point x="257" y="848" type="line" smooth="yes"/>
      <point x="257" y="988"/>
      <point x="300" y="1054"/>
    </contour>
  </outline>
</glyph>
<glyph name="nine.mlm" format="2">
  <advance width="1465"/>
  <unicode hex="0D6F"/>
  <outline>
    <contour>
      <point x="512" y="733" type="line"/>
      <point x="512" y="3" type="line"/>
      <point x="680" y="3" type="line"/>
      <point x="680" y="785" type="line"/>
    </contour>
    <contour>
      <point x="384" y="1048" type="curve" smooth="yes"/>
      <point x="472" y="1048"/>
      <point x="512" y="988"/>
      <point x="512" y="864" type="curve" smooth="yes"/>
      <point x="512" y="645" type="line"/>
      <point x="601" y="645" type="line"/>
      <point x="598" y="989" type="line"/>
      <point x="583" y="1144"/>
      <point x="493" y="1208"/>
      <point x="356" y="1208" type="curve" smooth="yes"/>
      <point x="172" y="1208"/>
      <point x="89" y="1093"/>
      <point x="89" y="862" type="curve" smooth="yes"/>
      <point x="89" y="395" type="line" smooth="yes"/>
      <point x="89" y="225"/>
      <point x="111" y="84"/>
      <point x="162" y="0" type="curve"/>
      <point x="332" y="0" type="line"/>
      <point x="285" y="85"/>
      <point x="257" y="221"/>
      <point x="257" y="393" type="curve" smooth="yes"/>
      <point x="257" y="863" type="line" smooth="yes"/>
      <point x="257" y="988"/>
      <point x="296" y="1048"/>
    </contour>
    <contour>
      <point x="935" y="1060" type="curve" smooth="yes"/>
      <point x="1002" y="1060"/>
      <point x="1056" y="1047"/>
      <point x="1099" y="1018" type="curve"/>
      <point x="1145" y="978" type="line"/>
      <point x="1191" y="920"/>
      <point x="1214" y="831"/>
      <point x="1214" y="708" type="curve" smooth="yes"/>
      <point x="1214" y="269" type="line" smooth="yes"/>
      <point x="1214" y="173"/>
      <point x="1184" y="128"/>
      <point x="1118" y="128" type="curve" smooth="yes"/>
      <point x="1054" y="128"/>
      <point x="1022" y="173"/>
      <point x="1022" y="269" type="curve" smooth="yes"/>
      <point x="1022" y="570" type="line" smooth="yes"/>
      <point x="1022" y="789"/>
      <point x="1060" y="887"/>
      <point x="1195" y="981" type="curve"/>
      <point x="1235" y="1026" type="line"/>
      <point x="1327" y="1097"/>
      <point x="1374" y="1186"/>
      <point x="1374" y="1298" type="curve" smooth="yes"/>
      <point x="1374" y="1375"/>
      <point x="1359" y="1430"/>
      <point x="1331" y="1488" type="curve"/>
      <point x="1182" y="1488" type="line"/>
      <point x="1211" y="1430"/>
      <point x="1224" y="1369"/>
      <point x="1224" y="1301" type="curve" smooth="yes"/>
      <point x="1224" y="1227"/>
      <point x="1194" y="1157"/>
      <point x="1134" y="1109" type="curve"/>
      <point x="1099" y="1067" type="line"/>
      <point x="922" y="962"/>
      <point x="857" y="853"/>
      <point x="857" y="571" type="curve" smooth="yes"/>
      <point x="857" y="275" type="line" smooth="yes"/>
      <point x="857" y="82"/>
      <point x="942" y="-19"/>
      <point x="1117" y="-19" type="curve" smooth="yes"/>
      <point x="1294" y="-19"/>
      <point x="1380" y="82"/>
      <point x="1380" y="275" type="curve" smooth="yes"/>
      <point x="1380" y="708" type="line" smooth="yes"/>
      <point x="1380" y="881"/>
      <point x="1340" y="1010"/>
      <point x="1255" y="1094" type="curve"/>
      <point x="1201" y="1134" type="line" smooth="yes"/>
      <point x="1133" y="1183"/>
      <point x="1050" y="1208"/>
      <point x="941" y="1208" type="curve" smooth="yes"/>
      <point x="747" y="1208"/>
      <point x="635" y="1131"/>
      <point x="603" y="989" type="curve"/>
      <point x="562" y="989" type="line"/>
      <point x="578" y="635" type="line"/>
      <point x="680" y="635" type="line"/>
      <point x="680" y="797" type="line" smooth="yes"/>
      <point x="680" y="975"/>
      <point x="765" y="1060"/>
    </contour>
  </outline>
</glyph>
<glyph name="onehundred.mlm" format="2">
  <advance width="1193"/>
  <unicode hex="0D71"/>
  <outline>
    <contour>
      <point x="809" y="1048" type="curve" smooth="yes"/>
      <point x="898" y="1048"/>
      <point x="936" y="988"/>
      <point x="936" y="863" type="curve" smooth="yes"/>
      <point x="936" y="204" type="line" smooth="yes"/>
      <point x="936" y="-36"/>
      <point x="858" y="-156"/>
      <point x="648" y="-156" type="curve" smooth="yes"/>
      <point x="575" y="-156"/>
      <point x="511" y="-147"/>
      <point x="453" y="-129" type="curve"/>
      <point x="483" y="-272" type="line"/>
      <point x="542" y="-290"/>
      <point x="603" y="-297"/>
      <point x="670" y="-297" type="curve" smooth="yes"/>
      <point x="971" y="-297"/>
      <point x="1104" y="-128"/>
      <point x="1104" y="206" type="curve" smooth="yes"/>
      <point x="1104" y="862" type="line" smooth="yes"/>
      <point x="1104" y="1093"/>
      <point x="1022" y="1208"/>
      <point x="838" y="1208" type="curve" smooth="yes"/>
      <point x="696" y="1208"/>
      <point x="620" y="1137"/>
      <point x="599" y="1006" type="curve"/>
      <point x="581" y="1006" type="line"/>
      <point x="590" y="662" type="line"/>
      <point x="680" y="645" type="line"/>
      <point x="680" y="863" type="line" smooth="yes"/>
      <point x="680" y="988"/>
      <point x="720" y="1048"/>
    </contour>
    <contour>
      <point x="512" y="771" type="line"/>
      <point x="512" y="3" type="line"/>
      <point x="680" y="3" type="line"/>
      <point x="680" y="771" type="line"/>
    </contour>
    <contour>
      <point x="89" y="862" type="curve" smooth="yes"/>
      <point x="89" y="395" type="line" smooth="yes"/>
      <point x="89" y="225"/>
      <point x="112" y="84"/>
      <point x="162" y="0" type="curve"/>
      <point x="332" y="0" type="line"/>
      <point x="284" y="85"/>
      <point x="257" y="221"/>
      <point x="257" y="393" type="curve" smooth="yes"/>
      <point x="257" y="863" type="line" smooth="yes"/>
      <point x="257" y="988"/>
      <point x="296" y="1048"/>
      <point x="384" y="1048" type="curve" smooth="yes"/>
      <point x="473" y="1048"/>
      <point x="512" y="988"/>
      <point x="512" y="863" type="curve" smooth="yes"/>
      <point x="512" y="645" type="line"/>
      <point x="601" y="645" type="line"/>
      <point x="594" y="1005" type="line"/>
      <point x="575" y="1138"/>
      <point x="498" y="1208"/>
      <point x="355" y="1208" type="curve" smooth="yes"/>
      <point x="173" y="1208"/>
      <point x="89" y="1093"/>
    </contour>
  </outline>
</glyph>
<glyph name="onethousand.mlm" format="2">
  <advance width="1995"/>
  <unicode hex="0D72"/>
  <outline>
    <component base="date.mlm"/>
    <contour>
      <point x="1619" y="753" type="line"/>
      <point x="1619" y="942" type="line" smooth="yes"/>
      <point x="1619" y="1023"/>
      <point x="1646" y="1061"/>
      <point x="1705" y="1061" type="curve" smooth="yes"/>
      <point x="1762" y="1061"/>
      <point x="1789" y="1023"/>
      <point x="1789" y="942" type="curve" smooth="yes"/>
      <point x="1789" y="884" type="line" smooth="yes"/>
      <point x="1789" y="805"/>
      <point x="1759" y="770"/>
      <point x="1689" y="770" type="curve" smooth="yes"/>
      <point x="1330" y="770" type="line"/>
      <point x="1328" y="633" type="line"/>
      <point x="1696" y="633" type="line" smooth="yes"/>
      <point x="1866" y="633"/>
      <point x="1946" y="713"/>
      <point x="1946" y="882" type="curve" smooth="yes"/>
      <point x="1946" y="932" type="line" smooth="yes"/>
      <point x="1946" y="1111"/>
      <point x="1868" y="1203"/>
      <point x="1706" y="1203" type="curve" smooth="yes"/>
      <point x="1546" y="1203"/>
      <point x="1467" y="1115"/>
      <point x="1467" y="944" type="curve" smooth="yes"/>
      <point x="1467" y="748" type="line"/>
    </contour>
  </outline>
</glyph>
<glyph name="onehalf.mlm" format="2">
  <advance width="1322"/>
  <unicode hex="0D74"/>
  <outline>
    <contour>
      <point x="974" y="-19" type="curve" smooth="yes"/>
      <point x="1151" y="-19"/>
      <point x="1237" y="82"/>
      <point x="1237" y="275" type="curve" smooth="yes"/>
      <point x="1237" y="667" type="line" smooth="yes"/>
      <point x="1237" y="922"/>
      <point x="1143" y="1088"/>
      <point x="947" y="1162" type="curve" smooth="yes"/>
      <point x="927" y="1170"/>
      <point x="906" y="1176"/>
      <point x="883" y="1181" type="curve"/>
      <point x="818" y="1199"/>
      <point x="743" y="1208"/>
      <point x="658" y="1208" type="curve" smooth="yes"/>
      <point x="272" y="1208"/>
      <point x="86" y="1025"/>
      <point x="86" y="667" type="curve" smooth="yes"/>
      <point x="86" y="276" type="line" smooth="yes"/>
      <point x="86" y="82"/>
      <point x="171" y="-18"/>
      <point x="344" y="-18" type="curve" smooth="yes"/>
      <point x="516" y="-18"/>
      <point x="601" y="82"/>
      <point x="601" y="276" type="curve" smooth="yes"/>
      <point x="601" y="555" type="line" smooth="yes"/>
      <point x="601" y="726"/>
      <point x="540" y="809"/>
      <point x="421" y="809" type="curve" smooth="yes"/>
      <point x="318" y="809"/>
      <point x="259" y="744"/>
      <point x="242" y="629" type="curve"/>
      <point x="247" y="572" type="line"/>
      <point x="267" y="630"/>
      <point x="299" y="659"/>
      <point x="349" y="659" type="curve" smooth="yes"/>
      <point x="409" y="659"/>
      <point x="437" y="618"/>
      <point x="437" y="531" type="curve" smooth="yes"/>
      <point x="437" y="271" type="line" smooth="yes"/>
      <point x="437" y="174"/>
      <point x="408" y="129"/>
      <point x="344" y="129" type="curve" smooth="yes"/>
      <point x="280" y="129"/>
      <point x="249" y="174"/>
      <point x="249" y="271" type="curve" smooth="yes"/>
      <point x="249" y="593" type="line"/>
      <point x="262" y="677" type="line"/>
      <point x="246" y="677" type="line"/>
      <point x="246" y="680" type="line" smooth="yes"/>
      <point x="246" y="938"/>
      <point x="374" y="1058"/>
      <point x="658" y="1058" type="curve" smooth="yes"/>
      <point x="732" y="1058"/>
      <point x="795" y="1050"/>
      <point x="848" y="1034" type="curve"/>
      <point x="854" y="1032"/>
      <point x="916" y="1009"/>
      <point x="921" y="1007" type="curve"/>
      <point x="1023" y="954"/>
      <point x="1071" y="842"/>
      <point x="1071" y="673" type="curve" smooth="yes"/>
      <point x="1071" y="269" type="line" smooth="yes"/>
      <point x="1071" y="173"/>
      <point x="1042" y="128"/>
      <point x="976" y="128" type="curve" smooth="yes"/>
      <point x="910" y="128"/>
      <point x="879" y="173"/>
      <point x="879" y="269" type="curve" smooth="yes"/>
      <point x="879" y="648" type="line" smooth="yes"/>
      <point x="879" y="817"/>
      <point x="903" y="923"/>
      <point x="949" y="1037" type="curve" smooth="yes"/>
      <point x="955" y="1052"/>
      <point x="973" y="1111"/>
      <point x="978" y="1126" type="curve" smooth="yes"/>
      <point x="996" y="1181"/>
      <point x="1004" y="1231"/>
      <point x="1004" y="1289" type="curve" smooth="yes"/>
      <point x="1004" y="1374"/>
      <point x="988" y="1435"/>
      <point x="957" y="1499" type="curve"/>
      <point x="806" y="1499" type="line"/>
      <point x="838" y="1431"/>
      <point x="854" y="1362"/>
      <point x="854" y="1284" type="curve" smooth="yes"/>
      <point x="854" y="1235"/>
      <point x="846" y="1194"/>
      <point x="831" y="1151" type="curve"/>
      <point x="828" y="1138"/>
      <point x="813" y="1094"/>
      <point x="809" y="1081" type="curve"/>
      <point x="747" y="959"/>
      <point x="714" y="855"/>
      <point x="714" y="648" type="curve" smooth="yes"/>
      <point x="714" y="275" type="line" smooth="yes"/>
      <point x="714" y="82"/>
      <point x="799" y="-19"/>
    </contour>
  </outline>
</glyph>
<glyph name="oneeighth.mlm" format="2">
  <advance width="2444"/>
  <unicode hex="0D77"/>
  <outline>
    <contour>
      <point x="354" y="799" type="curve" smooth="yes"/>
      <point x="167" y="799"/>
      <point x="77" y="690"/>
      <point x="77" y="482" type="curve" smooth="yes"/>
      <point x="77" y="283" type="line" smooth="yes"/>
      <point x="77" y="160"/>
      <point x="91" y="65"/>
      <point x="119" y="0" type="curve"/>
      <point x="285" y="0" type="line"/>
      <point x="259" y="63"/>
      <point x="243" y="157"/>
      <point x="243" y="281" type="curve" smooth="yes"/>
      <point x="243" y="483" type="line" smooth="yes"/>
      <point x="243" y="591"/>
      <point x="278" y="647"/>
      <point x="353" y="647" type="curve" smooth="yes"/>
      <point x="429" y="647"/>
      <point x="465" y="591"/>
      <point x="465" y="483" type="curve" smooth="yes"/>
      <point x="465" y="281" type="line" smooth="yes"/>
      <point x="465" y="163"/>
      <point x="448" y="72"/>
      <point x="417" y="10" type="curve"/>
      <point x="417" y="0" type="line"/>
      <point x="547" y="0" type="line"/>
      <point x="604" y="67"/>
      <point x="631" y="165"/>
      <point x="631" y="290" type="curve" smooth="yes"/>
      <point x="631" y="482" type="line" smooth="yes"/>
      <point x="631" y="690"/>
      <point x="541" y="799"/>
    </contour>
    <contour>
      <point x="1233" y="733" type="line"/>
      <point x="1233" y="265" type="line"/>
      <point x="1401" y="265" type="line"/>
      <point x="1401" y="785" type="line"/>
    </contour>
    <contour>
      <point x="1658" y="1208" type="curve" smooth="yes"/>
      <point x="1468" y="1208"/>
      <point x="1357" y="1131"/>
      <point x="1325" y="989" type="curve"/>
      <point x="1284" y="989" type="line"/>
      <point x="1299" y="635" type="line"/>
      <point x="1401" y="635" type="line"/>
      <point x="1401" y="797" type="line" smooth="yes"/>
      <point x="1401" y="973"/>
      <point x="1485" y="1056"/>
      <point x="1650" y="1056" type="curve" smooth="yes"/>
      <point x="1828" y="1056"/>
      <point x="1910" y="956"/>
      <point x="1910" y="739" type="curve" smooth="yes"/>
      <point x="1910" y="269" type="line" smooth="yes"/>
      <point x="1910" y="174"/>
      <point x="1880" y="128"/>
      <point x="1817" y="128" type="curve" smooth="yes"/>
      <point x="1755" y="128"/>
      <point x="1724" y="174"/>
      <point x="1724" y="269" type="curve" smooth="yes"/>
      <point x="1724" y="490" type="line" smooth="yes"/>
      <point x="1724" y="590"/>
      <point x="1757" y="633"/>
      <point x="1837" y="633" type="curve" smooth="yes"/>
      <point x="2026" y="633" type="line"/>
      <point x="2043" y="770" type="line"/>
      <point x="1811" y="770" type="line" smooth="yes"/>
      <point x="1643" y="770"/>
      <point x="1561" y="681"/>
      <point x="1561" y="491" type="curve" smooth="yes"/>
      <point x="1561" y="274" type="line" smooth="yes"/>
      <point x="1561" y="82"/>
      <point x="1647" y="-18"/>
      <point x="1816" y="-18" type="curve" smooth="yes"/>
      <point x="1986" y="-18"/>
      <point x="2073" y="82"/>
      <point x="2073" y="274" type="curve" smooth="yes"/>
      <point x="2073" y="731" type="line" smooth="yes"/>
      <point x="2073" y="1045"/>
      <point x="1939" y="1208"/>
    </contour>
    <contour>
      <point x="813" y="862" type="curve" smooth="yes"/>
      <point x="813" y="397" type="line" smooth="yes"/>
      <point x="813" y="221"/>
      <point x="847" y="86"/>
      <point x="903" y="0" type="curve"/>
      <point x="1053" y="0" type="line"/>
      <point x="1053" y="10" type="line"/>
      <point x="1008" y="94"/>
      <point x="981" y="227"/>
      <point x="981" y="393" type="curve" smooth="yes"/>
      <point x="981" y="863" type="line" smooth="yes"/>
      <point x="981" y="988"/>
      <point x="1021" y="1048"/>
      <point x="1107" y="1048" type="curve" smooth="yes"/>
      <point x="1193" y="1048"/>
      <point x="1233" y="988"/>
      <point x="1233" y="864" type="curve" smooth="yes"/>
      <point x="1233" y="645" type="line"/>
      <point x="1322" y="645" type="line"/>
      <point x="1320" y="989" type="line"/>
      <point x="1305" y="1143"/>
      <point x="1215" y="1208"/>
      <point x="1079" y="1208" type="curve" smooth="yes"/>
      <point x="896" y="1208"/>
      <point x="813" y="1093"/>
    </contour>
    <contour>
      <point x="487" y="135" type="line"/>
      <point x="420" y="0" type="line"/>
      <point x="1020" y="0" type="line"/>
      <point x="935" y="135" type="line"/>
    </contour>
    <contour>
      <point x="2376" y="1076" type="curve"/>
      <point x="2230" y="1076" type="line"/>
      <point x="2230" y="912" type="line" smooth="yes"/>
      <point x="2230" y="813"/>
      <point x="2195" y="770"/>
      <point x="2110" y="770" type="curve" smooth="yes"/>
      <point x="1959" y="770" type="line"/>
      <point x="1957" y="633" type="line"/>
      <point x="2136" y="633" type="line" smooth="yes"/>
      <point x="2305" y="633"/>
      <point x="2385" y="715"/>
      <point x="2385" y="892" type="curve" smooth="yes"/>
      <point x="2385" y="964"/>
      <point x="2383" y="1006"/>
    </contour>
  </outline>
</glyph>
<glyph name="threesixteenths.mlm" format="2">
  <advance width="2721"/>
  <unicode hex="0D78"/>
  <outline>
    <contour>
      <point x="245" y="414" type="line"/>
      <point x="414" y="414" type="line"/>
      <point x="414" y="1176" type="line"/>
      <point x="245" y="1176" type="line"/>
    </contour>
    <contour>
      <point x="129" y="-20" type="curve" smooth="yes"/>
      <point x="244" y="-20"/>
      <point x="313" y="48"/>
      <point x="327" y="177" type="curve"/>
      <point x="385" y="177" type="line"/>
      <point x="392" y="499" type="line"/>
      <point x="245" y="537" type="line"/>
      <point x="245" y="320" type="line" smooth="yes"/>
      <point x="245" y="193"/>
      <point x="201" y="133"/>
      <point x="104" y="133" type="curve" smooth="yes"/>
      <point x="71" y="133"/>
      <point x="38" y="138"/>
      <point x="5" y="146" type="curve"/>
      <point x="35" y="-7" type="line"/>
      <point x="68" y="-16"/>
      <point x="97" y="-20"/>
    </contour>
    <contour>
      <point x="1657" y="1208" type="curve" smooth="yes"/>
      <point x="1479" y="1208"/>
      <point x="1393" y="1099"/>
      <point x="1393" y="872" type="curve" smooth="yes"/>
      <point x="1393" y="696"/>
      <point x="1417" y="484"/>
      <point x="1417" y="308" type="curve" smooth="yes"/>
      <point x="1417" y="189"/>
      <point x="1381" y="134"/>
      <point x="1298" y="134" type="curve" smooth="yes"/>
      <point x="1215" y="134"/>
      <point x="1178" y="189"/>
      <point x="1178" y="308" type="curve" smooth="yes"/>
      <point x="1178" y="486"/>
      <point x="1202" y="700"/>
      <point x="1202" y="878" type="curve" smooth="yes"/>
      <point x="1202" y="1099"/>
      <point x="1106" y="1208"/>
      <point x="914" y="1208" type="curve" smooth="yes"/>
      <point x="721" y="1208"/>
      <point x="626" y="1099"/>
      <point x="626" y="878" type="curve" smooth="yes"/>
      <point x="626" y="700"/>
      <point x="650" y="486"/>
      <point x="650" y="308" type="curve" smooth="yes"/>
      <point x="650" y="189"/>
      <point x="613" y="134"/>
      <point x="531" y="134" type="curve" smooth="yes"/>
      <point x="451" y="134"/>
      <point x="414" y="191"/>
      <point x="414" y="311" type="curve" smooth="yes"/>
      <point x="414" y="537" type="line"/>
      <point x="318" y="483" type="line"/>
      <point x="332" y="177" type="line"/>
      <point x="346" y="48"/>
      <point x="429" y="-20"/>
      <point x="558" y="-20" type="curve" smooth="yes"/>
      <point x="737" y="-20"/>
      <point x="818" y="88"/>
      <point x="818" y="310" type="curve" smooth="yes"/>
      <point x="818" y="489"/>
      <point x="794" y="703"/>
      <point x="794" y="880" type="curve" smooth="yes"/>
      <point x="794" y="1000"/>
      <point x="831" y="1054"/>
      <point x="914" y="1054" type="curve" smooth="yes"/>
      <point x="997" y="1054"/>
      <point x="1034" y="1000"/>
      <point x="1034" y="880" type="curve" smooth="yes"/>
      <point x="1034" y="703"/>
      <point x="1010" y="489"/>
      <point x="1010" y="310" type="curve" smooth="yes"/>
      <point x="1010" y="89"/>
      <point x="1105" y="-21"/>
      <point x="1298" y="-21" type="curve" smooth="yes"/>
      <point x="1490" y="-21"/>
      <point x="1585" y="89"/>
      <point x="1585" y="310" type="curve" smooth="yes"/>
      <point x="1585" y="487"/>
      <point x="1561" y="699"/>
      <point x="1561" y="874" type="curve" smooth="yes"/>
      <point x="1561" y="994"/>
      <point x="1598" y="1048"/>
      <point x="1683" y="1048" type="curve" smooth="yes"/>
      <point x="1769" y="1048"/>
      <point x="1808" y="990"/>
      <point x="1808" y="867" type="curve" smooth="yes"/>
      <point x="1808" y="645" type="line"/>
      <point x="1888" y="645" type="line"/>
      <point x="1893" y="993" type="line"/>
      <point x="1877" y="1149"/>
      <point x="1788" y="1208"/>
    </contour>
    <contour>
      <point x="2224" y="1208" type="curve" smooth="yes"/>
      <point x="2044" y="1208"/>
      <point x="1935" y="1136"/>
      <point x="1898" y="993" type="curve"/>
      <point x="1882" y="993" type="line"/>
      <point x="1808" y="703" type="line"/>
      <point x="1808" y="0" type="line"/>
      <point x="1968" y="0" type="line"/>
      <point x="1968" y="745" type="line" smooth="yes"/>
      <point x="1968" y="962"/>
      <point x="2041" y="1061"/>
      <point x="2216" y="1061" type="curve" smooth="yes"/>
      <point x="2385" y="1061"/>
      <point x="2463" y="957"/>
      <point x="2463" y="745" type="curve" smooth="yes"/>
      <point x="2463" y="0" type="line"/>
      <point x="2624" y="0" type="line"/>
      <point x="2624" y="740" type="line" smooth="yes"/>
      <point x="2624" y="1049"/>
      <point x="2496" y="1208"/>
    </contour>
    <contour>
      <point x="1892" y="134" type="line"/>
      <point x="1825" y="0" type="line"/>
      <point x="2599" y="0" type="line"/>
      <point x="2600" y="134" type="line"/>
    </contour>
    <contour>
      <point x="2320.01" y="704" type="line" smooth="yes"/>
      <point x="2320.01" y="908.584"/>
      <point x="2242.32" y="1009"/>
      <point x="2084.01" y="1009" type="curve" smooth="yes"/>
      <point x="2054.31" y="1009"/>
      <point x="2012.6" y="1000.2"/>
      <point x="1983.01" y="987" type="curve"/>
      <point x="1944.01" y="863" type="line"/>
      <point x="1977.11" y="886.2"/>
      <point x="2008.13" y="892"/>
      <point x="2035.01" y="892" type="curve" smooth="yes"/>
      <point x="2119.39" y="892"/>
      <point x="2158.01" y="832.961"/>
      <point x="2158.01" y="704" type="curve" smooth="yes"/>
      <point x="2158.01" y="681" type="line" smooth="yes"/>
      <point x="2158.01" y="456.776"/>
      <point x="2103.67" y="278.183"/>
      <point x="2004.01" y="130" type="curve"/>
      <point x="2161.01" y="109" type="line"/>
      <point x="2262.67" y="248.366"/>
      <point x="2320.01" y="444.629"/>
      <point x="2320.01" y="679" type="curve" smooth="yes"/>
    </contour>
  </outline>
</glyph>
<glyph name="chilluN.mlm" format="2">
  <advance width="1470"/>
  <unicode hex="0D7B"/>
  <outline>
    <contour>
      <point x="512" y="733" type="line"/>
      <point x="512" y="3" type="line"/>
      <point x="680" y="3" type="line"/>
      <point x="680" y="785" type="line"/>
    </contour>
    <contour>
      <point x="384" y="1048" type="curve" smooth="yes"/>
      <point x="472" y="1048"/>
      <point x="512" y="988"/>
      <point x="512" y="864" type="curve" smooth="yes"/>
      <point x="512" y="645" type="line"/>
      <point x="601" y="645" type="line"/>
      <point x="598" y="989" type="line"/>
      <point x="583" y="1144"/>
      <point x="493" y="1208"/>
      <point x="356" y="1208" type="curve" smooth="yes"/>
      <point x="172" y="1208"/>
      <point x="89" y="1093"/>
      <point x="89" y="862" type="curve" smooth="yes"/>
      <point x="89" y="395" type="line" smooth="yes"/>
      <point x="89" y="225"/>
      <point x="111" y="84"/>
      <point x="162" y="0" type="curve"/>
      <point x="332" y="0" type="line"/>
      <point x="285" y="85"/>
      <point x="257" y="221"/>
      <point x="257" y="393" type="curve" smooth="yes"/>
      <point x="257" y="863" type="line" smooth="yes"/>
      <point x="257" y="988"/>
      <point x="296" y="1048"/>
    </contour>
    <contour>
      <point x="1075" y="1192" type="line" smooth="yes"/>
      <point x="1033" y="1203"/>
      <point x="997" y="1208"/>
      <point x="946" y="1208" type="curve" smooth="yes"/>
      <point x="748" y="1208"/>
      <point x="635" y="1131"/>
      <point x="603" y="989" type="curve"/>
      <point x="562" y="989" type="line"/>
      <point x="577" y="635" type="line"/>
      <point x="680" y="635" type="line"/>
      <point x="680" y="797" type="line" smooth="yes"/>
      <point x="680" y="978"/>
      <point x="764" y="1064"/>
      <point x="935" y="1064" type="curve" smooth="yes"/>
      <point x="977" y="1064"/>
      <point x="1013" y="1059"/>
      <point x="1045" y="1047" type="curve" smooth="yes"/>
      <point x="1075" y="1036" type="line"/>
      <point x="1179" y="991"/>
      <point x="1219" y="880"/>
      <point x="1219" y="708" type="curve" smooth="yes"/>
      <point x="1219" y="269" type="line" smooth="yes"/>
      <point x="1219" y="174"/>
      <point x="1190" y="128"/>
      <point x="1124" y="128" type="curve" smooth="yes"/>
      <point x="1058" y="128"/>
      <point x="1027" y="174"/>
      <point x="1027" y="269" type="curve" smooth="yes"/>
      <point x="1027" y="648" type="line" smooth="yes"/>
      <point x="1027" y="822"/>
      <point x="1050" y="931"/>
      <point x="1102" y="1048" type="curve"/>
      <point x="1106" y="1063"/>
      <point x="1120" y="1122"/>
      <point x="1123" y="1137" type="curve"/>
      <point x="1141" y="1186"/>
      <point x="1149" y="1234"/>
      <point x="1149" y="1289" type="curve" smooth="yes"/>
      <point x="1149" y="1373"/>
      <point x="1132" y="1435"/>
      <point x="1102" y="1499" type="curve"/>
      <point x="951" y="1499" type="line"/>
      <point x="983" y="1432"/>
      <point x="999" y="1361"/>
      <point x="999" y="1284" type="curve" smooth="yes"/>
      <point x="999" y="1238"/>
      <point x="993" y="1201"/>
      <point x="981" y="1162" type="curve" smooth="yes"/>
      <point x="977" y="1150"/>
      <point x="970" y="1107"/>
      <point x="964" y="1092" type="curve"/>
      <point x="895" y="966"/>
      <point x="862" y="860"/>
      <point x="862" y="648" type="curve" smooth="yes"/>
      <point x="862" y="275" type="line" smooth="yes"/>
      <point x="862" y="81"/>
      <point x="946" y="-19"/>
      <point x="1122" y="-19" type="curve" smooth="yes"/>
      <point x="1299" y="-19"/>
      <point x="1385" y="81"/>
      <point x="1385" y="275" type="curve" smooth="yes"/>
      <point x="1385" y="708" type="line" smooth="yes"/>
      <point x="1385" y="947"/>
      <point x="1317" y="1114"/>
      <point x="1116" y="1181" type="curve"/>
    </contour>
  </outline>
</glyph>
